<?xml version="1.0" encoding="UTF-8"?>
<svg id="Layer_2" data-name="Layer 2" xmlns="http://www.w3.org/2000/svg" xmlns:xlink="http://www.w3.org/1999/xlink" viewBox="0 0 373.83 162.26">
  <defs>
    <style>
      .cls-1, .cls-2 {
        fill: #fff;
      }

      .cls-3 {
        fill: #45f063;
      }

      .cls-4 {
        letter-spacing: -.04em;
      }

      .cls-5 {
        letter-spacing: -.03em;
      }

      .cls-6 {
        fill: #0986bf;
      }

      .cls-2 {
        font-family: Bahnschrift-Light, Bahnschrift;
        font-size: 28.14px;
        font-variation-settings: 'wght' 300, 'wdth' 100;
        font-weight: 300;
        opacity: .8;
      }

      .cls-7 {
        letter-spacing: -.04em;
      }

      .cls-8 {
        clip-path: url(#clippath);
      }

      .cls-9 {
        fill: none;
      }

      .cls-10 {
        letter-spacing: -.02em;
      }

      .cls-11 {
        fill: url(#linear-gradient);
      }

      .cls-12 {
        letter-spacing: 0em;
      }

      .cls-13 {
        letter-spacing: .02em;
      }

      .cls-14 {
        letter-spacing: -.04em;
      }
    </style>
    <clipPath id="clippath">
      <path class="cls-9" d="m11.65,93.47h5.57c3.37,0,6.22-.6,8.55-1.81,2.33-1.21,4.07-2.89,5.23-5.06s1.74-4.71,1.74-7.62v-11.46c0-3.06-.6-5.68-1.81-7.85-1.21-2.17-2.97-3.82-5.29-4.95-2.32-1.13-5.12-1.7-8.4-1.7H4.24v40.45h7.41Zm5.76-33.11c2.43,0,4.32.6,5.65,1.81,1.33,1.21,2,2.91,2,5.12v11.91c0,2.21-.67,3.91-2,5.12s-3.22,1.81-5.65,1.81h-5.76v-25.76h5.76Zm32.8-7.35l-15.04,40.45h7.98l2.21-6.48h14.41l2.21,6.48h7.98l-15.04-40.45h-4.71Zm-2.35,26.63l4.7-13.8,4.7,13.8h-9.4Zm48.7-11.94v11.1c0,1.58.26,2.92.77,4.03.51,1.11,1.26,1.96,2.23,2.55.97.58,2.15.88,3.54.88,1.08,0,2.06-.25,2.92-.74.87-.49,1.59-1.21,2.19-2.16.59-.95,1.03-2.1,1.3-3.45h7.68c-.5,2.95-1.39,5.47-2.66,7.55-1.27,2.09-2.88,3.68-4.81,4.77-1.94,1.09-4.14,1.64-6.61,1.64-2.99,0-5.55-.59-7.68-1.77-2.13-1.18-3.75-2.89-4.87-5.15-1.12-2.25-1.68-4.98-1.68-8.17v-11.1c0-3.19.56-5.91,1.68-8.17,1.12-2.25,2.74-3.97,4.87-5.16,2.13-1.19,4.69-1.78,7.68-1.78,2.47,0,4.68.55,6.62,1.64,1.95,1.09,3.56,2.68,4.83,4.77,1.27,2.09,2.15,4.6,2.64,7.55h-7.68c-.29-1.34-.74-2.48-1.34-3.42-.6-.95-1.33-1.67-2.19-2.17-.86-.5-1.82-.75-2.88-.75-1.39,0-2.57.29-3.54.88-.97.58-1.72,1.44-2.23,2.56s-.77,2.47-.77,4.05Zm33.99,25.76h-7.68v-40.45h7.68v40.45Zm10.79,0h-2.68v-40.45h26.34v7.35h-18.93v9.35h15.96v7.35h-15.96v9.07h18.93v7.34h-23.66Zm5.62-43.18l-4.3-3.89,9.57-7.62,9.57,7.62-4.3,3.89-5.27-4.17-5.27,4.17Zm31.88,43.15h-7.08v-40.43h9.06l13.98,29.62v-29.62h7.09v40.43h-9.11l-13.93-29.16v29.16Zm51.72-1.2c-1.94,1.09-4.14,1.64-6.61,1.64-2.99,0-5.55-.59-7.68-1.77-2.13-1.18-3.75-2.89-4.87-5.15-1.12-2.25-1.68-4.98-1.68-8.17v-11.1c0-3.19.56-5.91,1.68-8.17,1.12-2.25,2.74-3.97,4.87-5.16,2.13-1.19,4.69-1.78,7.68-1.78,2.47,0,4.68.55,6.62,1.64,1.95,1.09,3.56,2.68,4.83,4.77,1.27,2.09,2.15,4.6,2.64,7.55h-7.68c-.29-1.34-.74-2.48-1.34-3.42-.6-.95-1.33-1.67-2.19-2.17-.86-.5-1.82-.75-2.88-.75-1.39,0-2.57.29-3.54.88-.97.58-1.72,1.44-2.23,2.56s-.77,2.47-.77,4.05v11.1c0,1.58.26,2.92.77,4.03.51,1.11,1.26,1.96,2.23,2.55.97.58,2.15.88,3.54.88,1.08,0,2.06-.25,2.92-.74.87-.49,1.59-1.21,2.19-2.16.59-.95,1.03-2.1,1.3-3.45h7.68c-.5,2.95-1.39,5.47-2.66,7.55-1.27,2.09-2.88,3.68-4.81,4.77Zm20.84,1.22h-7.68v-40.45h7.68v40.45Zm13.97-6.48h14.41l2.21,6.48h7.98l-15.04-40.45h-4.71l-15.04,40.45h7.98l2.21-6.48Zm7.2-21.15l4.7,13.8h-9.4l4.7-13.8ZM15.49,121.39L.45,161.85h7.98l2.21-6.48h14.41l2.21,6.48h7.98l-15.04-40.45h-4.71Zm-2.35,26.63l4.7-13.8,4.7,13.8h-9.4Zm45.87-25.19c-2.17-1.23-4.68-1.85-7.53-1.85s-5.36.62-7.53,1.85c-2.17,1.23-3.85,2.98-5.04,5.23-1.19,2.25-1.79,4.86-1.79,7.83v11.46c0,2.97.59,5.58,1.79,7.83,1.19,2.25,2.87,4,5.04,5.23s4.68,1.85,7.53,1.85,5.36-.62,7.53-1.85c2.17-1.23,3.85-2.98,5.04-5.23,1.19-2.25,1.79-4.86,1.79-7.83v-11.46c0-2.97-.59-5.58-1.79-7.83-1.19-2.25-2.87-4-5.04-5.23Zm-.85,24.72c0,1.41-.27,2.65-.82,3.73-.55,1.08-1.33,1.91-2.34,2.49-1.01.58-2.18.88-3.52.88s-2.51-.29-3.52-.88c-1.01-.58-1.79-1.42-2.34-2.49-.55-1.08-.83-2.32-.83-3.73v-11.85c0-1.41.28-2.65.83-3.73.55-1.08,1.33-1.91,2.34-2.49,1.01-.58,2.18-.88,3.52-.88s2.51.29,3.52.88c1.01.58,1.79,1.41,2.34,2.49.55,1.08.82,2.32.82,3.73v11.85Zm40.1-4.1c1.12,1.59,1.68,3.75,1.68,6.5v.06c0,2.58-.59,4.79-1.76,6.62-1.17,1.84-2.88,3.24-5.12,4.2-2.25.96-4.95,1.45-8.1,1.45-1.88,0-3.71-.19-5.5-.58-1.79-.39-3.48-.96-5.06-1.71s-2.99-1.66-4.23-2.71l3.43-6.29c1.51,1.28,3.26,2.27,5.25,2.96,1.98.7,4.02,1.04,6.11,1.04,2.42,0,4.29-.42,5.62-1.27,1.33-.84,2-2.04,2-3.58v-.03c0-1.08-.3-1.93-.89-2.56-.59-.63-1.37-1.09-2.33-1.39-.96-.3-2.18-.57-3.68-.81-.05-.02-.1-.03-.15-.03s-.09,0-.15-.03l-.59-.08c-2.63-.43-4.81-.96-6.54-1.6-1.73-.64-3.2-1.76-4.41-3.37-1.21-1.6-1.81-3.88-1.81-6.83v-.03c0-2.62.57-4.85,1.7-6.71,1.14-1.85,2.79-3.27,4.95-4.24,2.16-.97,4.78-1.46,7.84-1.46,1.41,0,2.84.17,4.31.5,1.47.33,2.91.82,4.31,1.45,1.41.63,2.74,1.39,4,2.28l-3.14,6.46c-1.51-1.08-3.1-1.91-4.75-2.5s-3.23-.89-4.75-.89c-2.27,0-4.03.39-5.27,1.16s-1.87,1.85-1.87,3.24v.03c0,1.17.33,2.09.97,2.77.65.68,1.45,1.17,2.41,1.49.96.32,2.3.65,4.03,1,.07.02.14.03.22.04.07,0,.14.02.22.04.11.02.21.04.31.07.1.03.2.05.31.07,2.49.5,4.57,1.11,6.23,1.82,1.67.71,3.06,1.86,4.18,3.45Zm46.35-22.05h7.09v40.43h-9.11l-13.93-29.16v29.16h-7.08v-40.43h9.06l13.98,29.62v-29.62Zm23.15,0h18.93v7.35h-18.93v9.35h15.96v7.35h-15.96v9.07h18.93v7.34h-26.34v-40.45h7.41Zm40.02,17.83h13.63v7.9c0,3-.59,5.65-1.77,7.94s-2.85,4.06-5.02,5.31c-2.16,1.25-4.67,1.88-7.52,1.88s-5.39-.59-7.58-1.77c-2.19-1.18-3.89-2.84-5.08-4.99-1.2-2.15-1.8-4.65-1.8-7.48v-11.94c0-3,.59-5.65,1.77-7.93,1.18-2.28,2.85-4.05,5.02-5.3,2.16-1.25,4.67-1.88,7.52-1.88,2.34,0,4.51.5,6.49,1.49s3.64,2.4,4.96,4.21c1.32,1.82,2.22,3.92,2.69,6.32h-8c-.27-.85-.72-1.59-1.34-2.21s-1.35-1.09-2.19-1.42c-.84-.32-1.71-.49-2.61-.49-1.32,0-2.47.3-3.47.89-1,.59-1.78,1.44-2.33,2.53-.55,1.09-.83,2.36-.83,3.78v11.94c0,1.26.28,2.38.84,3.34.56.96,1.35,1.71,2.38,2.23,1.03.52,2.22.78,3.57.78s2.5-.28,3.5-.85c1-.57,1.77-1.39,2.31-2.46s.81-2.35.81-3.81v-.67h-5.95v-7.35Zm34.99-20.34l-4.41-4.67,7.46-6.82,4.92,5.2-7.98,6.29Zm6.48,3.94c-2.17-1.23-4.68-1.85-7.53-1.85s-5.36.62-7.53,1.85c-2.17,1.23-3.85,2.98-5.04,5.23-1.19,2.25-1.79,4.86-1.79,7.83v11.46c0,2.97.59,5.58,1.79,7.83,1.19,2.25,2.87,4,5.04,5.23s4.68,1.85,7.53,1.85,5.36-.62,7.53-1.85c2.17-1.23,3.85-2.98,5.04-5.23,1.19-2.25,1.79-4.86,1.79-7.83v-11.46c0-2.97-.59-5.58-1.79-7.83-1.19-2.25-2.87-4-5.04-5.23Zm-.85,24.72c0,1.41-.27,2.65-.82,3.73-.55,1.08-1.33,1.91-2.34,2.49-1.01.58-2.18.88-3.52.88s-2.51-.29-3.52-.88c-1.01-.58-1.79-1.42-2.34-2.49-.55-1.08-.83-2.32-.83-3.73v-11.85c0-1.41.28-2.65.83-3.73.55-1.08,1.33-1.91,2.34-2.49,1.01-.58,2.18-.88,3.52-.88s2.51.29,3.52.88c1.01.58,1.79,1.41,2.34,2.49.55,1.08.82,2.32.82,3.73v11.85Zm21.31-11.46v11.1c0,1.58.26,2.92.77,4.03.51,1.11,1.26,1.96,2.23,2.55.97.58,2.15.88,3.54.88,1.08,0,2.06-.25,2.92-.74.87-.49,1.59-1.21,2.19-2.16.59-.95,1.03-2.1,1.3-3.45h7.68c-.5,2.95-1.39,5.47-2.66,7.55-1.27,2.09-2.88,3.68-4.81,4.77-1.94,1.09-4.14,1.64-6.61,1.64-2.99,0-5.55-.59-7.68-1.77-2.13-1.18-3.75-2.89-4.87-5.15-1.12-2.25-1.68-4.98-1.68-8.17v-11.1c0-3.19.56-5.91,1.68-8.17,1.12-2.25,2.74-3.97,4.87-5.16,2.13-1.19,4.69-1.78,7.68-1.78,2.47,0,4.68.55,6.62,1.64,1.95,1.09,3.56,2.68,4.83,4.77,1.27,2.09,2.15,4.6,2.64,7.55h-7.68c-.29-1.34-.74-2.48-1.34-3.42-.6-.95-1.33-1.67-2.19-2.17-.86-.5-1.82-.75-2.88-.75-1.39,0-2.57.29-3.54.88-.97.58-1.72,1.44-2.23,2.56s-.77,2.47-.77,4.05Zm26.31-14.69h7.68v40.45h-7.68v-40.45Zm36.87,1.43c-2.17-1.23-4.68-1.85-7.53-1.85s-5.36.62-7.53,1.85c-2.17,1.23-3.85,2.98-5.04,5.23-1.19,2.25-1.79,4.86-1.79,7.83v11.46c0,2.97.59,5.58,1.79,7.83,1.19,2.25,2.87,4,5.04,5.23s4.68,1.85,7.53,1.85,5.36-.62,7.53-1.85c2.17-1.23,3.85-2.98,5.04-5.23,1.19-2.25,1.79-4.86,1.79-7.83v-11.46c0-2.97-.59-5.58-1.79-7.83-1.19-2.25-2.87-4-5.04-5.23Zm-.85,24.72c0,1.41-.27,2.65-.82,3.73-.55,1.08-1.33,1.91-2.34,2.49-1.01.58-2.18.88-3.52.88s-2.51-.29-3.52-.88c-1.01-.58-1.79-1.42-2.34-2.49-.55-1.08-.83-2.32-.83-3.73v-11.85c0-1.41.28-2.65.83-3.73.55-1.08,1.33-1.91,2.34-2.49,1.01-.58,2.18-.88,3.52-.88s2.51.29,3.52.88c1.01.58,1.79,1.41,2.34,2.49.55,1.08.82,2.32.82,3.73v11.85Zm41.78,2.39v.06c0,2.58-.59,4.79-1.76,6.62-1.17,1.84-2.88,3.24-5.12,4.2-2.25.96-4.95,1.45-8.1,1.45-1.88,0-3.71-.19-5.5-.58-1.79-.39-3.48-.96-5.06-1.71s-2.99-1.66-4.23-2.71l3.43-6.29c1.51,1.28,3.26,2.27,5.25,2.96,1.98.7,4.02,1.04,6.11,1.04,2.42,0,4.29-.42,5.62-1.27,1.33-.84,2-2.04,2-3.58v-.03c0-1.08-.3-1.93-.89-2.56-.59-.63-1.37-1.09-2.33-1.39-.96-.3-2.18-.57-3.68-.81-.05-.02-.1-.03-.15-.03s-.09,0-.15-.03l-.59-.08c-2.63-.43-4.81-.96-6.54-1.6-1.73-.64-3.2-1.76-4.41-3.37-1.21-1.6-1.81-3.88-1.81-6.83v-.03c0-2.62.57-4.85,1.7-6.71,1.14-1.85,2.79-3.27,4.95-4.24,2.16-.97,4.78-1.46,7.84-1.46,1.41,0,2.84.17,4.31.5,1.47.33,2.91.82,4.31,1.45,1.41.63,2.74,1.39,4,2.28l-3.14,6.46c-1.51-1.08-3.1-1.91-4.75-2.5s-3.23-.89-4.75-.89c-2.27,0-4.03.39-5.27,1.16s-1.87,1.85-1.87,3.24v.03c0,1.17.33,2.09.97,2.77.65.68,1.45,1.17,2.41,1.49.96.32,2.3.65,4.03,1,.07.02.14.03.22.04.07,0,.14.02.22.04.11.02.21.04.31.07.1.03.2.05.31.07,2.49.5,4.57,1.11,6.23,1.82,1.67.71,3.06,1.86,4.18,3.45s1.68,3.75,1.68,6.5Z"/>
    </clipPath>
    <linearGradient id="linear-gradient" x1="187.45" y1="168.26" x2="187.45" y2="34.26" gradientUnits="userSpaceOnUse">
      <stop offset="0" stop-color="#0a91ff"/>
      <stop offset="1" stop-color="#00f095"/>
    </linearGradient>
  </defs>
  <g id="Layer_8" data-name="Layer 8">
    <g>
      <text class="cls-2" transform="translate(0 25.5)"><tspan class="cls-14" x="0" y="0">P</tspan><tspan x="16.28" y="0">ALMIL</tspan><tspan class="cls-12" x="96.44" y="0">H</tspan><tspan class="cls-4" x="115.27" y="0">A</tspan><tspan x="132.39" y="0">S </tspan><tspan class="cls-13" x="157.27" y="0">T</tspan><tspan x="171.37" y="0">E</tspan><tspan class="cls-10" x="188.19" y="0">R</tspan><tspan x="205.85" y="0">A</tspan><tspan class="cls-12" x="224.07" y="0">P</tspan><tspan x="241.31" y="0">ÊU</tspan><tspan class="cls-13" x="276.57" y="0">T</tspan><tspan x="290.67" y="0">I</tspan><tspan class="cls-5" x="298.42" y="0">C</tspan><tspan class="cls-7" x="315" y="0">A</tspan><tspan x="332.12" y="0">S</tspan></text>
      <g class="cls-8">
        <rect class="cls-11" x="-3.55" y="34.26" width="382" height="134"/>
      </g>
      <g>
        <path class="cls-6" d="m373.41,38.55l-38.79,15.51c-.09,0-.09,0,0,0l12.14,9.28-21.73,29.78c-3.78-3.71-9.52-9.34-10.36-10.16l-1.53,2.11-20.04,23.78,21.57-17.4c3.09,4.24,9.2,12.64,10.36,14.23l3.18-3.12,27.63-28.68,3.74,13.09c.18.78,1.12.82,1.35.05l12.76-48.48c.06,0-.11,0-.29,0Z"/>
        <path class="cls-3" d="m373.41,38.51l-38.79,15.51c-.09,0-.09,0,0,0l12.14,5.55-21.73,29.78c-3.78-3.71-9.52-9.34-10.36-10.16l-1.53,2.11-20.04,27.54,21.57-21.16c3.09,4.24,9.2,12.64,10.36,14.23l3.18-3.12,27.63-28.68,3.74,13.09c.18.78,1.12.82,1.35.05l12.76-44.75c.06,0-.11,0-.29,0Z"/>
        <path class="cls-1" d="m373.41,38.47l-38.79,15.52c-.09,0-.09,0,0,0l12.14,1.82-21.73,29.78c-3.78-3.71-9.52-9.34-10.36-10.16l-1.53,2.11-20.04,31.3,21.57-24.92c3.09,4.24,9.2,12.64,10.36,14.23l3.18-3.12,27.63-28.68,3.74,13.09c.18.78,1.12.82,1.35.05l12.76-41.03c.06,0-.11,0-.29,0Z"/>
      </g>
    </g>
    <g>
      <g id="frente-3">
        <path class="cls-1" d="m314.16,65.09c-.27.24-1.41,1.22-2.8,1.27-.48.02-1.94.37-4.46-2.42-2.32-2.57-2.28-4.26-4.16-6.65-1.77-2.25-2.3-1.83-4.61-4.2-1.45-1.48-4.88-5.05-5.9-10.29-.37-1.91-.87-5.82,1-7.44,1.38-1.18,3.35-.92,3.62-.89,4.28.61,7.93,6.83,8.49,10.78.1.64.33,2.97,1.78,5.3.25.42,2.08,2.51,4.54,4.74,4.76,4.32,4.64,7.99,2.5,9.81h0Z"/>
      </g>
      <g id="frente-3-2" data-name="frente-3">
        <path class="cls-1" d="m324.95,75.28c.36-.03,1.86-.15,2.87-1.11.35-.33,1.62-1.13,1.4-4.88-.21-3.46-1.44-4.61-1.83-7.62-.37-2.84.3-2.92.23-6.23-.04-2.07-.19-7.02-3.21-11.42-1.1-1.6-3.54-4.69-6.01-4.5-1.81.16-3,1.75-3.18,1.96-2.56,3.48-.68,10.44,1.74,13.61.39.52,1.89,2.31,2.53,4.99.13.47.33,3.24.2,6.56-.25,6.42,2.45,8.91,5.25,8.65h0Z"/>
      </g>
    </g>
  </g>
</svg>