<?xml version="1.0" encoding="UTF-8"?>
<svg id="Layer_2" data-name="Layer 2" xmlns="http://www.w3.org/2000/svg" viewBox="0 0 498.57 150.78">
  <defs>
    <style>
      .cls-1 {
        fill: #fff;
      }

      .cls-2 {
        fill: #45f063;
      }

      .cls-3 {
        fill: #00ff24;
      }

      .cls-4 {
        fill: #0986bf;
      }

      .cls-5 {
        fill: #11e9de;
      }
    </style>
  </defs>
  <g id="Layer_2-2" data-name="Layer 2">
    <g>
      <g>
        <path class="cls-4" d="m190.11,65.4h-4.79v7.85h4.79c1.41,0,2.47-.35,3.18-1.04.71-.69,1.06-1.67,1.06-2.93s-.35-2.15-1.06-2.84c-.71-.69-1.77-1.04-3.18-1.04Z"/>
        <polygon class="cls-4" points="409.04 79.12 416.85 79.12 412.92 67.52 409.04 79.12"/>
        <path class="cls-4" d="m496.5,71.84L404.69,2.37c-3.32-2.51-7.96-.04-7.96,4.23v36.55H114.34c-2.25,0-4.07,2.7-4.07,6.02v51.18c0,3.33,1.82,6.02,4.07,6.02h282.38v39.16c0,4.27,4.65,6.74,7.96,4.23l91.81-69.47c2.76-2.09,2.76-6.38,0-8.47Zm-225.54-19.99l7-3.57,7,3.57v5.33l-7-3.7-7,3.7v-5.33Zm-121.65,13.32h-8.4v25.5h-7.72v-25.5h-8.4v-6.18h24.51v6.18Zm23.29,0h-11.69v6.41h10.34v5.96h-10.34v6.95h11.69v6.18h-19.41v-31.69h19.41v6.18Zm21.17,25.5l-6.59-11.96h-1.85v11.96h-7.72v-31.69h12.96c2.5,0,4.63.44,6.39,1.31,1.76.87,3.08,2.07,3.95,3.59.87,1.52,1.31,3.21,1.31,5.08,0,2.11-.59,3.99-1.78,5.64-1.19,1.66-2.94,2.83-5.26,3.52l7.31,12.55h-8.71Zm34.89,0l-1.9-5.6h-11.83l-1.9,5.6h-8.08l11.47-31.69h8.94l11.47,31.69h-8.17Zm34.53-16.45c-.84,1.52-2.14,2.75-3.88,3.68-1.75.93-3.91,1.4-6.5,1.4h-4.79v11.38h-7.72v-31.69h12.5c2.53,0,4.66.44,6.41,1.31,1.74.87,3.05,2.08,3.93,3.61.87,1.54,1.31,3.3,1.31,5.28,0,1.84-.42,3.51-1.26,5.03Zm24.69-9.05h-11.69v6.41h10.34v5.96h-10.34v6.95h11.69v6.18h-19.41v-31.69h19.41v6.18Zm31.42,12.73c0,2.83-.6,5.22-1.81,7.18-1.2,1.96-2.82,3.43-4.85,4.42s-4.3,1.49-6.79,1.49-4.73-.49-6.7-1.47c-1.97-.98-3.53-2.45-4.67-4.42-1.14-1.97-1.71-4.37-1.71-7.2v-18.91h7.72v18.96c0,1.9.47,3.36,1.4,4.38.93,1.02,2.3,1.53,4.11,1.53s3.19-.51,4.15-1.53c.96-1.02,1.45-2.48,1.45-4.38v-18.96h7.72v18.91Zm28.21-12.73h-8.4v25.5h-7.72v-25.5h-8.4v-6.18h24.51v6.18Zm11.6,25.5h-7.72v-31.69h7.72v31.69Zm14.35-9.25c1.48,1.66,3.4,2.48,5.78,2.48,1.48,0,2.79-.35,3.95-1.04,1.16-.69,2.05-1.7,2.68-3.02h8.49c-.9,3.43-2.69,6.13-5.37,8.1-2.68,1.97-5.9,2.96-9.66,2.96-3.07,0-5.82-.68-8.24-2.05-2.42-1.37-4.31-3.27-5.67-5.71s-2.03-5.22-2.03-8.35.68-5.92,2.03-8.37c1.36-2.45,3.24-4.36,5.67-5.73,2.42-1.37,5.17-2.05,8.24-2.05,3.76,0,6.98.99,9.66,2.98,2.68,1.99,4.47,4.69,5.37,8.13h-8.49c-.63-1.32-1.53-2.33-2.68-3.03-1.16-.69-2.48-1.04-3.95-1.04-2.38,0-4.3.83-5.78,2.48-1.47,1.66-2.21,3.87-2.21,6.64s.74,4.98,2.21,6.64Zm47.26,9.25l-1.9-5.6h-11.83l-1.89,5.6h-8.08l11.46-31.69h8.94l11.47,31.69h-8.17Zm33.29-4.51c-.92,1.47-2.25,2.65-3.99,3.52s-3.81,1.31-6.18,1.31-4.4-.38-6.23-1.13c-1.84-.75-3.3-1.87-4.4-3.34-1.1-1.47-1.68-3.25-1.74-5.33h8.21c.12,1.17.53,2.07,1.22,2.69.69.62,1.59.93,2.71.93s2.05-.26,2.71-.79.99-1.26.99-2.19c0-.78-.26-1.43-.79-1.94s-1.17-.93-1.94-1.26c-.77-.33-1.86-.71-3.27-1.13-2.05-.63-3.72-1.26-5.01-1.9-1.3-.63-2.41-1.56-3.34-2.8-.93-1.23-1.4-2.84-1.4-4.83,0-2.95,1.07-5.26,3.21-6.93,2.14-1.67,4.92-2.51,8.35-2.51s6.31.83,8.44,2.51c2.14,1.67,3.28,4,3.43,6.97h-8.35c-.06-1.02-.44-1.83-1.13-2.42-.69-.59-1.58-.88-2.66-.88-.93,0-1.69.25-2.26.74-.57.5-.86,1.21-.86,2.14,0,1.02.48,1.82,1.44,2.39.96.57,2.47,1.19,4.51,1.85,2.05.69,3.71,1.35,4.99,1.99s2.39,1.55,3.32,2.75c.93,1.2,1.4,2.75,1.4,4.65s-.46,3.45-1.38,4.92Z"/>
        <polygon class="cls-4" points="216.97 79.12 224.78 79.12 220.85 67.52 216.97 79.12"/>
        <path class="cls-4" d="m252.22,65.21h-4.2v7.95h4.2c1.47,0,2.57-.35,3.29-1.04.72-.69,1.08-1.67,1.08-2.93s-.36-2.24-1.08-2.93c-.72-.69-1.82-1.04-3.29-1.04Z"/>
      </g>
      <g>
        <polygon class="cls-3" points="216.97 79.12 224.78 79.12 220.85 67.52 216.97 79.12"/>
        <polygon class="cls-3" points="409.04 79.12 416.85 79.12 412.92 67.52 409.04 79.12"/>
        <path class="cls-3" d="m190.11,65.4h-4.79v7.85h4.79c1.41,0,2.47-.35,3.18-1.04.71-.69,1.06-1.67,1.06-2.93s-.35-2.15-1.06-2.84c-.71-.69-1.77-1.04-3.18-1.04Z"/>
        <path class="cls-3" d="m252.22,65.21h-4.2v7.95h4.2c1.47,0,2.57-.35,3.29-1.04.72-.69,1.08-1.67,1.08-2.93s-.36-2.24-1.08-2.93c-.72-.69-1.82-1.04-3.29-1.04Z"/>
        <path class="cls-3" d="m482.57,71.84L390.76,2.37c-3.32-2.51-7.96-.04-7.96,4.23v36.55H118.13c-2.11,0-3.82,2.7-3.82,6.02v51.18c0,3.33,1.71,6.02,3.82,6.02h264.67v39.16c0,4.27,4.65,6.74,7.96,4.23l91.81-69.47c2.76-2.09,2.76-6.38,0-8.47Zm-211.61-19.99l7-3.57,7,3.57v5.33l-7-3.7-7,3.7v-5.33Zm-121.65,13.32h-8.4v25.5h-7.72v-25.5h-8.4v-6.18h24.51v6.18Zm23.29,0h-11.69v6.41h10.34v5.96h-10.34v6.95h11.69v6.18h-19.41v-31.69h19.41v6.18Zm21.17,25.5l-6.59-11.96h-1.85v11.96h-7.72v-31.69h12.96c2.5,0,4.63.44,6.39,1.31,1.76.87,3.08,2.07,3.95,3.59.87,1.52,1.31,3.21,1.31,5.08,0,2.11-.59,3.99-1.78,5.64-1.19,1.66-2.94,2.83-5.26,3.52l7.31,12.55h-8.71Zm34.89,0l-1.9-5.6h-11.83l-1.9,5.6h-8.08l11.47-31.69h8.94l11.47,31.69h-8.17Zm34.53-16.45c-.84,1.52-2.14,2.75-3.88,3.68-1.75.93-3.91,1.4-6.5,1.4h-4.79v11.38h-7.72v-31.69h12.5c2.53,0,4.66.44,6.41,1.31,1.74.87,3.05,2.08,3.93,3.61.87,1.54,1.31,3.3,1.31,5.28,0,1.84-.42,3.51-1.26,5.03Zm24.69-9.05h-11.69v6.41h10.34v5.96h-10.34v6.95h11.69v6.18h-19.41v-31.69h19.41v6.18Zm31.42,12.73c0,2.83-.6,5.22-1.81,7.18-1.2,1.96-2.82,3.43-4.85,4.42s-4.3,1.49-6.79,1.49-4.73-.49-6.7-1.47c-1.97-.98-3.53-2.45-4.67-4.42-1.14-1.97-1.71-4.37-1.71-7.2v-18.91h7.72v18.96c0,1.9.47,3.36,1.4,4.38.93,1.02,2.3,1.53,4.11,1.53s3.19-.51,4.15-1.53c.96-1.02,1.45-2.48,1.45-4.38v-18.96h7.72v18.91Zm28.21-12.73h-8.4v25.5h-7.72v-25.5h-8.4v-6.18h24.51v6.18Zm11.6,25.5h-7.72v-31.69h7.72v31.69Zm14.35-9.25c1.48,1.66,3.4,2.48,5.78,2.48,1.48,0,2.79-.35,3.95-1.04,1.16-.69,2.05-1.7,2.68-3.02h8.49c-.9,3.43-2.69,6.13-5.37,8.1-2.68,1.97-5.9,2.96-9.66,2.96-3.07,0-5.82-.68-8.24-2.05-2.42-1.37-4.31-3.27-5.67-5.71s-2.03-5.22-2.03-8.35.68-5.92,2.03-8.37c1.36-2.45,3.24-4.36,5.67-5.73,2.42-1.37,5.17-2.05,8.24-2.05,3.76,0,6.98.99,9.66,2.98,2.68,1.99,4.47,4.69,5.37,8.13h-8.49c-.63-1.32-1.53-2.33-2.68-3.03-1.16-.69-2.48-1.04-3.95-1.04-2.38,0-4.3.83-5.78,2.48-1.47,1.66-2.21,3.87-2.21,6.64s.74,4.98,2.21,6.64Zm47.26,9.25l-1.9-5.6h-11.83l-1.89,5.6h-8.08l11.46-31.69h8.94l11.47,31.69h-8.17Zm33.29-4.51c-.92,1.47-2.25,2.65-3.99,3.52s-3.81,1.31-6.18,1.31-4.4-.38-6.23-1.13c-1.84-.75-3.3-1.87-4.4-3.34-1.1-1.47-1.68-3.25-1.74-5.33h8.21c.12,1.17.53,2.07,1.22,2.69.69.62,1.59.93,2.71.93s2.05-.26,2.71-.79.99-1.26.99-2.19c0-.78-.26-1.43-.79-1.94s-1.17-.93-1.94-1.26c-.77-.33-1.86-.71-3.27-1.13-2.05-.63-3.72-1.26-5.01-1.9-1.3-.63-2.41-1.56-3.34-2.8-.93-1.23-1.4-2.84-1.4-4.83,0-2.95,1.07-5.26,3.21-6.93,2.14-1.67,4.92-2.51,8.35-2.51s6.31.83,8.44,2.51c2.14,1.67,3.28,4,3.43,6.97h-8.35c-.06-1.02-.44-1.83-1.13-2.42-.69-.59-1.58-.88-2.66-.88-.93,0-1.69.25-2.26.74-.57.5-.86,1.21-.86,2.14,0,1.02.48,1.82,1.44,2.39.96.57,2.47,1.19,4.51,1.85,2.05.69,3.71,1.35,4.99,1.99s2.39,1.55,3.32,2.75c.93,1.2,1.4,2.75,1.4,4.65s-.46,3.45-1.38,4.92Z"/>
      </g>
      <g>
        <polygon class="cls-1" points="216.97 79.12 224.78 79.12 220.85 67.52 216.97 79.12"/>
        <path class="cls-1" d="m190.11,65.4h-4.79v7.85h4.79c1.41,0,2.47-.35,3.18-1.04.71-.69,1.06-1.67,1.06-2.93s-.35-2.15-1.06-2.84c-.71-.69-1.77-1.04-3.18-1.04Z"/>
        <polygon class="cls-1" points="409.04 79.12 416.85 79.12 412.92 67.52 409.04 79.12"/>
        <path class="cls-1" d="m252.22,65.21h-4.2v7.95h4.2c1.47,0,2.57-.35,3.29-1.04.72-.69,1.08-1.67,1.08-2.93s-.36-2.24-1.08-2.93c-.72-.69-1.82-1.04-3.29-1.04Z"/>
        <path class="cls-1" d="m487.79,71.84L395.98,2.37c-3.32-2.51-7.96-.04-7.96,4.23v36.55H123.35c-2.11,0-3.82,2.7-3.82,6.02v51.18c0,3.33,1.71,6.02,3.82,6.02h264.67v39.16c0,4.27,4.65,6.74,7.96,4.23l91.81-69.47c2.76-2.09,2.76-6.38,0-8.47Zm-216.83-19.99l7-3.57,7,3.57v5.33l-7-3.7-7,3.7v-5.33Zm-121.65,13.32h-8.4v25.5h-7.72v-25.5h-8.4v-6.18h24.51v6.18Zm23.29,0h-11.69v6.41h10.34v5.96h-10.34v6.95h11.69v6.18h-19.41v-31.69h19.41v6.18Zm21.17,25.5l-6.59-11.96h-1.85v11.96h-7.72v-31.69h12.96c2.5,0,4.63.44,6.39,1.31,1.76.87,3.08,2.07,3.95,3.59.87,1.52,1.31,3.21,1.31,5.08,0,2.11-.59,3.99-1.78,5.64-1.19,1.66-2.94,2.83-5.26,3.52l7.31,12.55h-8.71Zm34.89,0l-1.9-5.6h-11.83l-1.9,5.6h-8.08l11.47-31.69h8.94l11.47,31.69h-8.17Zm34.53-16.45c-.84,1.52-2.14,2.75-3.88,3.68-1.75.93-3.91,1.4-6.5,1.4h-4.79v11.38h-7.72v-31.69h12.5c2.53,0,4.66.44,6.41,1.31,1.74.87,3.05,2.08,3.93,3.61.87,1.54,1.31,3.3,1.31,5.28,0,1.84-.42,3.51-1.26,5.03Zm24.69-9.05h-11.69v6.41h10.34v5.96h-10.34v6.95h11.69v6.18h-19.41v-31.69h19.41v6.18Zm31.42,12.73c0,2.83-.6,5.22-1.81,7.18-1.2,1.96-2.82,3.43-4.85,4.42s-4.3,1.49-6.79,1.49-4.73-.49-6.7-1.47c-1.97-.98-3.53-2.45-4.67-4.42-1.14-1.97-1.71-4.37-1.71-7.2v-18.91h7.72v18.96c0,1.9.47,3.36,1.4,4.38.93,1.02,2.3,1.53,4.11,1.53s3.19-.51,4.15-1.53c.96-1.02,1.45-2.48,1.45-4.38v-18.96h7.72v18.91Zm28.21-12.73h-8.4v25.5h-7.72v-25.5h-8.4v-6.18h24.51v6.18Zm11.6,25.5h-7.72v-31.69h7.72v31.69Zm14.35-9.25c1.48,1.66,3.4,2.48,5.78,2.48,1.48,0,2.79-.35,3.95-1.04,1.16-.69,2.05-1.7,2.68-3.02h8.49c-.9,3.43-2.69,6.13-5.37,8.1-2.68,1.97-5.9,2.96-9.66,2.96-3.07,0-5.82-.68-8.24-2.05-2.42-1.37-4.31-3.27-5.67-5.71s-2.03-5.22-2.03-8.35.68-5.92,2.03-8.37c1.36-2.45,3.24-4.36,5.67-5.73,2.42-1.37,5.17-2.05,8.24-2.05,3.76,0,6.98.99,9.66,2.98,2.68,1.99,4.47,4.69,5.37,8.13h-8.49c-.63-1.32-1.53-2.33-2.68-3.03-1.16-.69-2.48-1.04-3.95-1.04-2.38,0-4.3.83-5.78,2.48-1.47,1.66-2.21,3.87-2.21,6.64s.74,4.98,2.21,6.64Zm47.26,9.25l-1.9-5.6h-11.83l-1.89,5.6h-8.08l11.46-31.69h8.94l11.47,31.69h-8.17Zm33.29-4.51c-.92,1.47-2.25,2.65-3.99,3.52s-3.81,1.31-6.18,1.31-4.4-.38-6.23-1.13c-1.84-.75-3.3-1.87-4.4-3.34-1.1-1.47-1.68-3.25-1.74-5.33h8.21c.12,1.17.53,2.07,1.22,2.69.69.62,1.59.93,2.71.93s2.05-.26,2.71-.79.99-1.26.99-2.19c0-.78-.26-1.43-.79-1.94s-1.17-.93-1.94-1.26c-.77-.33-1.86-.71-3.27-1.13-2.05-.63-3.72-1.26-5.01-1.9-1.3-.63-2.41-1.56-3.34-2.8-.93-1.23-1.4-2.84-1.4-4.83,0-2.95,1.07-5.26,3.21-6.93,2.14-1.67,4.92-2.51,8.35-2.51s6.31.83,8.44,2.51c2.14,1.67,3.28,4,3.43,6.97h-8.35c-.06-1.02-.44-1.83-1.13-2.42-.69-.59-1.58-.88-2.66-.88-.93,0-1.69.25-2.26.74-.57.5-.86,1.21-.86,2.14,0,1.02.48,1.82,1.44,2.39.96.57,2.47,1.19,4.51,1.85,2.05.69,3.71,1.35,4.99,1.99s2.39,1.55,3.32,2.75c.93,1.2,1.4,2.75,1.4,4.65s-.46,3.45-1.38,4.92Z"/>
      </g>
      <g>
        <path class="cls-4" d="m133.67,118.5c1.04.54,1.84,1.3,2.41,2.29.57.99.85,2.14.85,3.45s-.28,2.45-.85,3.43c-.57.98-1.37,1.74-2.41,2.27-1.04.54-2.25.8-3.62.8h-4.56v-13.06h4.56c1.37,0,2.58.27,3.62.8Zm-.53,8.9c.75-.75,1.12-1.8,1.12-3.16s-.37-2.42-1.12-3.19-1.81-1.15-3.18-1.15h-1.85v8.62h1.85c1.37,0,2.43-.37,3.18-1.12Z"/>
        <path class="cls-4" d="m146.91,128.26h-5.2l-.86,2.49h-2.75l4.69-13.07h3.05l4.69,13.07h-2.77l-.86-2.49Zm-.71-2.09l-1.89-5.46-1.89,5.46h3.78Z"/>
        <path class="cls-4" d="m156.98,120.75c.58-1.02,1.37-1.81,2.38-2.38,1-.57,2.13-.85,3.38-.85,1.46,0,2.74.37,3.83,1.12,1.1.75,1.86,1.78,2.3,3.1h-3.01c-.3-.62-.72-1.09-1.26-1.4-.54-.31-1.17-.47-1.88-.47-.76,0-1.44.18-2.03.53-.59.36-1.05.86-1.38,1.5-.33.65-.5,1.41-.5,2.28s.16,1.62.5,2.27c.33.65.79,1.16,1.38,1.52.59.36,1.27.53,2.03.53.71,0,1.34-.16,1.88-.48s.96-.79,1.26-1.41h3.01c-.44,1.33-1.2,2.37-2.29,3.12-1.09.74-2.37,1.11-3.84,1.11-1.25,0-2.37-.28-3.38-.85-1-.57-1.8-1.36-2.38-2.37s-.87-2.16-.87-3.44.29-2.44.87-3.45Z"/>
        <path class="cls-4" d="m173.73,117.69v13.06h-2.62v-13.06h2.62Z"/>
        <path class="cls-4" d="m178.93,119.81v3.27h4.4v2.08h-4.4v3.46h4.96v2.13h-7.58v-13.07h7.58v2.13h-4.96Zm1.08-4.43l-2.79,1.57v-1.91l2.79-1.52,2.77,1.52v1.91l-2.77-1.57Z"/>
        <path class="cls-4" d="m197.42,130.75h-2.62l-5.93-8.96v8.96h-2.62v-13.07h2.62l5.93,8.98v-8.98h2.62v13.07Z"/>
        <path class="cls-4" d="m200.24,120.75c.58-1.02,1.37-1.81,2.38-2.38,1-.57,2.13-.85,3.38-.85,1.46,0,2.74.37,3.83,1.12,1.1.75,1.86,1.78,2.3,3.1h-3.01c-.3-.62-.72-1.09-1.26-1.4-.54-.31-1.17-.47-1.88-.47-.76,0-1.44.18-2.03.53-.59.36-1.05.86-1.38,1.5-.33.65-.5,1.41-.5,2.28s.16,1.62.5,2.27c.33.65.79,1.16,1.38,1.52.59.36,1.27.53,2.03.53.71,0,1.34-.16,1.88-.48s.96-.79,1.26-1.41h3.01c-.44,1.33-1.2,2.37-2.29,3.12-1.09.74-2.37,1.11-3.84,1.11-1.25,0-2.37-.28-3.38-.85-1-.57-1.8-1.36-2.38-2.37s-.87-2.16-.87-3.44.29-2.44.87-3.45Z"/>
        <path class="cls-4" d="m216.99,117.69v13.06h-2.62v-13.06h2.62Z"/>
        <path class="cls-4" d="m227.58,128.26h-5.2l-.86,2.49h-2.75l4.69-13.07h3.05l4.69,13.07h-2.77l-.86-2.49Zm-.71-2.09l-1.89-5.46-1.89,5.46h3.78Z"/>
        <path class="cls-4" d="m245.42,128.26h-5.2l-.86,2.49h-2.75l4.69-13.07h3.05l4.69,13.07h-2.77l-.86-2.49Zm-.71-2.09l-1.89-5.46-1.89,5.46h3.78Z"/>
        <path class="cls-4" d="m253.5,130.02c-1.02-.57-1.83-1.37-2.43-2.38-.6-1.02-.9-2.17-.9-3.45s.3-2.42.9-3.43c.6-1.02,1.41-1.81,2.43-2.39,1.02-.57,2.14-.86,3.37-.86s2.36.29,3.38.86c1.02.57,1.82,1.37,2.41,2.39.59,1.02.89,2.16.89,3.43s-.3,2.44-.89,3.45c-.59,1.02-1.4,1.81-2.42,2.38-1.02.57-2.14.86-3.37.86s-2.34-.29-3.37-.86Zm5.44-2.01c.6-.36,1.07-.86,1.4-1.53.34-.66.51-1.43.51-2.3s-.17-1.64-.51-2.29c-.34-.65-.8-1.16-1.4-1.51-.6-.35-1.29-.52-2.08-.52s-1.48.18-2.09.52c-.61.35-1.08.85-1.41,1.51s-.51,1.42-.51,2.29.17,1.64.51,2.3c.34.66.81,1.17,1.41,1.53.6.36,1.3.53,2.09.53s1.48-.18,2.08-.53Z"/>
        <path class="cls-4" d="m267.54,130.41c-.73-.31-1.31-.76-1.73-1.35-.42-.59-.64-1.28-.65-2.08h2.81c.04.54.23.96.57,1.27.34.31.81.47,1.41.47s1.09-.15,1.44-.44c.35-.29.52-.68.52-1.15,0-.39-.12-.7-.35-.95-.24-.25-.53-.45-.89-.59-.36-.14-.85-.3-1.47-.48-.85-.25-1.54-.49-2.07-.74s-.99-.61-1.37-1.1c-.38-.49-.57-1.15-.57-1.97,0-.77.19-1.45.58-2.02.39-.57.93-1.01,1.63-1.32.7-.31,1.5-.46,2.39-.46,1.35,0,2.44.33,3.28.98s1.31,1.57,1.39,2.74h-2.88c-.03-.45-.22-.82-.57-1.11s-.83-.44-1.41-.44c-.51,0-.92.13-1.23.39-.31.26-.46.64-.46,1.14,0,.35.11.64.35.87s.52.42.86.56c.34.14.82.31,1.45.49.85.25,1.54.5,2.07.75.54.25,1,.62,1.38,1.12.39.5.58,1.15.58,1.96,0,.7-.18,1.35-.54,1.95-.36.6-.89,1.08-1.59,1.43-.7.36-1.53.53-2.49.53-.91,0-1.73-.16-2.46-.47Z"/>
        <path class="cls-4" d="m292.49,130.75h-2.62l-5.93-8.96v8.96h-2.62v-13.07h2.62l5.93,8.98v-8.98h2.62v13.07Z"/>
        <path class="cls-4" d="m297.69,119.81v3.27h4.4v2.08h-4.4v3.46h4.96v2.13h-7.58v-13.07h7.58v2.13h-4.96Z"/>
        <path class="cls-4" d="m314.12,121.62c-.3-.55-.71-.97-1.23-1.25-.52-.29-1.14-.43-1.83-.43-.77,0-1.46.18-2.06.52-.6.35-1.07.85-1.4,1.5-.34.65-.51,1.4-.51,2.24s.17,1.63.51,2.28.82,1.15,1.43,1.5c.61.35,1.32.52,2.13.52,1,0,1.81-.27,2.45-.79.64-.53,1.05-1.27,1.25-2.22h-4.49v-2h7.07v2.28c-.18.91-.55,1.75-1.12,2.53-.57.77-1.31,1.39-2.22,1.86s-1.92.7-3.04.7c-1.26,0-2.4-.28-3.41-.85-1.02-.57-1.82-1.36-2.39-2.37-.58-1.01-.87-2.16-.87-3.44s.29-2.44.87-3.45c.58-1.02,1.38-1.81,2.39-2.38,1.02-.57,2.15-.85,3.39-.85,1.47,0,2.75.36,3.83,1.08,1.08.72,1.83,1.72,2.24,3.02h-3.01Z"/>
        <path class="cls-4" d="m322.09,130.02c-1.02-.57-1.83-1.37-2.43-2.38-.6-1.02-.9-2.17-.9-3.45s.3-2.42.9-3.43c.6-1.02,1.41-1.81,2.43-2.39,1.02-.57,2.14-.86,3.37-.86s2.36.29,3.37.86c1.02.57,1.82,1.37,2.41,2.39.59,1.02.89,2.16.89,3.43s-.3,2.44-.89,3.45c-.59,1.02-1.4,1.81-2.42,2.38s-2.14.86-3.37.86-2.35-.29-3.37-.86Zm5.44-2.01c.6-.36,1.07-.86,1.4-1.53.34-.66.51-1.43.51-2.3s-.17-1.64-.51-2.29c-.33-.65-.8-1.16-1.4-1.51-.6-.35-1.29-.52-2.07-.52s-1.48.18-2.09.52c-.61.35-1.08.85-1.41,1.51s-.5,1.42-.5,2.29.17,1.64.5,2.3c.34.66.81,1.17,1.41,1.53.6.36,1.3.53,2.09.53s1.48-.18,2.07-.53Zm-.04-13.03l-4.3,1.96v-1.87l4.3-2.23v2.13Z"/>
        <path class="cls-4" d="m334.31,120.75c.58-1.02,1.37-1.81,2.37-2.38s2.13-.85,3.38-.85c1.46,0,2.74.37,3.83,1.12,1.1.75,1.87,1.78,2.3,3.1h-3.01c-.3-.62-.72-1.09-1.26-1.4-.54-.31-1.17-.47-1.88-.47-.76,0-1.44.18-2.03.53-.59.36-1.05.86-1.38,1.5-.33.65-.5,1.41-.5,2.28s.16,1.62.5,2.27c.33.65.79,1.16,1.38,1.52.59.36,1.27.53,2.03.53.71,0,1.34-.16,1.88-.48.54-.32.96-.79,1.26-1.41h3.01c-.44,1.33-1.2,2.37-2.29,3.12-1.09.74-2.37,1.11-3.84,1.11-1.25,0-2.37-.28-3.38-.85-1-.57-1.8-1.36-2.37-2.37-.58-1.01-.87-2.16-.87-3.44s.29-2.44.87-3.45Z"/>
        <path class="cls-4" d="m351.06,117.69v13.06h-2.62v-13.06h2.62Z"/>
        <path class="cls-4" d="m356.33,130.02c-1.02-.57-1.83-1.37-2.43-2.38-.6-1.02-.9-2.17-.9-3.45s.3-2.42.9-3.43c.6-1.02,1.41-1.81,2.43-2.39,1.02-.57,2.14-.86,3.37-.86s2.36.29,3.37.86c1.02.57,1.82,1.37,2.41,2.39.59,1.02.89,2.16.89,3.43s-.3,2.44-.89,3.45c-.59,1.02-1.4,1.81-2.42,2.38s-2.14.86-3.37.86-2.35-.29-3.37-.86Zm5.44-2.01c.6-.36,1.07-.86,1.4-1.53.34-.66.51-1.43.51-2.3s-.17-1.64-.51-2.29c-.33-.65-.8-1.16-1.4-1.51-.6-.35-1.29-.52-2.07-.52s-1.48.18-2.09.52c-.61.35-1.08.85-1.41,1.51s-.5,1.42-.5,2.29.17,1.64.5,2.3c.34.66.81,1.17,1.41,1.53.6.36,1.3.53,2.09.53s1.48-.18,2.07-.53Z"/>
        <path class="cls-4" d="m370.37,130.41c-.73-.31-1.31-.76-1.73-1.35s-.64-1.28-.65-2.08h2.81c.04.54.23.96.57,1.27.34.31.81.47,1.41.47s1.09-.15,1.44-.44c.35-.29.52-.68.52-1.15,0-.39-.12-.7-.36-.95-.24-.25-.53-.45-.89-.59-.36-.14-.85-.3-1.47-.48-.85-.25-1.54-.49-2.07-.74s-.98-.61-1.36-1.1c-.38-.49-.57-1.15-.57-1.97,0-.77.19-1.45.58-2.02.39-.57.93-1.01,1.63-1.32.7-.31,1.5-.46,2.39-.46,1.35,0,2.44.33,3.28.98.84.65,1.31,1.57,1.39,2.74h-2.88c-.03-.45-.21-.82-.57-1.11-.35-.29-.83-.44-1.41-.44-.51,0-.92.13-1.22.39-.31.26-.46.64-.46,1.14,0,.35.12.64.35.87s.52.42.86.56c.34.14.82.31,1.45.49.85.25,1.54.5,2.08.75.54.25,1,.62,1.38,1.12.39.5.58,1.15.58,1.96,0,.7-.18,1.35-.54,1.95s-.89,1.08-1.59,1.43c-.7.36-1.53.53-2.49.53-.91,0-1.73-.16-2.46-.47Z"/>
      </g>
      <g>
        <path class="cls-1" d="m133.67,118.5c1.04.54,1.84,1.3,2.41,2.29.57.99.85,2.14.85,3.45s-.28,2.45-.85,3.43c-.57.98-1.37,1.74-2.41,2.27-1.04.54-2.25.8-3.62.8h-4.56v-13.06h4.56c1.37,0,2.58.27,3.62.8Zm-.53,8.9c.75-.75,1.12-1.8,1.12-3.16s-.37-2.42-1.12-3.19-1.81-1.15-3.18-1.15h-1.85v8.62h1.85c1.37,0,2.43-.37,3.18-1.12Z"/>
        <path class="cls-1" d="m146.91,128.26h-5.2l-.86,2.49h-2.75l4.69-13.07h3.05l4.69,13.07h-2.77l-.86-2.49Zm-.71-2.09l-1.89-5.46-1.89,5.46h3.78Z"/>
        <path class="cls-1" d="m156.98,120.75c.58-1.02,1.37-1.81,2.38-2.38,1-.57,2.13-.85,3.38-.85,1.46,0,2.74.37,3.83,1.12,1.1.75,1.86,1.78,2.3,3.1h-3.01c-.3-.62-.72-1.09-1.26-1.4-.54-.31-1.17-.47-1.88-.47-.76,0-1.44.18-2.03.53-.59.36-1.05.86-1.38,1.5-.33.65-.5,1.41-.5,2.28s.16,1.62.5,2.27c.33.65.79,1.16,1.38,1.52.59.36,1.27.53,2.03.53.71,0,1.34-.16,1.88-.48s.96-.79,1.26-1.41h3.01c-.44,1.33-1.2,2.37-2.29,3.12-1.09.74-2.37,1.11-3.84,1.11-1.25,0-2.37-.28-3.38-.85-1-.57-1.8-1.36-2.38-2.37s-.87-2.16-.87-3.44.29-2.44.87-3.45Z"/>
        <path class="cls-1" d="m173.73,117.69v13.06h-2.62v-13.06h2.62Z"/>
        <path class="cls-1" d="m178.93,119.81v3.27h4.4v2.08h-4.4v3.46h4.96v2.13h-7.58v-13.07h7.58v2.13h-4.96Zm1.08-4.43l-2.79,1.57v-1.91l2.79-1.52,2.77,1.52v1.91l-2.77-1.57Z"/>
        <path class="cls-1" d="m197.42,130.75h-2.62l-5.93-8.96v8.96h-2.62v-13.07h2.62l5.93,8.98v-8.98h2.62v13.07Z"/>
        <path class="cls-1" d="m200.24,120.75c.58-1.02,1.37-1.81,2.38-2.38,1-.57,2.13-.85,3.38-.85,1.46,0,2.74.37,3.83,1.12,1.1.75,1.86,1.78,2.3,3.1h-3.01c-.3-.62-.72-1.09-1.26-1.4-.54-.31-1.17-.47-1.88-.47-.76,0-1.44.18-2.03.53-.59.36-1.05.86-1.38,1.5-.33.65-.5,1.41-.5,2.28s.16,1.62.5,2.27c.33.65.79,1.16,1.38,1.52.59.36,1.27.53,2.03.53.71,0,1.34-.16,1.88-.48s.96-.79,1.26-1.41h3.01c-.44,1.33-1.2,2.37-2.29,3.12-1.09.74-2.37,1.11-3.84,1.11-1.25,0-2.37-.28-3.38-.85-1-.57-1.8-1.36-2.38-2.37s-.87-2.16-.87-3.44.29-2.44.87-3.45Z"/>
        <path class="cls-1" d="m216.99,117.69v13.06h-2.62v-13.06h2.62Z"/>
        <path class="cls-1" d="m227.58,128.26h-5.2l-.86,2.49h-2.75l4.69-13.07h3.05l4.69,13.07h-2.77l-.86-2.49Zm-.71-2.09l-1.89-5.46-1.89,5.46h3.78Z"/>
        <path class="cls-1" d="m245.42,128.26h-5.2l-.86,2.49h-2.75l4.69-13.07h3.05l4.69,13.07h-2.77l-.86-2.49Zm-.71-2.09l-1.89-5.46-1.89,5.46h3.78Z"/>
        <path class="cls-1" d="m253.5,130.02c-1.02-.57-1.83-1.37-2.43-2.38-.6-1.02-.9-2.17-.9-3.45s.3-2.42.9-3.43c.6-1.02,1.41-1.81,2.43-2.39,1.02-.57,2.14-.86,3.37-.86s2.36.29,3.38.86c1.02.57,1.82,1.37,2.41,2.39.59,1.02.89,2.16.89,3.43s-.3,2.44-.89,3.45c-.59,1.02-1.4,1.81-2.42,2.38-1.02.57-2.14.86-3.37.86s-2.34-.29-3.37-.86Zm5.44-2.01c.6-.36,1.07-.86,1.4-1.53.34-.66.51-1.43.51-2.3s-.17-1.64-.51-2.29c-.34-.65-.8-1.16-1.4-1.51-.6-.35-1.29-.52-2.08-.52s-1.48.18-2.09.52c-.61.35-1.08.85-1.41,1.51s-.51,1.42-.51,2.29.17,1.64.51,2.3c.34.66.81,1.17,1.41,1.53.6.36,1.3.53,2.09.53s1.48-.18,2.08-.53Z"/>
        <path class="cls-1" d="m267.54,130.41c-.73-.31-1.31-.76-1.73-1.35-.42-.59-.64-1.28-.65-2.08h2.81c.04.54.23.96.57,1.27.34.31.81.47,1.41.47s1.09-.15,1.44-.44c.35-.29.52-.68.52-1.15,0-.39-.12-.7-.35-.95-.24-.25-.53-.45-.89-.59-.36-.14-.85-.3-1.47-.48-.85-.25-1.54-.49-2.07-.74s-.99-.61-1.37-1.1c-.38-.49-.57-1.15-.57-1.97,0-.77.19-1.45.58-2.02.39-.57.93-1.01,1.63-1.32.7-.31,1.5-.46,2.39-.46,1.35,0,2.44.33,3.28.98s1.31,1.57,1.39,2.74h-2.88c-.03-.45-.22-.82-.57-1.11s-.83-.44-1.41-.44c-.51,0-.92.13-1.23.39-.31.26-.46.64-.46,1.14,0,.35.11.64.35.87s.52.42.86.56c.34.14.82.31,1.45.49.85.25,1.54.5,2.07.75.54.25,1,.62,1.38,1.12.39.5.58,1.15.58,1.96,0,.7-.18,1.35-.54,1.95-.36.6-.89,1.08-1.59,1.43-.7.36-1.53.53-2.49.53-.91,0-1.73-.16-2.46-.47Z"/>
        <path class="cls-1" d="m292.49,130.75h-2.62l-5.93-8.96v8.96h-2.62v-13.07h2.62l5.93,8.98v-8.98h2.62v13.07Z"/>
        <path class="cls-1" d="m297.69,119.81v3.27h4.4v2.08h-4.4v3.46h4.96v2.13h-7.58v-13.07h7.58v2.13h-4.96Z"/>
        <path class="cls-1" d="m314.12,121.62c-.3-.55-.71-.97-1.23-1.25-.52-.29-1.14-.43-1.83-.43-.77,0-1.46.18-2.06.52-.6.35-1.07.85-1.4,1.5-.34.65-.51,1.4-.51,2.24s.17,1.63.51,2.28.82,1.15,1.43,1.5c.61.35,1.32.52,2.13.52,1,0,1.81-.27,2.45-.79.64-.53,1.05-1.27,1.25-2.22h-4.49v-2h7.07v2.28c-.18.91-.55,1.75-1.12,2.53-.57.77-1.31,1.39-2.22,1.86s-1.92.7-3.04.7c-1.26,0-2.4-.28-3.41-.85-1.02-.57-1.82-1.36-2.39-2.37-.58-1.01-.87-2.16-.87-3.44s.29-2.44.87-3.45c.58-1.02,1.38-1.81,2.39-2.38,1.02-.57,2.15-.85,3.39-.85,1.47,0,2.75.36,3.83,1.08,1.08.72,1.83,1.72,2.24,3.02h-3.01Z"/>
        <path class="cls-1" d="m322.09,130.02c-1.02-.57-1.83-1.37-2.43-2.38-.6-1.02-.9-2.17-.9-3.45s.3-2.42.9-3.43c.6-1.02,1.41-1.81,2.43-2.39,1.02-.57,2.14-.86,3.37-.86s2.36.29,3.37.86c1.02.57,1.82,1.37,2.41,2.39.59,1.02.89,2.16.89,3.43s-.3,2.44-.89,3.45c-.59,1.02-1.4,1.81-2.42,2.38s-2.14.86-3.37.86-2.35-.29-3.37-.86Zm5.44-2.01c.6-.36,1.07-.86,1.4-1.53.34-.66.51-1.43.51-2.3s-.17-1.64-.51-2.29c-.33-.65-.8-1.16-1.4-1.51-.6-.35-1.29-.52-2.07-.52s-1.48.18-2.09.52c-.61.35-1.08.85-1.41,1.51s-.5,1.42-.5,2.29.17,1.64.5,2.3c.34.66.81,1.17,1.41,1.53.6.36,1.3.53,2.09.53s1.48-.18,2.07-.53Zm-.04-13.03l-4.3,1.96v-1.87l4.3-2.23v2.13Z"/>
        <path class="cls-1" d="m334.31,120.75c.58-1.02,1.37-1.81,2.37-2.38s2.13-.85,3.38-.85c1.46,0,2.74.37,3.83,1.12,1.1.75,1.87,1.78,2.3,3.1h-3.01c-.3-.62-.72-1.09-1.26-1.4-.54-.31-1.17-.47-1.88-.47-.76,0-1.44.18-2.03.53-.59.36-1.05.86-1.38,1.5-.33.65-.5,1.41-.5,2.28s.16,1.62.5,2.27c.33.65.79,1.16,1.38,1.52.59.36,1.27.53,2.03.53.71,0,1.34-.16,1.88-.48.54-.32.96-.79,1.26-1.41h3.01c-.44,1.33-1.2,2.37-2.29,3.12-1.09.74-2.37,1.11-3.84,1.11-1.25,0-2.37-.28-3.38-.85-1-.57-1.8-1.36-2.37-2.37-.58-1.01-.87-2.16-.87-3.44s.29-2.44.87-3.45Z"/>
        <path class="cls-1" d="m351.06,117.69v13.06h-2.62v-13.06h2.62Z"/>
        <path class="cls-1" d="m356.33,130.02c-1.02-.57-1.83-1.37-2.43-2.38-.6-1.02-.9-2.17-.9-3.45s.3-2.42.9-3.43c.6-1.02,1.41-1.81,2.43-2.39,1.02-.57,2.14-.86,3.37-.86s2.36.29,3.37.86c1.02.57,1.82,1.37,2.41,2.39.59,1.02.89,2.16.89,3.43s-.3,2.44-.89,3.45c-.59,1.02-1.4,1.81-2.42,2.38s-2.14.86-3.37.86-2.35-.29-3.37-.86Zm5.44-2.01c.6-.36,1.07-.86,1.4-1.53.34-.66.51-1.43.51-2.3s-.17-1.64-.51-2.29c-.33-.65-.8-1.16-1.4-1.51-.6-.35-1.29-.52-2.07-.52s-1.48.18-2.09.52c-.61.35-1.08.85-1.41,1.51s-.5,1.42-.5,2.29.17,1.64.5,2.3c.34.66.81,1.17,1.41,1.53.6.36,1.3.53,2.09.53s1.48-.18,2.07-.53Z"/>
        <path class="cls-1" d="m370.37,130.41c-.73-.31-1.31-.76-1.73-1.35s-.64-1.28-.65-2.08h2.81c.04.54.23.96.57,1.27.34.31.81.47,1.41.47s1.09-.15,1.44-.44c.35-.29.52-.68.52-1.15,0-.39-.12-.7-.36-.95-.24-.25-.53-.45-.89-.59-.36-.14-.85-.3-1.47-.48-.85-.25-1.54-.49-2.07-.74s-.98-.61-1.36-1.1c-.38-.49-.57-1.15-.57-1.97,0-.77.19-1.45.58-2.02.39-.57.93-1.01,1.63-1.32.7-.31,1.5-.46,2.39-.46,1.35,0,2.44.33,3.28.98.84.65,1.31,1.57,1.39,2.74h-2.88c-.03-.45-.21-.82-.57-1.11-.35-.29-.83-.44-1.41-.44-.51,0-.92.13-1.22.39-.31.26-.46.64-.46,1.14,0,.35.12.64.35.87s.52.42.86.56c.34.14.82.31,1.45.49.85.25,1.54.5,2.08.75.54.25,1,.62,1.38,1.12.39.5.58,1.15.58,1.96,0,.7-.18,1.35-.54,1.95s-.89,1.08-1.59,1.43c-.7.36-1.53.53-2.49.53-.91,0-1.73-.16-2.46-.47Z"/>
      </g>
      <g>
        <path class="cls-4" d="m143.9,17.16c-.84,1.52-2.14,2.75-3.88,3.68-1.75.93-3.91,1.4-6.5,1.4h-4.79v11.38h-7.72V1.93h12.5c2.53,0,4.66.44,6.41,1.31,1.74.87,3.05,2.08,3.93,3.61.87,1.54,1.31,3.3,1.31,5.28,0,1.84-.42,3.51-1.26,5.03Zm-7.67-2.1c.72-.69,1.08-1.67,1.08-2.93s-.36-2.24-1.08-2.93c-.72-.69-1.82-1.04-3.29-1.04h-4.2v7.95h4.2c1.47,0,2.57-.35,3.29-1.04Z"/>
        <path class="cls-4" d="m168.91,28.02h-11.83l-1.9,5.6h-8.08l11.47-31.69h8.94l11.47,31.69h-8.17l-1.9-5.6Zm-1.99-5.96l-3.93-11.6-3.88,11.6h7.81Z"/>
        <path class="cls-4" d="m190.17,27.66h10.11v5.96h-17.83V1.93h7.72v25.73Z"/>
        <path class="cls-4" d="m239.87,1.93v31.69h-7.72V14.61l-7.09,19h-6.23l-7.13-19.05v19.05h-7.72V1.93h9.12l8.89,21.94,8.8-21.94h9.07Z"/>
        <path class="cls-4" d="m253.14,1.93v31.69h-7.72V1.93h7.72Z"/>
        <path class="cls-4" d="m266.46,27.66h10.11v5.96h-17.83V1.93h7.72v25.73Z"/>
        <path class="cls-4" d="m307.72,1.93v31.69h-7.72v-13.05h-12.01v13.05h-7.72V1.93h7.72v12.41h12.01V1.93h7.72Z"/>
        <path class="cls-4" d="m333,28.02h-11.83l-1.9,5.6h-8.08l11.47-31.69h8.94l11.47,31.69h-8.17l-1.9-5.6Zm-1.99-5.96l-3.93-11.6-3.88,11.6h7.81Z"/>
        <path class="cls-4" d="m351.78,32.8c-1.83-.75-3.3-1.87-4.4-3.34-1.1-1.47-1.68-3.25-1.74-5.33h8.21c.12,1.17.53,2.07,1.22,2.69.69.62,1.6.93,2.71.93s2.05-.26,2.71-.79c.66-.53.99-1.26.99-2.19,0-.78-.26-1.43-.79-1.94s-1.17-.93-1.94-1.26c-.77-.33-1.86-.71-3.27-1.13-2.05-.63-3.72-1.26-5.01-1.9-1.29-.63-2.41-1.56-3.34-2.8-.93-1.23-1.4-2.84-1.4-4.83,0-2.95,1.07-5.26,3.21-6.93,2.14-1.67,4.92-2.51,8.35-2.51s6.3.83,8.44,2.51c2.14,1.67,3.28,4,3.43,6.97h-8.35c-.06-1.02-.44-1.83-1.13-2.42-.69-.59-1.58-.88-2.66-.88-.93,0-1.69.25-2.26.74s-.86,1.21-.86,2.14c0,1.02.48,1.82,1.45,2.39.96.57,2.47,1.19,4.51,1.85,2.05.69,3.71,1.35,4.99,1.99,1.28.63,2.38,1.55,3.32,2.75.93,1.2,1.4,2.75,1.4,4.65s-.46,3.45-1.38,4.92-2.25,2.65-3.99,3.52-3.81,1.31-6.18,1.31-4.39-.38-6.23-1.13Z"/>
      </g>
      <g>
        <path class="cls-1" d="m143.9,17.16c-.84,1.52-2.14,2.75-3.88,3.68-1.75.93-3.91,1.4-6.5,1.4h-4.79v11.38h-7.72V1.93h12.5c2.53,0,4.66.44,6.41,1.31,1.74.87,3.05,2.08,3.93,3.61.87,1.54,1.31,3.3,1.31,5.28,0,1.84-.42,3.51-1.26,5.03Zm-7.67-2.1c.72-.69,1.08-1.67,1.08-2.93s-.36-2.24-1.08-2.93c-.72-.69-1.82-1.04-3.29-1.04h-4.2v7.95h4.2c1.47,0,2.57-.35,3.29-1.04Z"/>
        <path class="cls-1" d="m168.91,28.02h-11.83l-1.9,5.6h-8.08l11.47-31.69h8.94l11.47,31.69h-8.17l-1.9-5.6Zm-1.99-5.96l-3.93-11.6-3.88,11.6h7.81Z"/>
        <path class="cls-1" d="m190.17,27.66h10.11v5.96h-17.83V1.93h7.72v25.73Z"/>
        <path class="cls-1" d="m239.87,1.93v31.69h-7.72V14.61l-7.09,19h-6.23l-7.13-19.05v19.05h-7.72V1.93h9.12l8.89,21.94,8.8-21.94h9.07Z"/>
        <path class="cls-1" d="m253.14,1.93v31.69h-7.72V1.93h7.72Z"/>
        <path class="cls-1" d="m266.46,27.66h10.11v5.96h-17.83V1.93h7.72v25.73Z"/>
        <path class="cls-1" d="m307.72,1.93v31.69h-7.72v-13.05h-12.01v13.05h-7.72V1.93h7.72v12.41h12.01V1.93h7.72Z"/>
        <path class="cls-1" d="m333,28.02h-11.83l-1.9,5.6h-8.08l11.47-31.69h8.94l11.47,31.69h-8.17l-1.9-5.6Zm-1.99-5.96l-3.93-11.6-3.88,11.6h7.81Z"/>
        <path class="cls-1" d="m351.78,32.8c-1.83-.75-3.3-1.87-4.4-3.34-1.1-1.47-1.68-3.25-1.74-5.33h8.21c.12,1.17.53,2.07,1.22,2.69.69.62,1.6.93,2.71.93s2.05-.26,2.71-.79c.66-.53.99-1.26.99-2.19,0-.78-.26-1.43-.79-1.94s-1.17-.93-1.94-1.26c-.77-.33-1.86-.71-3.27-1.13-2.05-.63-3.72-1.26-5.01-1.9-1.29-.63-2.41-1.56-3.34-2.8-.93-1.23-1.4-2.84-1.4-4.83,0-2.95,1.07-5.26,3.21-6.93,2.14-1.67,4.92-2.51,8.35-2.51s6.3.83,8.44,2.51c2.14,1.67,3.28,4,3.43,6.97h-8.35c-.06-1.02-.44-1.83-1.13-2.42-.69-.59-1.58-.88-2.66-.88-.93,0-1.69.25-2.26.74s-.86,1.21-.86,2.14c0,1.02.48,1.82,1.45,2.39.96.57,2.47,1.19,4.51,1.85,2.05.69,3.71,1.35,4.99,1.99,1.28.63,2.38,1.55,3.32,2.75.93,1.2,1.4,2.75,1.4,4.65s-.46,3.45-1.38,4.92-2.25,2.65-3.99,3.52-3.81,1.31-6.18,1.31-4.39-.38-6.23-1.13Z"/>
      </g>
      <g>
        <g id="frente">
          <path class="cls-1" d="m102.15,123.48c-.32.96-1.6,5.11-4.87,7.43-1.12.8-4.15,3.83-14.53.96-9.58-2.63-12.06-6.87-20.28-9.74-7.74-2.71-8.38-.96-17.64-3.19-5.75-1.36-19.56-4.79-30.02-15.97-3.83-4.07-11.02-12.85-8.94-19.56,1.52-4.95,6.71-7.35,7.43-7.66,11.34-5.03,29.7,4.47,37.13,13.17,1.2,1.44,5.35,6.71,12.46,10.14,1.28.64,8.94,2.95,18.28,4.55,18.12,3.19,23.39,12.3,21,19.88h0Z"/>
          <path class="cls-1" d="m90.42,133.7c-2,0-4.63-.32-7.9-1.28-5.35-1.52-8.54-3.51-11.66-5.43-2.55-1.6-5.03-3.11-8.62-4.39-4.15-1.44-6.15-1.6-8.7-1.84-2.16-.16-4.63-.32-8.86-1.36-5.35-1.28-19.56-4.71-30.34-16.21-4.31-4.47-11.26-13.17-9.1-20.04,1.52-4.95,6.31-7.43,7.82-8.06,11.82-5.27,30.34,4.39,37.84,13.41l.24.24c1.52,1.76,5.43,6.55,11.98,9.74,1.04.48,8.46,2.79,18.12,4.55,12.77,2.24,18.12,7.11,20.36,10.78,1.52,2.48,2.08,5.11,1.68,7.82l.24-.24-.72,2.4c-1.04,3.51-2.87,6.15-5.11,7.74-.08.08-.16.08-.24.16-1.04.64-2.87,2-7.03,2h0ZM20.48,74.86c-2.48,0-4.87.4-6.95,1.36-1.28.56-5.75,2.87-7.11,7.27-1.92,6.23,4.63,14.53,8.78,18.92,10.54,11.26,24.43,14.53,29.7,15.81,4.15.96,6.55,1.2,8.7,1.36,2.55.16,4.71.32,9.02,1.84,3.75,1.36,6.39,2.95,8.86,4.47,3.19,1.92,6.15,3.83,11.34,5.27,9.34,2.63,12.38.32,13.73-.64.08-.08.24-.16.32-.24,1.84-1.28,3.35-3.51,4.39-6.31l.24-.72c.96-3.03.56-6.15-1.12-8.94-2.08-3.43-7.19-8.06-19.48-10.22-9.66-1.68-17.17-4.07-18.44-4.63-6.79-3.35-11.02-8.38-12.46-10.06l-.24-.24c-5.67-6.71-18.68-14.29-29.3-14.29h0Z"/>
        </g>
        <g id="frente-2">
          <path class="cls-1" d="m98.64,127.31c-.88.72-4.47,4.07-8.94,4.47-1.52.08-6.23,1.44-14.77-7.35-7.82-8.06-7.9-13.57-14.21-21.08-5.99-7.03-7.66-5.75-15.41-13.09-4.79-4.63-16.37-15.81-20.28-32.65-1.44-6.15-3.51-18.76,2.4-24.19,4.31-3.99,10.78-3.35,11.58-3.27,13.97,1.52,26.51,21.24,28.74,33.93.4,2.08,1.44,9.58,6.39,17.01.88,1.28,7.03,7.9,15.25,14.85,15.97,13.33,15.97,25.23,9.26,31.38h0Z"/>
          <path class="cls-1" d="m87.86,132.5c-2.48,0-6.87-.96-13.41-7.66-4.39-4.47-6.39-8.22-8.3-11.9-1.6-3.03-3.11-5.91-5.99-9.18-3.19-3.75-5.11-5.03-7.43-6.71-2-1.36-4.31-2.95-7.9-6.39-4.47-4.31-16.45-15.73-20.44-32.97-1.6-6.95-3.35-19.32,2.63-24.83,4.55-4.23,11.34-3.51,12.14-3.43,14.21,1.52,27.07,21.8,29.3,34.49l.08.4c.48,2.55,1.6,9.42,6.23,16.37.72,1.12,6.63,7.58,15.09,14.69,11.18,9.42,13.65,17.17,13.73,22.04.08,4.07-1.44,7.66-4.47,10.38l-1.04.96v-.08c-2.79,2.24-5.51,3.51-8.22,3.67-.08,0-.24,0-.32.08-.56.08-1.04.08-1.68.08h0ZM37.24,30.62c-2.32,0-6.39.4-9.42,3.19-5.51,5.03-3.75,16.93-2.24,23.55,3.91,16.93,15.65,28.1,20.04,32.34,3.51,3.35,5.75,4.87,7.74,6.23,2.4,1.6,4.39,3.03,7.74,6.95,2.87,3.43,4.55,6.47,6.15,9.42,1.92,3.51,3.83,7.19,8.14,11.58,7.66,7.9,12.14,7.35,13.81,7.19.16,0,.32,0,.4-.08,2.79-.24,5.67-1.68,8.54-4.23l.4-.32c2.48-2.4,3.75-5.59,3.67-9.1-.08-4.55-2.48-11.98-13.25-21.08-8.46-7.11-14.45-13.65-15.33-15.01-4.79-7.11-5.99-14.21-6.39-16.85l-.16-.24c-2.16-12.3-14.53-31.94-28.18-33.45-.16,0-.8-.08-1.68-.08h0Zm61.4,96.69l.4.48-.4-.48Z"/>
        </g>
        <g id="frente-3">
          <path class="cls-1" d="m93.45,131.78c-1.28.24-6.55,1.2-10.94-1.2-1.52-.8-6.63-2.4-9.34-15.57-2.48-12.14.72-17.25-.72-28.02-1.36-10.14-3.75-9.82-6.55-21.32-1.76-7.19-5.83-24.43.56-42.4,2.32-6.55,7.9-19.48,16.61-21.08,6.39-1.12,11.98,3.27,12.77,3.83,12.06,9.66,11.98,35.45,6.55,48.62-.88,2.16-4.39,9.74-4.15,19.56,0,1.76,1.84,11.5,5.35,22.83,6.79,21.96-.24,33.05-10.14,34.73h0Z"/>
          <path class="cls-1" d="m89.38,132.74c-3.35,0-5.75-.8-7.27-1.6-.08-.08-.24-.08-.32-.16-2-.96-6.71-3.27-9.34-15.81-1.44-6.79-1.04-11.42-.64-15.97.24-3.59.56-7.35-.08-12.14-.72-5.43-1.68-7.74-2.95-10.7-1.04-2.48-2.24-5.27-3.51-10.62-1.6-6.63-5.91-24.35.64-42.71,2.63-7.35,8.3-19.88,17.09-21.48,6.31-1.12,11.74,2.79,13.25,3.99,12.3,9.9,12.22,36.25,6.71,49.34l-.16.4c-1.12,2.63-4.15,9.74-3.91,18.92.08,1.76,1.92,11.66,5.35,22.67,4.79,15.33,2.48,24.03-.32,28.58-2.32,3.83-5.91,6.23-10.22,6.95l-.32.08h0c-1.52.16-2.79.24-3.99.24h0Zm4.07-.96l.08.64-.08-.64ZM85.23,2.68c-.64,0-1.36.08-2.08.16-8.06,1.44-13.57,13.57-16.05,20.68-6.39,18.04-2.16,35.45-.56,42,1.28,5.19,2.48,7.98,3.51,10.38,1.28,2.95,2.32,5.43,3.03,11.02.64,4.87.32,8.7.08,12.38-.32,4.39-.72,9.02.64,15.57,2.48,11.9,6.95,14.05,8.62,14.93.16.08.32.16.4.24,1.92,1.04,5.27,2.08,10.54,1.12l.32-.08h0c3.83-.72,6.95-2.87,9.02-6.31,2.63-4.31,4.87-12.61.16-27.47-3.67-11.66-5.35-21.32-5.35-22.99-.16-9.42,3.03-16.93,4.07-19.48l.16-.4c5.35-12.77,5.51-38.32-6.31-47.82-1.28-.96-5.35-3.91-10.22-3.91h0Z"/>
        </g>
      </g>
      <g>
        <g id="frente-2" data-name="frente">
          <path class="cls-5" d="m99.19,119.91c-.25.98-1.22,5.21-4.31,7.76-1.06.88-3.86,4.13-14.42,2.03-9.75-1.92-12.53-5.96-20.94-8.22-7.92-2.14-8.43-.34-17.83-1.88-5.83-.93-19.86-3.33-31.12-13.71-4.12-3.78-11.94-12.01-10.36-18.85,1.15-5.05,6.15-7.82,6.84-8.19,10.94-5.85,29.95,2.27,38,10.4,1.3,1.34,5.83,6.29,13.17,9.19,1.32.54,9.14,2.29,18.57,3.19,18.31,1.85,24.24,10.53,22.41,18.28h0Z"/>
        </g>
        <g id="frente-2-2" data-name="frente-2">
          <path class="cls-4" d="m95.97,123.99c-.82.78-4.16,4.39-8.59,5.12-1.51.19-6.1,1.89-15.27-6.23-8.4-7.46-8.88-12.95-15.73-19.97-6.49-6.56-8.07-5.17-16.33-11.92-5.12-4.26-17.49-14.56-22.64-31.07-1.89-6.02-4.89-18.45.6-24.3,4-4.3,10.5-4.14,11.3-4.12,14.05.48,28,19.22,31.17,31.72.55,2.04,2.14,9.45,7.63,16.49.97,1.21,7.59,7.36,16.3,13.68,16.91,12.12,17.79,23.98,11.55,30.61h0Z"/>
        </g>
        <g id="frente-3-2" data-name="frente-3">
          <path class="cls-2" d="m91.12,128.83c-1.26.33-6.44,1.68-11-.39-1.57-.68-6.79-1.9-10.47-14.84-3.36-11.92-.56-17.25-2.79-27.89-2.1-10.01-4.47-9.52-8.1-20.78-2.28-7.04-7.62-23.93-2.57-42.32,1.83-6.7,6.44-20.01,15.01-22.25,6.29-1.59,12.19,2.38,13.02,2.88,12.74,8.74,14.56,34.47,10.12,48.01-.72,2.21-3.66,10.04-2.7,19.81.13,1.75,2.68,11.33,7.02,22.38,8.39,21.4,2.2,32.98-7.55,35.38h0Z"/>
        </g>
      </g>
    </g>
  </g>
</svg>