<?xml version="1.0" encoding="UTF-8"?>
<svg id="Layer_2" data-name="Layer 2" xmlns="http://www.w3.org/2000/svg" viewBox="0 0 481.27 121.73">
  <defs>
    <style>
      .cls-1 {
        fill: #fff;
      }

      .cls-2 {
        fill: #11e9de;
      }

      .cls-2, .cls-3, .cls-4 {
        stroke: #fff;
        stroke-miterlimit: 10;
      }

      .cls-5, .cls-4 {
        fill: #45f063;
      }

      .cls-3, .cls-6 {
        fill: #0986bf;
      }
    </style>
  </defs>
  <g id="Layer_3" data-name="Layer 3">
    <g>
      <g>
        <path class="cls-1" d="m116.3,20.09c-.93.9-2.34,1.34-4.24,1.34h-3.13v6.8h-2.13V11.94h5.26c1.84,0,3.24.44,4.2,1.33.96.89,1.44,2.03,1.44,3.44s-.46,2.48-1.39,3.38Zm-1.62-1.18c.56-.51.84-1.25.84-2.2,0-2.01-1.15-3.02-3.46-3.02h-3.13v5.99h3.13c1.18,0,2.06-.26,2.62-.77Z"/>
        <path class="cls-1" d="m129.97,24.61h-7.11l-1.31,3.62h-2.25l5.89-16.2h2.46l5.87,16.2h-2.24l-1.31-3.62Zm-.61-1.73l-2.95-8.23-2.95,8.23h5.89Z"/>
        <path class="cls-1" d="m138.22,26.51h5.71v1.73h-7.83V11.94h2.13v14.57Z"/>
        <path class="cls-1" d="m162.73,12.06v16.18h-2.13v-12.07l-5.38,12.07h-1.5l-5.4-12.09v12.09h-2.13V12.06h2.29l5.99,13.37,5.99-13.37h2.27Z"/>
        <path class="cls-1" d="m168.46,11.94v16.3h-2.13V11.94h2.13Z"/>
        <path class="cls-1" d="m174.21,26.51h5.71v1.73h-7.83V11.94h2.13v14.57Z"/>
        <path class="cls-1" d="m194.74,11.94v16.3h-2.13v-7.39h-8.3v7.39h-2.13V11.94h2.13v7.16h8.3v-7.16h2.13Z"/>
        <path class="cls-1" d="m208,24.61h-7.11l-1.31,3.62h-2.25l5.89-16.2h2.46l5.87,16.2h-2.24l-1.31-3.62Zm-.61-1.73l-2.95-8.23-2.95,8.23h5.89Z"/>
        <path class="cls-1" d="m216.4,27.83c-.85-.38-1.52-.91-2-1.59-.48-.68-.73-1.46-.75-2.35h2.27c.08.76.39,1.41.95,1.93s1.36.78,2.42.78,1.81-.25,2.4-.76c.58-.51.88-1.16.88-1.95,0-.62-.17-1.13-.51-1.52-.34-.39-.77-.69-1.29-.89-.51-.2-1.21-.42-2.08-.65-1.08-.28-1.94-.56-2.58-.84-.65-.28-1.2-.72-1.66-1.32-.46-.6-.69-1.41-.69-2.42,0-.89.23-1.68.68-2.36s1.09-1.22,1.91-1.59c.82-.37,1.76-.56,2.82-.56,1.53,0,2.78.38,3.75,1.15s1.52,1.78,1.65,3.04h-2.34c-.08-.62-.41-1.17-.98-1.65s-1.34-.71-2.29-.71c-.89,0-1.61.23-2.17.69-.56.46-.84,1.1-.84,1.93,0,.59.17,1.08.5,1.45.33.37.75.66,1.24.85.49.19,1.18.42,2.07.67,1.08.3,1.94.59,2.6.88.65.29,1.22.73,1.68,1.33s.7,1.41.7,2.44c0,.79-.21,1.54-.63,2.25-.42.7-1.04,1.27-1.87,1.71-.83.44-1.8.65-2.92.65s-2.04-.19-2.89-.57Z"/>
        <path class="cls-1" d="m244.12,11.94v1.73h-4.44v14.57h-2.13v-14.57h-4.47v-1.73h11.04Z"/>
        <path class="cls-1" d="m248.87,13.67v5.45h5.94v1.75h-5.94v5.61h6.64v1.75h-8.77V11.92h8.77v1.75h-6.64Z"/>
        <path class="cls-1" d="m267.32,28.24l-3.88-6.66h-2.57v6.66h-2.13V11.94h5.26c1.23,0,2.27.21,3.12.63.85.42,1.48.99,1.91,1.71.42.72.63,1.54.63,2.46,0,1.12-.32,2.11-.97,2.97-.65.86-1.62,1.43-2.91,1.71l4.09,6.83h-2.55Zm-6.45-8.37h3.13c1.15,0,2.02-.28,2.6-.85.58-.57.87-1.33.87-2.28s-.29-1.71-.85-2.24c-.57-.53-1.44-.79-2.61-.79h-3.13v6.17Z"/>
        <path class="cls-1" d="m282.59,24.61h-7.11l-1.31,3.62h-2.25l5.89-16.2h2.46l5.87,16.2h-2.25l-1.31-3.62Zm-.61-1.73l-2.95-8.23-2.95,8.23h5.89Z"/>
        <path class="cls-1" d="m298.22,20.09c-.93.9-2.34,1.34-4.24,1.34h-3.13v6.8h-2.13V11.94h5.26c1.84,0,3.24.44,4.2,1.33.96.89,1.44,2.03,1.44,3.44s-.46,2.48-1.39,3.38Zm-1.62-1.18c.56-.51.84-1.25.84-2.2,0-2.01-1.15-3.02-3.46-3.02h-3.13v5.99h3.13c1.18,0,2.06-.26,2.62-.77Z"/>
        <path class="cls-1" d="m304.38,13.67v5.45h5.94v1.75h-5.94v5.61h6.64v1.75h-8.77V11.92h8.77v1.75h-6.64Zm2.03-4.77l-3.25,1.99v-1.68l3.25-1.94,3.23,1.94v1.68l-3.23-1.99Z"/>
        <path class="cls-1" d="m316.33,11.94v10.31c0,1.45.35,2.53,1.06,3.23.71.7,1.7,1.05,2.96,1.05s2.22-.35,2.93-1.05c.71-.7,1.06-1.78,1.06-3.23v-10.31h2.13v10.29c0,1.36-.27,2.5-.82,3.43-.55.93-1.28,1.62-2.21,2.07-.93.45-1.97.68-3.12.68s-2.19-.23-3.12-.68c-.93-.45-1.66-1.14-2.2-2.07-.54-.93-.81-2.07-.81-3.43v-10.29h2.13Z"/>
        <path class="cls-1" d="m340.06,11.94v1.73h-4.44v14.57h-2.13v-14.57h-4.47v-1.73h11.04Z"/>
        <path class="cls-1" d="m344.81,11.94v16.3h-2.13V11.94h2.13Z"/>
        <path class="cls-1" d="m348.71,15.79c.72-1.27,1.7-2.26,2.93-2.98,1.24-.72,2.62-1.08,4.13-1.08,1.78,0,3.33.43,4.65,1.29,1.33.86,2.29,2.07,2.9,3.65h-2.55c-.45-.98-1.1-1.74-1.95-2.27-.85-.53-1.87-.79-3.05-.79s-2.16.27-3.06.79c-.9.53-1.61,1.28-2.13,2.26-.51.97-.77,2.12-.77,3.43s.26,2.43.77,3.4c.51.97,1.22,1.73,2.13,2.26.9.53,1.93.79,3.06.79s2.2-.26,3.05-.78c.85-.52,1.5-1.27,1.95-2.26h2.55c-.61,1.56-1.57,2.76-2.9,3.61-1.33.85-2.88,1.27-4.65,1.27-1.51,0-2.89-.35-4.13-1.06-1.24-.71-2.22-1.69-2.93-2.96s-1.08-2.69-1.08-4.28.36-3.02,1.08-4.29Z"/>
        <path class="cls-1" d="m376.12,24.61h-7.11l-1.31,3.62h-2.25l5.89-16.2h2.46l5.87,16.2h-2.25l-1.31-3.62Zm-.61-1.73l-2.95-8.23-2.95,8.23h5.89Z"/>
        <path class="cls-1" d="m384.52,27.83c-.85-.38-1.52-.91-2-1.59-.48-.68-.73-1.46-.75-2.35h2.27c.08.76.39,1.41.95,1.93s1.36.78,2.42.78,1.81-.25,2.4-.76c.58-.51.88-1.16.88-1.95,0-.62-.17-1.13-.51-1.52-.34-.39-.77-.69-1.29-.89-.51-.2-1.21-.42-2.08-.65-1.08-.28-1.94-.56-2.58-.84-.65-.28-1.2-.72-1.66-1.32s-.69-1.41-.69-2.42c0-.89.23-1.68.68-2.36s1.09-1.22,1.91-1.59c.82-.37,1.76-.56,2.82-.56,1.53,0,2.78.38,3.75,1.15.97.76,1.52,1.78,1.65,3.04h-2.34c-.08-.62-.41-1.17-.98-1.65-.58-.48-1.34-.71-2.29-.71-.89,0-1.61.23-2.17.69-.56.46-.84,1.1-.84,1.93,0,.59.17,1.08.5,1.45s.75.66,1.24.85,1.18.42,2.07.67c1.08.3,1.94.59,2.6.88.65.29,1.22.73,1.68,1.33s.7,1.41.7,2.44c0,.79-.21,1.54-.63,2.25-.42.7-1.04,1.27-1.87,1.71-.83.44-1.8.65-2.92.65s-2.04-.19-2.89-.57Z"/>
      </g>
      <g>
        <path class="cls-1" d="m123.95,45.96c2.15,1.14,3.81,2.74,4.98,4.79,1.18,2.06,1.77,4.43,1.77,7.12s-.59,5.03-1.77,7.1c-1.18,2.07-2.85,3.67-5,4.81-2.16,1.14-4.66,1.71-7.51,1.71h-10.2v-27.23h10.2c2.87,0,5.38.57,7.53,1.71Zm-2.09,17.73c1.4-1.37,2.09-3.31,2.09-5.82s-.7-4.46-2.09-5.86-3.35-2.1-5.86-2.1h-3.14v15.83h3.14c2.51,0,4.46-.68,5.86-2.06Z"/>
        <path class="cls-1" d="m151.38,66.67h-10.16l-1.63,4.81h-6.94l9.85-27.23h7.68l9.85,27.23h-7.02l-1.63-4.81Zm-1.71-5.12l-3.38-9.97-3.34,9.97h6.71Z"/>
        <path class="cls-1" d="m171.86,50.63c1.16-2.11,2.79-3.75,4.87-4.93,2.08-1.18,4.44-1.77,7.08-1.77,3.23,0,6,.85,8.3,2.56s3.84,4.03,4.62,6.98h-7.29c-.54-1.14-1.31-2-2.31-2.6-1-.59-2.13-.89-3.39-.89-2.04,0-3.7.71-4.97,2.13-1.27,1.42-1.9,3.32-1.9,5.7s.63,4.28,1.9,5.7c1.27,1.42,2.92,2.13,4.97,2.13,1.27,0,2.4-.3,3.39-.89s1.77-1.46,2.31-2.6h7.29c-.78,2.95-2.31,5.27-4.62,6.96-2.3,1.69-5.07,2.54-8.3,2.54-2.64,0-5-.59-7.08-1.77-2.08-1.18-3.7-2.81-4.87-4.91-1.16-2.1-1.75-4.49-1.75-7.18s.58-5.09,1.75-7.2Z"/>
        <path class="cls-1" d="m207.43,44.25v27.23h-6.63v-27.23h6.63Z"/>
        <path class="cls-1" d="m218.88,49.57v5.51h8.88v5.12h-8.88v5.97h10.05v5.32h-16.68v-27.23h16.68v5.31h-10.05Zm1.51-10.05l-6.01,3.18v-4.58l6.01-3.06,6.01,3.06v4.58l-6.01-3.18Z"/>
        <path class="cls-1" d="m257.59,71.48h-6.63l-11.09-16.8v16.8h-6.63v-27.23h6.63l11.09,16.88v-16.88h6.63v27.23Z"/>
        <path class="cls-1" d="m263.02,50.63c1.16-2.11,2.79-3.75,4.87-4.93,2.08-1.18,4.44-1.77,7.08-1.77,3.23,0,6,.85,8.3,2.56,2.3,1.71,3.84,4.03,4.62,6.98h-7.29c-.54-1.14-1.31-2-2.31-2.6-1-.59-2.13-.89-3.39-.89-2.04,0-3.7.71-4.97,2.13-1.27,1.42-1.9,3.32-1.9,5.7s.63,4.28,1.9,5.7c1.27,1.42,2.92,2.13,4.97,2.13,1.27,0,2.4-.3,3.39-.89,1-.59,1.77-1.46,2.31-2.6h7.29c-.78,2.95-2.31,5.27-4.62,6.96-2.3,1.69-5.07,2.54-8.3,2.54-2.64,0-5-.59-7.08-1.77-2.08-1.18-3.71-2.81-4.87-4.91-1.16-2.1-1.75-4.49-1.75-7.18s.58-5.09,1.75-7.2Z"/>
        <path class="cls-1" d="m298.6,44.25v27.23h-6.63v-27.23h6.63Z"/>
        <path class="cls-1" d="m320.36,66.67h-10.16l-1.63,4.81h-6.94l9.85-27.23h7.68l9.85,27.23h-7.02l-1.63-4.81Zm-1.71-5.12l-3.38-9.97-3.34,9.97h6.71Z"/>
        <path class="cls-1" d="m123.17,113.23h-10.16l-1.63,4.81h-6.94l9.85-27.23h7.68l9.85,27.23h-7.02l-1.63-4.81Zm-1.71-5.12l-3.38-9.97-3.34,9.97h6.71Z"/>
        <path class="cls-1" d="m140.65,116.52c-2.13-1.19-3.83-2.85-5.08-4.99-1.25-2.13-1.88-4.53-1.88-7.2s.63-5.06,1.88-7.18c1.25-2.12,2.95-3.78,5.08-4.97,2.13-1.19,4.48-1.78,7.04-1.78s4.91.6,7.04,1.78c2.13,1.19,3.81,2.85,5.04,4.97,1.23,2.12,1.84,4.51,1.84,7.18s-.62,5.06-1.86,7.2c-1.24,2.13-2.92,3.8-5.04,4.99s-4.46,1.78-7.02,1.78-4.91-.59-7.04-1.78Zm12.26-6.44c1.31-1.45,1.96-3.36,1.96-5.74s-.65-4.33-1.96-5.76c-1.31-1.44-3.05-2.15-5.22-2.15s-3.95.71-5.26,2.13c-1.31,1.42-1.96,3.35-1.96,5.78s.65,4.33,1.96,5.76c1.31,1.44,3.06,2.15,5.26,2.15s3.91-.72,5.22-2.17Z"/>
        <path class="cls-1" d="m169.8,117.34c-1.58-.65-2.84-1.6-3.78-2.87-.94-1.27-1.44-2.79-1.49-4.58h7.06c.1,1.01.45,1.78,1.05,2.31.59.53,1.37.8,2.33.8s1.76-.23,2.33-.68c.57-.45.85-1.08.85-1.88,0-.67-.23-1.23-.68-1.67-.45-.44-1.01-.8-1.67-1.09-.66-.29-1.6-.61-2.81-.97-1.76-.54-3.19-1.09-4.31-1.63-1.11-.54-2.07-1.34-2.87-2.41-.8-1.06-1.2-2.44-1.2-4.15,0-2.54.92-4.52,2.75-5.96,1.84-1.44,4.23-2.15,7.18-2.15s5.42.72,7.25,2.15c1.84,1.44,2.82,3.43,2.95,5.99h-7.18c-.05-.88-.38-1.57-.97-2.08-.6-.5-1.36-.76-2.29-.76-.8,0-1.45.21-1.94.64-.49.43-.74,1.04-.74,1.84,0,.88.41,1.56,1.24,2.06.83.49,2.12,1.02,3.88,1.59,1.76.59,3.19,1.16,4.29,1.71s2.05,1.33,2.85,2.37c.8,1.03,1.2,2.37,1.2,4s-.39,2.96-1.18,4.23c-.79,1.27-1.93,2.28-3.43,3.03s-3.27,1.12-5.31,1.12-3.78-.32-5.35-.97Z"/>
        <path class="cls-1" d="m221.75,118.04h-6.63l-11.09-16.8v16.8h-6.63v-27.23h6.63l11.09,16.88v-16.88h6.63v27.23Z"/>
        <path class="cls-1" d="m233.19,96.12v5.51h8.88v5.12h-8.88v5.97h10.05v5.31h-16.68v-27.23h16.68v5.32h-10.05Z"/>
        <path class="cls-1" d="m265.62,99.42c-.49-.9-1.2-1.6-2.11-2.08-.92-.48-2-.72-3.24-.72-2.15,0-3.87.71-5.16,2.11-1.29,1.41-1.94,3.29-1.94,5.64,0,2.51.68,4.47,2.04,5.88,1.36,1.41,3.23,2.11,5.61,2.11,1.63,0,3.01-.41,4.13-1.24,1.12-.83,1.95-2.02,2.46-3.57h-8.42v-4.89h14.43v6.17c-.49,1.66-1.33,3.19-2.5,4.62-1.18,1.42-2.67,2.57-4.48,3.45-1.81.88-3.85,1.32-6.13,1.32-2.69,0-5.09-.59-7.2-1.77-2.11-1.18-3.75-2.81-4.93-4.91s-1.76-4.49-1.76-7.18.59-5.09,1.76-7.2c1.18-2.11,2.81-3.75,4.91-4.93,2.09-1.18,4.49-1.76,7.18-1.76,3.26,0,6.01.79,8.24,2.37,2.24,1.58,3.72,3.76,4.44,6.56h-7.33Z"/>
        <path class="cls-1" d="m282.94,116.52c-2.13-1.19-3.83-2.85-5.08-4.99-1.25-2.13-1.88-4.53-1.88-7.2s.63-5.06,1.88-7.18c1.25-2.12,2.95-3.78,5.08-4.97,2.13-1.19,4.48-1.78,7.04-1.78s4.91.6,7.04,1.78c2.13,1.19,3.82,2.85,5.04,4.97,1.23,2.12,1.84,4.51,1.84,7.18s-.62,5.06-1.86,7.2-2.92,3.8-5.04,4.99c-2.12,1.19-4.46,1.78-7.02,1.78s-4.91-.59-7.04-1.78Zm12.26-6.44c1.31-1.45,1.96-3.36,1.96-5.74s-.65-4.33-1.96-5.76-3.04-2.15-5.22-2.15-3.95.71-5.26,2.13c-1.31,1.42-1.96,3.35-1.96,5.78s.65,4.33,1.96,5.76c1.31,1.44,3.06,2.15,5.26,2.15s3.91-.72,5.22-2.17Zm-.72-24.75l-9.35,3.92v-4.58l9.35-4.5v5.16Z"/>
        <path class="cls-1" d="m308.22,97.18c1.16-2.11,2.79-3.75,4.87-4.93,2.08-1.18,4.44-1.76,7.08-1.76,3.23,0,6,.85,8.3,2.56,2.3,1.71,3.84,4.04,4.62,6.98h-7.29c-.54-1.14-1.31-2-2.31-2.6-1-.59-2.13-.89-3.39-.89-2.04,0-3.7.71-4.97,2.13-1.27,1.42-1.9,3.32-1.9,5.7s.63,4.28,1.9,5.7c1.27,1.42,2.92,2.13,4.97,2.13,1.27,0,2.4-.3,3.39-.89,1-.59,1.77-1.46,2.31-2.6h7.29c-.78,2.95-2.31,5.27-4.62,6.96-2.3,1.69-5.07,2.54-8.3,2.54-2.64,0-5-.59-7.08-1.77-2.08-1.18-3.71-2.81-4.87-4.91-1.16-2.09-1.75-4.49-1.75-7.18s.58-5.09,1.75-7.2Z"/>
        <path class="cls-1" d="m343.79,90.8v27.23h-6.63v-27.23h6.63Z"/>
        <path class="cls-1" d="m354.44,116.52c-2.13-1.19-3.83-2.85-5.08-4.99-1.25-2.13-1.88-4.53-1.88-7.2s.63-5.06,1.88-7.18c1.25-2.12,2.95-3.78,5.08-4.97,2.13-1.19,4.48-1.78,7.04-1.78s4.91.6,7.04,1.78c2.13,1.19,3.82,2.85,5.04,4.97,1.23,2.12,1.84,4.51,1.84,7.18s-.62,5.06-1.86,7.2-2.92,3.8-5.04,4.99c-2.12,1.19-4.46,1.78-7.02,1.78s-4.91-.59-7.04-1.78Zm12.26-6.44c1.31-1.45,1.96-3.36,1.96-5.74s-.65-4.33-1.96-5.76-3.04-2.15-5.22-2.15-3.95.71-5.26,2.13c-1.31,1.42-1.96,3.35-1.96,5.78s.65,4.33,1.96,5.76c1.31,1.44,3.06,2.15,5.26,2.15s3.91-.72,5.22-2.17Z"/>
        <path class="cls-1" d="m383.59,117.34c-1.58-.65-2.84-1.6-3.78-2.87-.94-1.27-1.44-2.79-1.49-4.58h7.06c.1,1.01.45,1.78,1.05,2.31.59.53,1.37.8,2.33.8s1.76-.23,2.33-.68c.57-.45.85-1.08.85-1.88,0-.67-.23-1.23-.68-1.67-.45-.44-1.01-.8-1.67-1.09-.66-.29-1.6-.61-2.81-.97-1.76-.54-3.19-1.09-4.31-1.63-1.11-.54-2.07-1.34-2.87-2.41s-1.2-2.44-1.2-4.15c0-2.54.92-4.52,2.75-5.96s4.23-2.15,7.18-2.15,5.42.72,7.25,2.15c1.84,1.44,2.82,3.43,2.95,5.99h-7.18c-.05-.88-.38-1.57-.97-2.08-.6-.5-1.36-.76-2.29-.76-.8,0-1.45.21-1.94.64-.49.43-.74,1.04-.74,1.84,0,.88.41,1.56,1.24,2.06.83.49,2.12,1.02,3.88,1.59,1.76.59,3.19,1.16,4.29,1.71s2.05,1.33,2.85,2.37,1.2,2.37,1.2,4-.39,2.96-1.18,4.23c-.79,1.27-1.93,2.28-3.43,3.03s-3.27,1.12-5.31,1.12-3.78-.32-5.35-.97Z"/>
      </g>
      <g>
        <g id="frente">
          <path class="cls-1" d="m92.95,112.25c-.29.87-1.45,4.62-4.41,6.72-1.01.72-3.76,3.47-13.15.87-8.67-2.38-10.91-6.21-18.35-8.82-7.01-2.46-7.59-.87-15.97-2.89-5.2-1.23-17.7-4.34-27.17-14.45-3.47-3.69-9.97-11.63-8.09-17.7,1.37-4.48,6.07-6.65,6.72-6.94,10.26-4.55,26.88,4.05,33.6,11.92,1.08,1.3,4.84,6.07,11.27,9.18,1.16.58,8.09,2.67,16.55,4.12,16.4,2.89,21.17,11.13,19,17.99h0Z"/>
          <path class="cls-1" d="m82.33,121.5c-1.81,0-4.19-.29-7.15-1.16-4.84-1.37-7.73-3.18-10.55-4.91-2.31-1.45-4.55-2.82-7.8-3.97-3.76-1.3-5.56-1.45-7.88-1.66-1.95-.14-4.19-.29-8.02-1.23-4.84-1.16-17.7-4.26-27.46-14.67-3.9-4.05-10.19-11.92-8.24-18.14,1.37-4.48,5.71-6.72,7.08-7.3,10.69-4.77,27.46,3.97,34.25,12.14l.22.22c1.37,1.59,4.91,5.93,10.84,8.82.94.43,7.66,2.53,16.4,4.12,11.56,2.02,16.4,6.43,18.43,9.75,1.37,2.24,1.88,4.62,1.52,7.08l.22-.22-.65,2.17c-.94,3.18-2.6,5.56-4.62,7.01-.07.07-.14.07-.22.14-.94.58-2.6,1.81-6.36,1.81h0Zm-63.3-53.25c-2.24,0-4.41.36-6.29,1.23-1.16.51-5.2,2.6-6.43,6.58-1.73,5.64,4.19,13.15,7.95,17.13,9.54,10.19,22.11,13.15,26.88,14.31,3.76.87,5.93,1.08,7.88,1.23,2.31.14,4.26.29,8.17,1.66,3.4,1.23,5.78,2.67,8.02,4.05,2.89,1.73,5.56,3.47,10.26,4.77,8.45,2.38,11.2.29,12.43-.58.07-.07.22-.14.29-.22,1.66-1.16,3.03-3.18,3.97-5.71l.22-.65c.87-2.75.51-5.56-1.01-8.09-1.88-3.11-6.5-7.3-17.63-9.25-8.74-1.52-15.54-3.69-16.69-4.19-6.14-3.03-9.97-7.59-11.27-9.1l-.22-.22c-5.13-6.07-16.91-12.93-26.52-12.93h0Z"/>
        </g>
        <g id="frente-2">
          <path class="cls-1" d="m89.77,115.72c-.79.65-4.05,3.69-8.09,4.05-1.37.07-5.64,1.3-13.37-6.65-7.08-7.3-7.15-12.28-12.86-19.08-5.42-6.36-6.94-5.2-13.95-11.85-4.34-4.19-14.81-14.31-18.35-29.55-1.3-5.56-3.18-16.98,2.17-21.89,3.9-3.61,9.75-3.03,10.48-2.96,12.65,1.37,23.99,19.22,26.01,30.71.36,1.88,1.3,8.67,5.78,15.39.79,1.16,6.36,7.15,13.8,13.44,14.45,12.07,14.45,22.83,8.38,28.4h0Z"/>
          <path class="cls-1" d="m80.02,120.42c-2.24,0-6.21-.87-12.14-6.94-3.97-4.05-5.78-7.44-7.51-10.77-1.45-2.75-2.82-5.35-5.42-8.31-2.89-3.4-4.62-4.55-6.72-6.07-1.81-1.23-3.9-2.67-7.15-5.78-4.05-3.9-14.89-14.23-18.5-29.84-1.45-6.29-3.03-17.49,2.38-22.47,4.12-3.83,10.26-3.18,10.98-3.11,12.86,1.37,24.5,19.73,26.52,31.22l.07.36c.43,2.31,1.45,8.53,5.64,14.81.65,1.01,6,6.86,13.66,13.3,10.12,8.53,12.36,15.54,12.43,19.94.07,3.69-1.3,6.94-4.05,9.39l-.94.87v-.07c-2.53,2.02-4.99,3.18-7.44,3.32-.07,0-.22,0-.29.07-.51.07-.94.07-1.52.07h0ZM34.2,28.22c-2.1,0-5.78.36-8.53,2.89-4.99,4.55-3.4,15.32-2.02,21.32,3.54,15.32,14.16,25.43,18.14,29.26,3.18,3.03,5.2,4.41,7.01,5.64,2.17,1.45,3.97,2.75,7.01,6.29,2.6,3.11,4.12,5.85,5.56,8.53,1.73,3.18,3.47,6.5,7.37,10.48,6.94,7.15,10.98,6.65,12.5,6.5.14,0,.29,0,.36-.07,2.53-.22,5.13-1.52,7.73-3.83l.36-.29c2.24-2.17,3.4-5.06,3.32-8.24-.07-4.12-2.24-10.84-11.99-19.08-7.66-6.43-13.08-12.36-13.87-13.58-4.34-6.43-5.42-12.86-5.78-15.25l-.14-.22c-1.95-11.13-13.15-28.9-25.51-30.28-.14,0-.72-.07-1.52-.07h0Zm55.57,87.5l.36.43-.36-.43Z"/>
        </g>
        <g id="frente-3">
          <path class="cls-1" d="m85.07,119.77c-1.16.22-5.93,1.08-9.9-1.08-1.37-.72-6-2.17-8.45-14.09-2.24-10.98.65-15.61-.65-25.36-1.23-9.18-3.4-8.89-5.93-19.29-1.59-6.5-5.27-22.11.51-38.37,2.1-5.93,7.15-17.63,15.03-19.08,5.78-1.01,10.84,2.96,11.56,3.47,10.91,8.74,10.84,32.08,5.93,44-.79,1.95-3.97,8.82-3.76,17.7,0,1.59,1.66,10.41,4.84,20.67,6.14,19.87-.22,29.91-9.18,31.43h0Z"/>
          <path class="cls-1" d="m81.39,120.63c-3.03,0-5.2-.72-6.58-1.45-.07-.07-.22-.07-.29-.14-1.81-.87-6.07-2.96-8.45-14.31-1.3-6.14-.94-10.33-.58-14.45.22-3.25.51-6.65-.07-10.98-.65-4.91-1.52-7.01-2.67-9.68-.94-2.24-2.02-4.77-3.18-9.61-1.45-6-5.35-22.04.58-38.66,2.38-6.65,7.51-17.99,15.46-19.44,5.71-1.01,10.62,2.53,11.99,3.61,11.13,8.96,11.06,32.8,6.07,44.66l-.14.36c-1.01,2.38-3.76,8.82-3.54,17.13.07,1.59,1.73,10.55,4.84,20.52,4.34,13.87,2.24,21.75-.29,25.87-2.1,3.47-5.35,5.64-9.25,6.29l-.29.07h0c-1.37.14-2.53.22-3.61.22h0Zm3.69-.87l.07.58-.07-.58ZM77.63,2.93c-.58,0-1.23.07-1.88.14-7.3,1.3-12.28,12.28-14.52,18.71-5.78,16.33-1.95,32.08-.51,38.01,1.16,4.7,2.24,7.23,3.18,9.39,1.16,2.67,2.1,4.91,2.75,9.97.58,4.41.29,7.88.07,11.2-.29,3.97-.65,8.17.58,14.09,2.24,10.77,6.29,12.72,7.8,13.51.14.07.29.14.36.22,1.73.94,4.77,1.88,9.54,1.01l.29-.07h0c3.47-.65,6.29-2.6,8.17-5.71,2.38-3.9,4.41-11.42.14-24.86-3.32-10.55-4.84-19.29-4.84-20.81-.14-8.53,2.75-15.32,3.69-17.63l.14-.36c4.84-11.56,4.99-34.68-5.71-43.28-1.16-.87-4.84-3.54-9.25-3.54h0Z"/>
        </g>
      </g>
      <g>
        <g id="frente-2" data-name="frente">
          <path class="cls-2" d="m90.27,109.02c-.22.89-1.1,4.72-3.9,7.03-.96.8-3.49,3.74-13.05,1.84-8.82-1.74-11.34-5.39-18.95-7.44-7.17-1.93-7.63-.3-16.14-1.7-5.28-.84-17.97-3.02-28.16-12.41-3.73-3.42-10.8-10.87-9.38-17.06,1.04-4.57,5.56-7.08,6.19-7.41,9.9-5.3,27.11,2.05,34.39,9.41,1.18,1.22,5.28,5.7,11.92,8.32,1.2.49,8.27,2.07,16.81,2.89,16.57,1.67,21.94,9.53,20.28,16.54h0Z"/>
        </g>
        <g id="frente-2-2" data-name="frente-2">
          <path class="cls-3" d="m87.36,112.72c-.74.71-3.76,3.97-7.77,4.63-1.36.17-5.52,1.71-13.82-5.64-7.6-6.76-8.04-11.72-14.24-18.07-5.87-5.94-7.3-4.68-14.78-10.79-4.63-3.86-15.83-13.17-20.49-28.12-1.71-5.45-4.42-16.7.55-21.99,3.62-3.89,9.5-3.75,10.23-3.73,12.71.44,25.34,17.4,28.21,28.7.5,1.85,1.94,8.55,6.9,14.92.88,1.09,6.87,6.66,14.76,12.38,15.3,10.97,16.1,21.7,10.46,27.7h0Z"/>
        </g>
        <g id="frente-3-2" data-name="frente-3">
          <path class="cls-4" d="m82.97,117.1c-1.14.3-5.83,1.52-9.95-.35-1.42-.62-6.14-1.72-9.47-13.43-3.04-10.79-.5-15.61-2.52-25.25-1.9-9.06-4.04-8.61-7.33-18.8-2.07-6.37-6.89-21.66-2.33-38.3,1.65-6.06,5.83-18.11,13.58-20.13,5.69-1.44,11.03,2.15,11.79,2.61,11.53,7.91,13.18,31.19,9.16,43.45-.65,2-3.31,9.08-2.44,17.93.12,1.59,2.43,10.25,6.35,20.25,7.59,19.36,1.99,29.85-6.83,32.02h0Z"/>
        </g>
      </g>
      <g>
        <path class="cls-6" d="m479.89,57.99L420.29,1.8c-2.95-2.78-7.99-.81-7.99,3.12v34.69h-74.93c-2.59,0-4.68,1.98-4.68,4.41v34.17c0,2.44,2.1,4.41,4.68,4.41h74.93v34.69c0,3.93,5.04,5.9,7.99,3.12l59.6-56.19c1.83-1.72,1.83-4.52,0-6.24Z"/>
        <path class="cls-5" d="m469.37,57.52L415.34,1.79c-2.67-2.76-7.25-.8-7.25,3.1v34.41h-67.92c-2.34,0-4.25,1.96-4.25,4.38v33.88c0,2.42,1.9,4.38,4.25,4.38h67.92v34.41c0,3.9,4.57,5.85,7.25,3.1l54.03-55.73c1.66-1.71,1.66-4.48,0-6.19Z"/>
        <path class="cls-1" d="m473.62,58.44l-54.03-54.03c-2.67-2.67-7.25-.78-7.25,3v33.36h-67.92c-2.34,0-4.25,1.9-4.25,4.25v32.85c0,2.34,1.9,4.25,4.25,4.25h67.92v33.36c0,3.78,4.57,5.68,7.25,3l54.03-54.03c1.66-1.66,1.66-4.35,0-6Z"/>
      </g>
    </g>
  </g>
</svg>