<?xml version="1.0" encoding="UTF-8"?>
<svg id="Layer_2" data-name="Layer 2" xmlns="http://www.w3.org/2000/svg" viewBox="0 0 328.31 103.31">
  <defs>
    <style>
      .cls-1, .cls-2 {
        fill: #fff;
      }

      .cls-3 {
        fill: #11e9de;
      }

      .cls-3, .cls-4, .cls-2, .cls-5 {
        stroke: #fff;
        stroke-miterlimit: 10;
      }

      .cls-6, .cls-5 {
        fill: #45f063;
      }

      .cls-4 {
        fill: #0986bf;
      }
    </style>
  </defs>
  <g id="Layer_1-2" data-name="Layer 1">
    <g>
      <g>
        <g>
          <path class="cls-1" d="m102.59,45.39c-.67,1.17-1.65,2.1-2.95,2.79-1.3.69-2.88,1.03-4.72,1.03h-2.84v7.25h-7.16v-22.82h9.99c2.79,0,4.94.71,6.43,2.13,1.49,1.42,2.24,3.32,2.24,5.71,0,1.44-.33,2.75-1,3.92Zm-6.25-3.92c0-1.4-.74-2.1-2.22-2.1h-2.03v4.19h2.03c1.48,0,2.22-.7,2.22-2.1Z"/>
          <path class="cls-1" d="m120.48,53.01h-7.61l-1.13,3.45h-7.51l8.35-22.82h8.25l8.32,22.82h-7.54l-1.13-3.45Zm-1.74-5.38l-2.06-6.35-2.06,6.35h4.13Z"/>
          <path class="cls-1" d="m137.92,51.05h6.9v5.42h-14.06v-22.82h7.16v17.41Z"/>
          <path class="cls-1" d="m174.51,33.64v22.82h-7.12v-11.38l-3.51,11.38h-6.12l-3.51-11.38v11.38h-7.16v-22.82h8.77l5.03,13.7,4.9-13.7h8.74Z"/>
          <path class="cls-1" d="m184.89,33.64v22.82h-7.16v-22.82h7.16Z"/>
          <path class="cls-1" d="m195.27,51.05h6.9v5.42h-14.05v-22.82h7.16v17.41Z"/>
          <path class="cls-1" d="m225.54,33.64v22.82h-7.16v-8.9h-6.8v8.9h-7.16v-22.82h7.16v8.22h6.8v-8.22h7.16Z"/>
          <path class="cls-1" d="m243.4,53.01h-7.61l-1.13,3.45h-7.51l8.35-22.82h8.25l8.32,22.82h-7.54l-1.13-3.45Zm-1.74-5.38l-2.06-6.35-2.06,6.35h4.13Z"/>
          <path class="cls-1" d="m255.86,54.77c-1.77-1.28-2.74-3.15-2.89-5.63h7.61c.11,1.31.69,1.97,1.74,1.97.39,0,.71-.09.98-.27.27-.18.4-.47.4-.85,0-.54-.29-.97-.87-1.31-.58-.33-1.48-.71-2.71-1.14-1.46-.52-2.67-1.02-3.63-1.52-.96-.49-1.78-1.21-2.47-2.16-.69-.95-1.02-2.16-1-3.64,0-1.48.38-2.75,1.14-3.79.76-1.04,1.81-1.83,3.13-2.37,1.32-.54,2.81-.81,4.46-.81,2.79,0,5.01.64,6.66,1.93,1.64,1.29,2.51,3.11,2.59,5.45h-7.7c-.02-.65-.18-1.11-.48-1.39s-.67-.42-1.1-.42c-.3,0-.55.1-.74.31-.19.2-.29.49-.29.85,0,.52.28.94.85,1.27.57.33,1.48.74,2.72,1.21,1.44.54,2.63,1.05,3.56,1.55.93.49,1.75,1.18,2.43,2.06.69.88,1.03,1.99,1.03,3.32,0,1.4-.34,2.65-1.03,3.76-.69,1.11-1.69,1.97-3,2.6-1.31.62-2.87.93-4.67.93-2.73,0-4.98-.64-6.75-1.92Z"/>
          <path class="cls-6" d="m102.85,72.32v5.67h-6.06v17.15h-7.16v-17.15h-6v-5.67h19.21Z"/>
          <path class="cls-6" d="m111.94,78.03v2.8h7.09v5.38h-7.09v3.22h8.06v5.71h-15.22v-22.82h15.22v5.71h-8.06Z"/>
          <path class="cls-6" d="m134.18,95.15l-4.29-8.19h-.03v8.19h-7.16v-22.82h10.64c1.85,0,3.43.33,4.74.98,1.31.66,2.29,1.55,2.95,2.68.66,1.13.98,2.4.98,3.82,0,1.53-.42,2.88-1.27,4.06-.85,1.18-2.07,2.03-3.66,2.55l4.96,8.74h-7.87Zm-4.32-12.96h2.84c.69,0,1.2-.16,1.55-.47.34-.31.52-.8.52-1.47,0-.6-.18-1.07-.53-1.42-.35-.34-.87-.52-1.53-.52h-2.84v3.87Z"/>
          <path class="cls-6" d="m158.94,91.7h-7.61l-1.13,3.45h-7.51l8.35-22.82h8.25l8.32,22.82h-7.54l-1.13-3.45Zm-1.74-5.38l-2.06-6.35-2.06,6.35h4.13Z"/>
          <path class="cls-6" d="m186.89,84.07c-.67,1.17-1.65,2.1-2.95,2.79-1.3.69-2.88,1.03-4.72,1.03h-2.84v7.25h-7.16v-22.82h9.99c2.79,0,4.94.71,6.43,2.13,1.49,1.42,2.24,3.32,2.24,5.71,0,1.44-.33,2.75-1,3.92Zm-6.25-3.92c0-1.4-.74-2.1-2.22-2.1h-2.03v4.19h2.03c1.48,0,2.22-.7,2.22-2.1Z"/>
          <path class="cls-6" d="m197.3,78.03v2.8h7.09v5.38h-7.09v3.22h8.06v5.71h-15.21v-22.82h15.21v5.71h-8.06Zm.32-9.54l-5.35,2.51v-4.64l5.35-2.42,5.32,2.42v4.64l-5.32-2.51Z"/>
          <path class="cls-6" d="m215.07,72.32v12.86c0,1.05.23,1.89.69,2.5.46.61,1.21.92,2.24.92s1.79-.31,2.29-.92c.49-.61.74-1.44.74-2.5v-12.86h7.12v12.86c0,2.17-.45,4.02-1.35,5.56-.9,1.54-2.14,2.69-3.71,3.47-1.57.77-3.32,1.16-5.25,1.16s-3.65-.39-5.14-1.16c-1.49-.77-2.66-1.92-3.5-3.45-.84-1.53-1.26-3.38-1.26-5.58v-12.86h7.12Z"/>
          <path class="cls-6" d="m249.17,72.32v5.67h-6.06v17.15h-7.16v-17.15h-6v-5.67h19.21Z"/>
          <path class="cls-6" d="m258.26,72.32v22.82h-7.16v-22.82h7.16Z"/>
          <path class="cls-6" d="m262.21,77.67c.91-1.76,2.22-3.13,3.92-4.11,1.7-.98,3.7-1.47,6-1.47,1.98,0,3.74.37,5.3,1.11,1.56.74,2.83,1.79,3.8,3.14.98,1.35,1.63,2.93,1.95,4.74h-7.54c-.34-.75-.83-1.34-1.47-1.76-.63-.42-1.36-.63-2.18-.63-1.2,0-2.16.45-2.85,1.35-.7.9-1.05,2.12-1.05,3.64s.35,2.74,1.05,3.64c.7.9,1.65,1.35,2.85,1.35.82,0,1.54-.21,2.18-.63.63-.42,1.12-1,1.47-1.76h7.54c-.32,1.81-.97,3.38-1.95,4.74-.98,1.35-2.25,2.4-3.8,3.14-1.56.74-3.33,1.11-5.3,1.11-2.3,0-4.3-.49-6-1.47-1.7-.98-3-2.35-3.92-4.11-.91-1.76-1.37-3.77-1.37-6.03s.46-4.27,1.37-6.03Z"/>
          <path class="cls-6" d="m300.4,91.7h-7.61l-1.13,3.45h-7.51l8.35-22.82h8.25l8.32,22.82h-7.54l-1.13-3.45Zm-1.74-5.38l-2.06-6.35-2.06,6.35h4.13Z"/>
          <path class="cls-6" d="m312.86,93.45c-1.77-1.28-2.74-3.15-2.89-5.63h7.61c.11,1.31.69,1.97,1.74,1.97.39,0,.71-.09.98-.27.27-.18.4-.47.4-.85,0-.54-.29-.97-.87-1.31-.58-.33-1.48-.71-2.71-1.14-1.46-.52-2.67-1.02-3.63-1.52-.96-.49-1.78-1.21-2.47-2.16-.69-.95-1.02-2.16-1-3.64,0-1.48.38-2.75,1.14-3.79.76-1.04,1.81-1.83,3.13-2.37,1.32-.54,2.81-.81,4.46-.81,2.79,0,5.01.64,6.66,1.93,1.64,1.29,2.51,3.11,2.59,5.45h-7.7c-.02-.65-.18-1.11-.48-1.39s-.67-.42-1.1-.42c-.3,0-.55.1-.74.31-.19.2-.29.49-.29.85,0,.52.28.94.85,1.27.57.33,1.48.74,2.72,1.21,1.44.54,2.63,1.05,3.56,1.55.93.49,1.75,1.18,2.43,2.06.69.88,1.03,1.99,1.03,3.32,0,1.4-.34,2.65-1.03,3.76-.69,1.11-1.69,1.97-3,2.6-1.31.62-2.87.93-4.67.93-2.73,0-4.98-.64-6.75-1.92Z"/>
        </g>
        <path class="cls-6" d="m158.23,25.73h-73.24v-12.8h73.24v12.8Zm-72.73-.51h72.22v-11.78h-72.22v11.78Z"/>
      </g>
      <g>
        <path class="cls-6" d="m90.47,16.6v5.72h-.75v-5.72h.75Z"/>
        <path class="cls-6" d="m97.54,16.64v5.68h-.75v-4.23l-1.89,4.23h-.53l-1.9-4.24v4.24h-.75v-5.68h.8l2.1,4.69,2.1-4.69h.8Z"/>
        <path class="cls-6" d="m99.55,17.2v1.91h2.08v.62h-2.08v1.97h2.33v.62h-3.08v-5.73h3.08v.62h-2.33Z"/>
        <path class="cls-6" d="m106.03,22.32l-1.36-2.34h-.9v2.34h-.75v-5.72h1.85c.43,0,.8.07,1.1.22.3.15.52.35.67.6s.22.54.22.86c0,.39-.11.74-.34,1.04s-.57.5-1.02.6l1.44,2.4h-.89Zm-2.27-2.94h1.1c.4,0,.71-.1.91-.3.2-.2.3-.47.3-.8s-.1-.6-.3-.79c-.2-.19-.5-.28-.92-.28h-1.1v2.17Z"/>
        <path class="cls-6" d="m108.81,22.17c-.3-.13-.53-.32-.7-.56-.17-.24-.26-.51-.26-.82h.8c.03.27.14.49.33.68.19.18.48.28.85.28s.64-.09.84-.27c.21-.18.31-.41.31-.69,0-.22-.06-.4-.18-.53-.12-.14-.27-.24-.45-.31-.18-.07-.42-.15-.73-.23-.38-.1-.68-.2-.91-.3s-.42-.25-.58-.46c-.16-.21-.24-.49-.24-.85,0-.31.08-.59.24-.83.16-.24.38-.43.67-.56s.62-.2.99-.2c.54,0,.98.13,1.32.4.34.27.53.62.58,1.07h-.82c-.03-.22-.14-.41-.34-.58-.2-.17-.47-.25-.8-.25-.31,0-.57.08-.76.24-.2.16-.3.39-.3.68,0,.21.06.38.18.51.12.13.26.23.43.3.17.07.41.15.73.23.38.1.68.21.91.31.23.1.43.26.59.47s.25.5.25.86c0,.28-.07.54-.22.79-.15.25-.37.45-.66.6-.29.15-.63.23-1.03.23s-.72-.07-1.01-.2Z"/>
        <path class="cls-6" d="m116.2,21.04h-2.49l-.46,1.27h-.79l2.07-5.69h.86l2.06,5.69h-.79l-.46-1.27Zm-2.18-5.54c.15-.15.33-.22.55-.22.1,0,.19.02.27.05.07.04.16.09.27.15.08.05.15.1.21.13.06.03.13.05.2.05.09,0,.17-.03.24-.09s.11-.15.12-.26h.43c-.03.27-.12.48-.27.63-.15.15-.33.22-.55.22-.1,0-.2-.02-.27-.05-.08-.04-.17-.09-.27-.16-.09-.05-.16-.1-.21-.12-.05-.03-.11-.04-.18-.04-.09,0-.17.03-.23.09-.06.06-.1.15-.12.27h-.43c.04-.28.13-.49.27-.64Zm1.97,4.93l-1.03-2.89-1.03,2.89h2.07Z"/>
        <path class="cls-6" d="m119.5,22c-.44-.25-.78-.6-1.04-1.04-.25-.45-.38-.95-.38-1.51s.13-1.06.38-1.51c.25-.45.6-.79,1.04-1.04.44-.25.92-.37,1.45-.37s1.02.12,1.46.37c.44.25.78.59,1.03,1.04.25.44.38.95.38,1.51s-.13,1.07-.38,1.51c-.25.44-.6.79-1.03,1.04s-.92.37-1.46.37-1.01-.12-1.45-.37Zm2.53-.55c.32-.19.57-.45.76-.8.18-.34.27-.74.27-1.2s-.09-.86-.27-1.2c-.18-.34-.43-.61-.75-.79-.32-.19-.68-.28-1.08-.28s-.77.09-1.08.28c-.32.19-.57.45-.75.79-.18.34-.27.74-.27,1.2s.09.85.27,1.2c.18.34.44.61.76.8.32.19.68.28,1.08.28s.76-.09,1.08-.28Z"/>
        <path class="cls-6" d="m128.14,22c-.44-.25-.78-.6-1.04-1.04-.25-.45-.38-.95-.38-1.51s.13-1.06.38-1.51c.25-.45.6-.79,1.04-1.04.44-.25.92-.37,1.45-.37s1.02.12,1.46.37c.44.25.78.59,1.03,1.04.25.44.38.95.38,1.51s-.13,1.07-.38,1.51c-.25.44-.6.79-1.03,1.04s-.92.37-1.46.37-1.01-.12-1.45-.37Zm2.53-.55c.32-.19.57-.45.76-.8.18-.34.27-.74.27-1.2s-.09-.86-.27-1.2c-.18-.34-.43-.61-.75-.79-.32-.19-.68-.28-1.08-.28s-.77.09-1.08.28c-.32.19-.57.45-.75.79-.18.34-.27.74-.27,1.2s.09.85.27,1.2c.18.34.44.61.76.8.32.19.68.28,1.08.28s.76-.09,1.08-.28Z"/>
        <path class="cls-6" d="m137.94,22.32h-.75l-3-4.55v4.55h-.75v-5.73h.75l3,4.55v-4.55h.75v5.73Z"/>
        <path class="cls-6" d="m139.96,21.71h2v.61h-2.75v-5.72h.75v5.11Z"/>
        <path class="cls-6" d="m143.51,16.6v5.72h-.75v-5.72h.75Z"/>
        <path class="cls-6" d="m149.28,22.32h-.75l-3-4.55v4.55h-.75v-5.73h.75l3,4.55v-4.55h.75v5.73Z"/>
        <path class="cls-6" d="m151.3,17.2v1.91h2.08v.62h-2.08v1.97h2.33v.62h-3.08v-5.73h3.08v.62h-2.33Z"/>
      </g>
      <g>
        <g>
          <g id="frente">
            <path class="cls-2" d="m72.69,95.63c-.24.72-1.18,3.82-3.62,5.55-.83.6-3.09,2.87-10.84.74-7.15-1.95-9.01-5.1-15.15-7.23-5.78-2.01-6.26-.7-13.17-2.35-4.29-1-14.6-3.54-22.43-11.86-2.87-3.03-8.24-9.57-6.71-14.58,1.12-3.7,4.99-5.49,5.53-5.73,8.45-3.77,22.17,3.28,27.73,9.77.9,1.07,4,5,9.31,7.54.95.47,6.68,2.19,13.65,3.36,13.53,2.35,17.48,9.13,15.7,14.8h0Z"/>
          </g>
          <g id="frente-2">
            <path class="cls-2" d="m70.08,98.5c-.65.54-3.33,3.05-6.66,3.35-1.13.06-4.64,1.08-11.03-5.46-5.85-6-5.92-10.11-10.64-15.7-4.48-5.23-5.73-4.28-11.52-9.74-3.58-3.45-12.24-11.77-15.19-24.33-1.08-4.58-2.65-13.99,1.75-18.06,3.21-2.99,8.04-2.52,8.63-2.46,10.43,1.11,19.82,15.8,21.51,25.27.3,1.55,1.09,7.15,4.8,12.68.66.95,5.26,5.89,11.4,11.05,11.94,9.92,11.96,18.8,6.97,23.4h0Z"/>
          </g>
          <g id="frente-3">
            <path class="cls-2" d="m66.21,101.84c-.95.18-4.88.91-8.16-.87-1.13-.59-4.95-1.78-7-11.6-1.87-9.05.51-12.87-.59-20.91-1.03-7.56-2.82-7.32-4.92-15.9-1.32-5.36-4.39-18.22.34-31.64,1.72-4.89,5.86-14.55,12.36-15.76,4.76-.85,8.94,2.42,9.54,2.84,9.01,7.19,9,26.43,4.97,36.27-.65,1.61-3.26,7.28-3.06,14.6,0,1.31,1.39,8.58,4.03,17.03,5.1,16.37-.12,24.66-7.51,25.93h0Z"/>
          </g>
        </g>
        <g>
          <g id="frente-2" data-name="frente">
            <path class="cls-3" d="m73.04,91.1c-.24.72-1.18,3.82-3.62,5.55-.83.6-3.09,2.87-10.84.74-7.15-1.95-9.01-5.1-15.15-7.23-5.78-2.01-6.26-.7-13.17-2.35-4.29-1-14.6-3.54-22.43-11.86-2.87-3.03-8.24-9.57-6.71-14.58,1.12-3.7,4.99-5.49,5.53-5.73,8.45-3.77,22.17,3.28,27.73,9.77.9,1.07,4,5,9.31,7.54.95.47,6.68,2.19,13.65,3.36,13.53,2.35,17.48,9.13,15.7,14.8h0Z"/>
          </g>
          <g id="frente-2-2" data-name="frente-2">
            <path class="cls-4" d="m70.43,93.97c-.65.54-3.33,3.05-6.66,3.35-1.13.06-4.64,1.08-11.03-5.46-5.85-6-5.92-10.11-10.64-15.7-4.48-5.23-5.73-4.28-11.52-9.74-3.58-3.45-12.24-11.77-15.19-24.33-1.08-4.58-2.65-13.99,1.75-18.06,3.21-2.99,8.04-2.52,8.63-2.46,10.43,1.11,19.82,15.8,21.51,25.27.3,1.55,1.09,7.15,4.8,12.68.66.95,5.26,5.89,11.4,11.05,11.94,9.92,11.96,18.8,6.97,23.4h0Z"/>
          </g>
          <g id="frente-3-2" data-name="frente-3">
            <path class="cls-5" d="m66.56,97.31c-.95.18-4.88.91-8.16-.87-1.13-.59-4.95-1.78-7-11.6-1.87-9.05.51-12.87-.59-20.91-1.03-7.56-2.82-7.32-4.92-15.9-1.32-5.36-4.39-18.22.34-31.64,1.72-4.89,5.86-14.55,12.36-15.76,4.76-.85,8.94,2.42,9.54,2.84,9.01,7.19,9,26.43,4.97,36.27-.65,1.61-3.26,7.28-3.06,14.6,0,1.31,1.39,8.58,4.03,17.03,5.1,16.37-.12,24.66-7.51,25.93h0Z"/>
          </g>
        </g>
      </g>
    </g>
  </g>
</svg>