<?xml version="1.0" encoding="UTF-8"?>
<svg id="Layer_2" data-name="Layer 2" xmlns="http://www.w3.org/2000/svg" viewBox="0 0 217.07 194.29">
  <defs>
    <style>
      .cls-1 {
        fill: none;
        stroke: #33475b;
        stroke-miterlimit: 10;
        stroke-width: 12px;
      }

      .cls-2 {
        fill: #33475b;
      }
    </style>
  </defs>
  <g id="Layer_3" data-name="Layer 3">
    <g>
      <circle class="cls-1" cx="108.54" cy="97.15" r="91.15"/>
      <g>
        <path class="cls-2" d="m216.26,1.25l-104.45,35.97c-.23,0-.23,0,0,0l32.69,21.52-58.52,69.08c-10.18-8.6-25.64-21.66-27.89-23.56l-4.13,4.89L0,164.31l58.09-40.35c8.32,9.84,24.78,29.32,27.9,33.02l8.57-7.24,74.41-66.53,10.06,30.37c.49,1.81,3.02,1.9,3.63.12L217.04,1.25c.16,0-.3,0-.78,0Z"/>
        <path class="cls-2" d="m216.26,1.17l-104.45,35.98c-.23,0-.23,0,0,0l32.69,12.88-58.52,69.08c-10.18-8.6-25.64-21.66-27.89-23.56l-4.13,4.89L0,164.31l58.09-49.08c8.32,9.84,24.78,29.32,27.9,33.02l8.57-7.24,74.41-66.53,10.06,30.37c.49,1.81,3.02,1.9,3.63.12L217.04,1.17c.16,0-.3,0-.78,0Z"/>
        <path class="cls-2" d="m216.26,1.08l-104.45,35.99c-.23,0-.23,0,0,0l32.69,4.23-58.52,69.08c-10.18-8.6-25.64-21.66-27.89-23.56l-4.13,4.89L0,164.31l58.09-57.8c8.32,9.84,24.78,29.32,27.9,33.02l8.57-7.24,74.41-66.53,10.06,30.37c.49,1.81,3.02,1.9,3.63.12L217.04,1.08c.16,0-.3,0-.78,0Z"/>
      </g>
    </g>
  </g>
</svg>