<svg xmlns="http://www.w3.org/2000/svg"
     x="0px" y="0px" viewBox="0 0 303.4 69.9" overflow="visible" xml:space="preserve">
<g>
	<path fill="#58A5F7" d="M76.7,19.2C76,20.4,75,21.3,73.8,22c-1.3,0.7-2.9,1-4.7,1h-2.8v7.2h-7.2V7.4h10c2.8,0,4.9,0.7,6.4,2.1
		s2.2,3.3,2.2,5.7C77.7,16.7,77.3,18,76.7,19.2C76.7,19.2,76.7,19.2,76.7,19.2z M70.4,15.3c0-1.4-0.7-2.1-2.2-2.1h-2v4.2h2
		C69.7,17.4,70.4,16.7,70.4,15.3L70.4,15.3z"/>
    <path fill="#58A5F7" d="M91.1,26.8h-7.6l-1.1,3.5h-7.5l8.3-22.8h8.2l8.3,22.8h-7.5C92.2,30.3,91.1,26.8,91.1,26.8z M89.3,21.4
		l-2.1-6.3l-2.1,6.3H89.3z"/>
    <path fill="#58A5F7" d="M108.5,24.8h6.9v5.4h-14.1V7.5h7.2V24.8C108.5,24.8,108.5,24.8,108.5,24.8z"/>
    <path fill="#58A5F7" d="M145.1,7.4v22.8H138V18.9l-3.5,11.4h-6.1l-3.5-11.4v11.4h-7.2V7.4h8.8l5,13.7l4.9-13.7L145.1,7.4L145.1,7.4
		z"/>
    <path fill="#58A5F7" d="M155.5,7.4v22.8h-7.2V7.4H155.5z"/>
    <path fill="#58A5F7" d="M165.9,24.8h6.9v5.4h-14.1V7.5h7.2L165.9,24.8L165.9,24.8L165.9,24.8z"/>
    <path fill="#58A5F7" d="M196.1,7.4v22.8h-7.2v-8.9h-6.8v8.9h-7.2V7.4h7.2v8.2h6.8V7.4H196.1z"/>
    <path fill="#58A5F7" d="M214,26.8h-7.6l-1.1,3.5h-7.5l8.4-22.8h8.2l8.3,22.8h-7.5L214,26.8L214,26.8L214,26.8z M212.3,21.4
		l-2.1-6.3l-2.1,6.3H212.3L212.3,21.4z"/>
    <path fill="#58A5F7" d="M226.5,28.6c-1.8-1.3-2.7-3.2-2.9-5.6h7.6c0.1,1.3,0.7,2,1.7,2c0.4,0,0.7-0.1,1-0.3s0.4-0.5,0.4-0.8
		c0-0.5-0.3-1-0.9-1.3s-1.5-0.7-2.7-1.1c-1.5-0.5-2.7-1-3.6-1.5c-1-0.5-1.8-1.2-2.5-2.2s-1-2.2-1-3.6c0-1.5,0.4-2.8,1.1-3.8
		s1.8-1.8,3.1-2.4c1.3-0.5,2.8-0.8,4.5-0.8c2.8,0,5,0.6,6.7,1.9c1.6,1.3,2.5,3.1,2.6,5.5h-7.7c0-0.7-0.2-1.1-0.5-1.4
		s-0.7-0.4-1.1-0.4c-0.3,0-0.5,0.1-0.7,0.3s-0.3,0.5-0.3,0.8c0,0.5,0.3,0.9,0.9,1.3s1.5,0.7,2.7,1.2c1.4,0.5,2.6,1,3.6,1.5
		c0.9,0.5,1.8,1.2,2.4,2.1c0.7,0.9,1,2,1,3.3c0,1.4-0.3,2.7-1,3.8s-1.7,2-3,2.6s-2.9,0.9-4.7,0.9C230.4,30.5,228.2,29.8,226.5,28.6
		L226.5,28.6L226.5,28.6z"/>
</g>
    <g>
	<path fill="#11E9DE" d="M77.9,39.5v5.7h-6.1v17.2h-7.2V45.2h-6v-5.7C58.6,39.5,77.9,39.5,77.9,39.5z"/>
        <path fill="#11E9DE" d="M87,45.2V48h7.1v5.4H87v3.2h8.1v5.7H79.9V39.5h15.2v5.7C95.1,45.2,87,45.2,87,45.2z"/>
        <path fill="#11E9DE" d="M109.3,62.4l-4.3-8.2l0,0v8.2h-7.2V39.5h10.6c1.9,0,3.4,0.3,4.7,1s2.3,1.6,2.9,2.7s1,2.4,1,3.8
		c0,1.5-0.4,2.9-1.3,4.1s-2.1,2-3.7,2.6l5,8.7C117,62.4,109.3,62.4,109.3,62.4z M105,49.4h2.8c0.7,0,1.2-0.2,1.6-0.5
		c0.3-0.3,0.5-0.8,0.5-1.5c0-0.6-0.2-1.1-0.5-1.4c-0.4-0.3-0.9-0.5-1.5-0.5h-2.8L105,49.4L105,49.4z"/>
        <path fill="#11E9DE" d="M134,58.9h-7.6l-1.1,3.4h-7.5l8.4-22.8h8.2l8.3,22.8h-7.5L134,58.9L134,58.9L134,58.9z M132.3,53.5
		l-2.1-6.3l-2.1,6.3H132.3L132.3,53.5z"/>
        <path fill="#11E9DE" d="M162,51.3c-0.7,1.2-1.6,2.1-2.9,2.8s-2.9,1-4.7,1h-2.8v7.2h-7.2V39.5h10c2.8,0,4.9,0.7,6.4,2.1
		s2.2,3.3,2.2,5.7C163,48.8,162.7,50.1,162,51.3L162,51.3z M155.7,47.4c0-1.4-0.7-2.1-2.2-2.1h-2v4.2h2
		C155,49.4,155.7,48.7,155.7,47.4C155.7,47.4,155.7,47.4,155.7,47.4z"/>
        <path fill="#11E9DE" d="M172.4,45.2V48h7.1v5.4h-7.1v3.2h8.1v5.7h-15.2V39.5h15.2v5.7C180.5,45.2,172.4,45.2,172.4,45.2z
		 M172.7,35.7l-5.4,2.5v-4.6l5.4-2.4l5.3,2.4v4.6L172.7,35.7z"/>
        <path fill="#11E9DE" d="M190.2,39.5v12.9c0,1.1,0.2,1.9,0.7,2.5s1.2,0.9,2.2,0.9s1.8-0.3,2.3-0.9s0.7-1.4,0.7-2.5V39.5h7.1v12.9
		c0,2.2-0.4,4-1.4,5.6c-0.9,1.5-2.1,2.7-3.7,3.5c-1.6,0.8-3.3,1.2-5.2,1.2s-3.6-0.4-5.1-1.2s-2.7-1.9-3.5-3.4s-1.3-3.4-1.3-5.6v-13
		C183,39.5,190.2,39.5,190.2,39.5z"/>
        <path fill="#11E9DE" d="M224.3,39.5v5.7h-6.1v17.2H211V45.2h-6v-5.7H224.3z"/>
        <path fill="#11E9DE" d="M233.4,39.5v22.8h-7.2V39.5H233.4z"/>
        <path fill="#11E9DE" d="M237.3,44.9c0.9-1.8,2.2-3.1,3.9-4.1s3.7-1.5,6-1.5c2,0,3.7,0.4,5.3,1.1s2.8,1.8,3.8,3.1
		c1,1.3,1.6,2.9,2,4.7h-7.5c-0.3-0.8-0.8-1.3-1.5-1.8c-0.6-0.4-1.4-0.6-2.2-0.6c-1.2,0-2.2,0.4-2.9,1.3c-0.7,0.9-1,2.1-1,3.6
		s0.4,2.7,1,3.6c0.7,0.9,1.6,1.3,2.9,1.3c0.8,0,1.5-0.2,2.2-0.6c0.6-0.4,1.1-1,1.5-1.8h7.5c-0.3,1.8-1,3.4-2,4.7s-2.2,2.4-3.8,3.1
		c-1.6,0.7-3.3,1.1-5.3,1.1c-2.3,0-4.3-0.5-6-1.5s-3-2.3-3.9-4.1s-1.4-3.8-1.4-6S236.4,46.6,237.3,44.9L237.3,44.9L237.3,44.9z"/>
        <path fill="#11E9DE" d="M275.5,58.9h-7.6l-1.1,3.4h-7.5l8.4-22.8h8.2l8.3,22.8h-7.5L275.5,58.9L275.5,58.9z M273.8,53.5l-2.1-6.3
		l-2.1,6.3H273.8z"/>
        <path fill="#11E9DE" d="M288,60.6c-1.8-1.3-2.7-3.2-2.9-5.6h7.6c0.1,1.3,0.7,2,1.7,2c0.4,0,0.7-0.1,1-0.3s0.4-0.5,0.4-0.8
		c0-0.5-0.3-1-0.9-1.3s-1.5-0.7-2.7-1.1c-1.5-0.5-2.7-1-3.6-1.5c-1-0.5-1.8-1.2-2.5-2.2c-0.7-0.9-1-2.2-1-3.6c0-1.5,0.4-2.8,1.1-3.8
		s1.8-1.8,3.1-2.4s2.8-0.8,4.5-0.8c2.8,0,5,0.6,6.7,1.9c1.6,1.3,2.5,3.1,2.6,5.4h-7.7c0-0.7-0.2-1.1-0.5-1.4s-0.7-0.4-1.1-0.4
		c-0.3,0-0.5,0.1-0.7,0.3s-0.3,0.5-0.3,0.8c0,0.5,0.3,0.9,0.9,1.3c0.6,0.3,1.5,0.7,2.7,1.2c1.4,0.5,2.6,1.1,3.6,1.6
		c0.9,0.5,1.8,1.2,2.4,2.1c0.7,0.9,1,2,1,3.3c0,1.4-0.3,2.7-1,3.8s-1.7,2-3,2.6s-2.9,0.9-4.7,0.9C291.9,62.6,289.7,61.9,288,60.6
		L288,60.6z"/>
</g>
    <g>
	<path fill="#11E9DE" stroke="#FFFFFF" stroke-miterlimit="10" d="M49.2,61.5c-0.1,0.5-0.8,2.6-2.4,3.8c-0.5,0.4-2.1,1.9-7.3,0.5
		c-4.8-1.3-6-3.4-10.2-4.8c-3.9-1.3-4.2-0.5-8.9-1.5c-2.9-0.7-9.8-2.3-15.1-8c-2-2-5.5-6.5-4.5-9.8c0.7-2.5,3.4-3.7,3.7-3.8
		c5.7-2.6,14.9,2.2,18.6,6.6c0.6,0.7,2.7,3.4,6.3,5c0.7,0.3,4.5,1.5,9.2,2.3C47.8,53.2,50.4,57.7,49.2,61.5L49.2,61.5L49.2,61.5z"/>
        <path fill="#0986BF" stroke="#FFFFFF" stroke-miterlimit="10" d="M47.4,63.4c-0.5,0.3-2.2,2.1-4.5,2.2c-0.7,0.1-3.1,0.7-7.4-3.7
		c-3.9-4-4-6.8-7.1-10.6c-3-3.5-3.8-2.9-7.7-6.5c-2.4-2.3-8.3-7.9-10.2-16.4c-0.7-3.1-1.8-9.4,1.2-12.2c2.2-2,5.4-1.7,5.8-1.7
		c7,0.7,13.3,10.6,14.5,17c0.2,1,0.7,4.8,3.2,8.5c0.5,0.7,3.6,4,7.7,7.5C50.8,54.3,50.8,60.3,47.4,63.4L47.4,63.4L47.4,63.4z"/>
        <path fill="#58A5F7" stroke="#FFFFFF" stroke-miterlimit="10" d="M44.9,65.7c-0.6,0.1-3.3,0.6-5.5-0.6c-0.7-0.4-3.4-1.2-4.7-7.8
		c-1.3-6.1,0.3-8.7-0.4-14.1c-0.7-5.1-1.9-4.9-3.3-10.7c-0.9-3.6-3-12.2,0.2-21.3c1.2-3.3,4-9.8,8.3-10.6c3.2-0.6,6,1.6,6.4,1.9
		c6,4.8,6,17.8,3.4,24.4c-0.5,1.1-2.2,4.9-2.1,9.8c0,0.9,0.9,5.8,2.7,11.4C53.3,59.2,49.8,64.8,44.9,65.7L44.9,65.7L44.9,65.7z"/>
</g>
</svg>
