<?xml version="1.0" encoding="utf-8"?>
<!-- Generator: Adobe Illustrator 27.2.0, SVG Export Plug-In . SVG Version: 6.00 Build 0)  -->
<svg version="1.1" id="Layer_1" xmlns="http://www.w3.org/2000/svg" xmlns:xlink="http://www.w3.org/1999/xlink" x="0px" y="0px"
	 viewBox="0 0 418 509.2" style="enable-background:new 0 0 418 509.2;" xml:space="preserve">
<style type="text/css">
	.st0{fill:url(#SVGID_1_);}
	.st1{clip-path:url(#SVGID_00000159471257139334007360000010626639735375418296_);}
	.st2{fill:url(#SVGID_00000082338195202484107100000009310362621067609733_);}
	.st3{fill:url(#SVGID_00000088813794517297926540000014679002647213387652_);}
	.st4{fill:url(#SVGID_00000160898249688294156570000017752986237048146319_);}
	.st5{fill:url(#SVGID_00000003788263891965455220000017006005637172393615_);}
	.st6{fill:url(#SVGID_00000053534239489016373900000011140600691653072568_);}
	.st7{fill:url(#SVGID_00000041273996641878933620000011065744887509687429_);}
	.st8{fill:#15233D;}
	.st9{clip-path:url(#SVGID_00000176759390500812505550000008013667721215203989_);}
	.st10{opacity:0.5;fill:url(#SVGID_00000044866535331286400600000002086901014260885635_);enable-background:new    ;}
	.st11{fill:url(#SVGID_00000088114350969431189890000018339650116204208016_);}
	.st12{fill:url(#SVGID_00000053541023898393505740000004100955931626909069_);}
	.st13{fill:url(#SVGID_00000172404301007355163660000012080546251252172187_);}
	.st14{fill:url(#SVGID_00000023266526421300344970000015606748665743056812_);}
	.st15{fill:url(#SVGID_00000075131616083439115190000018437414516182132880_);}
	.st16{fill:url(#SVGID_00000037679835342435286400000014423181724009781638_);}
	.st17{fill:url(#SVGID_00000150083085821722286430000000070088693107883687_);}
	.st18{fill:url(#SVGID_00000013905391446062004850000008930523029047921848_);}
	.st19{fill:url(#SVGID_00000054256424462106863390000010445051092868716426_);}
	.st20{fill:url(#SVGID_00000171682428423514097290000012758663055438131637_);}
	.st21{fill:url(#SVGID_00000142866683426113079050000002702647283736830891_);}
	.st22{fill:url(#SVGID_00000009571798245539573240000017452575978200511672_);}
	.st23{fill:url(#SVGID_00000094614756118406121140000015072308526093258174_);}
	.st24{fill:url(#SVGID_00000124865850162350519920000015853368530703389080_);}
	.st25{fill:url(#SVGID_00000067219946147774413600000012218150349855412616_);}
	.st26{fill:url(#SVGID_00000029009933665847146960000017211258963411019930_);}
	.st27{fill:url(#SVGID_00000122684435668078503850000013974885418282244226_);}
	.st28{fill:url(#SVGID_00000096052054329071158710000016844436658313828497_);}
	.st29{fill:url(#SVGID_00000049927641831658087620000001824414408815190185_);}
	.st30{fill:url(#SVGID_00000096018516932909137440000014382546266082983083_);}
	.st31{fill:url(#SVGID_00000083087617973765506310000012329592309749640368_);}
	.st32{fill:url(#SVGID_00000031205102717817436550000002277541228391565186_);}
	.st33{fill:#63BDBB;}
	.st34{fill:url(#SVGID_00000135657114114679444050000004527832170036197273_);}
	.st35{fill:url(#SVGID_00000150800443163582573760000018256361905435682189_);}
</style>
<g>
	
		<linearGradient id="SVGID_1_" gradientUnits="userSpaceOnUse" x1="209.02" y1="161.31" x2="209.02" y2="-8.69" gradientTransform="matrix(1 0 0 -1 0 510)">
		<stop  offset="0" style="stop-color:#BFBFBF"/>
		<stop  offset="0.8" style="stop-color:#676767"/>
	</linearGradient>
	<path class="st0" d="M285,504.6l-72.7-48.8c-2-1.3-4.5-1.3-6.5,0l-72.7,48.8c-3.9,2.6-9.1-0.2-9.1-4.8V346.5c0-3.2,2.6-5.8,5.8-5.8
		h158.4c3.2,0,5.8,2.6,5.8,5.8v153.3C294,504.5,288.8,507.2,285,504.6L285,504.6z"/>
	<g>
		<defs>
			<path id="SVGID_00000041294614066246593630000009051144078867274152_" d="M285,504.6l-72.7-48.8c-2-1.3-4.5-1.3-6.5,0l-72.7,48.8
				c-3.9,2.6-9.1-0.2-9.1-4.8V346.5c0-3.2,2.6-5.8,5.8-5.8h158.4c3.2,0,5.8,2.6,5.8,5.8v153.3C294,504.5,288.8,507.2,285,504.6
				L285,504.6z"/>
		</defs>
		<clipPath id="SVGID_00000126317246492279291730000004902497134576217486_">
			<use xlink:href="#SVGID_00000041294614066246593630000009051144078867274152_"  style="overflow:visible;"/>
		</clipPath>
		<g style="clip-path:url(#SVGID_00000126317246492279291730000004902497134576217486_);">
			
				<linearGradient id="SVGID_00000101084282606404601460000008395064489463350448_" gradientUnits="userSpaceOnUse" x1="143.51" y1="122.07" x2="143.51" y2="-51.62" gradientTransform="matrix(1 0 0 -1 0 510)">
				<stop  offset="0" style="stop-color:#BFBFBF"/>
				<stop  offset="0.8" style="stop-color:#676767"/>
			</linearGradient>
			
				<rect x="124" y="380.2" style="fill:url(#SVGID_00000101084282606404601460000008395064489463350448_);" width="39" height="129"/>
			
				<linearGradient id="SVGID_00000147911653039195328420000016720956382812010930_" gradientUnits="userSpaceOnUse" x1="274.51" y1="122.07" x2="274.51" y2="-51.62" gradientTransform="matrix(1 0 0 -1 0 510)">
				<stop  offset="0" style="stop-color:#BFBFBF"/>
				<stop  offset="0.8" style="stop-color:#676767"/>
			</linearGradient>
			
				<rect x="255" y="380.2" style="fill:url(#SVGID_00000147911653039195328420000016720956382812010930_);" width="39" height="129"/>
		</g>
	</g>
</g>
<g>
	
		<linearGradient id="SVGID_00000111875062254327933580000014744292646688343184_" gradientUnits="userSpaceOnUse" x1="0.9918" y1="301.8955" x2="417.0253" y2="301.8955" gradientTransform="matrix(1 0 0 -1 0 510)">
		<stop  offset="0" style="stop-color:#9BC1FF"/>
		<stop  offset="1" style="stop-color:#0777AB"/>
	</linearGradient>
	<path style="fill:url(#SVGID_00000111875062254327933580000014744292646688343184_);" d="M405.8,239.7c-3.8-8.1-3.1-17.6,2.3-24.7
		c6.5-8.4,9.9-19.2,8.7-30.5c-1.2-11.4-6.8-21.2-14.9-28.1c-6.8-5.8-9.4-15-7.4-23.7c2.4-10.2,1-21.2-4.6-30.9s-14.5-16.4-24.5-19.4
		c-8.7-2.7-15.2-9.8-16.9-18.8c-2-10.2-7.7-19.8-16.8-26.4s-19.9-9.1-30.2-7.8c-8.9,1.1-17.7-2.5-22.8-9.8
		c-6-8.8-15.2-15.3-26.4-17.7c-11.2-2.4-22.3-0.1-31.3,5.4c-7.4,4.6-16.9,4.6-24.3,0c-9-5.6-20.1-7.8-31.3-5.4
		c-11.2,2.4-20.4,8.9-26.4,17.7c-5,7.4-13.9,10.9-22.8,9.8c-10.3-1.3-21.2,1.2-30.2,7.8c-9.1,6.6-14.8,16.1-16.8,26.4
		c-1.7,8.9-8.2,16.1-16.9,18.8c-10,3-18.8,9.7-24.5,19.4s-7,20.8-4.6,30.9c2,8.7-0.6,17.9-7.4,23.7C8,163.2,2.4,173.1,1.2,184.4
		s2.2,22.2,8.7,30.5c5.5,7.1,6.1,16.6,2.3,24.7c-4.4,9.4-5.4,20.5-1.9,31.2s10.8,19.1,19.9,24.1c8,4.4,12.8,12.8,12.6,21.9
		c-0.2,10.4,3.4,20.9,10.9,29.3c7.5,8.4,17.6,13,28,13.9c9.1,0.8,16.9,6.5,20.4,14.8c4.1,9.6,11.6,17.7,21.9,22.3
		c10.3,4.6,21.4,4.8,31.2,1.4c8.4-2.9,17.9-1.3,24.3,4.9c7.6,7.3,18,11.8,29.5,11.8s21.8-4.5,29.5-11.8c6.4-6.2,15.9-7.8,24.3-4.9
		c9.9,3.4,21,3.2,31.2-1.4s17.8-12.7,21.9-22.3c3.5-8.4,11.4-14,20.4-14.8c10.4-0.9,20.5-5.6,28-13.9s11.1-18.9,10.9-29.3
		c-0.2-9.1,4.6-17.5,12.6-21.9c9.1-5,16.4-13.4,19.9-24.1C411.2,260.2,410.2,249.1,405.8,239.7L405.8,239.7z M259.3,319.3
		c-4.5,2-8.5,4.7-11.9,8c-6.4,6.1-15.9,8.1-24.2,5.1c-4.4-1.6-9.2-2.4-14.1-2.4s-9.7,0.9-14.1,2.4c-8.4,2.9-17.8,0.9-24.2-5.1
		c-3.4-3.2-7.4-5.9-11.9-8c-4.5-2-9.2-3.2-13.9-3.6c-8.8-0.7-16.6-6.4-20-14.5c-1.8-4.3-4.4-8.4-7.7-12.1s-7.1-6.7-11.3-8.9
		c-7.8-4.2-12.6-12.6-12.4-21.4c0.1-4.7-0.6-9.5-2.1-14.2c-1.5-4.7-3.8-9-6.7-12.7c-5.4-7-6.4-16.6-2.6-24.6c2-4.2,3.3-8.9,3.9-13.8
		c0.5-4.9,0.2-9.8-0.9-14.3c-2.1-8.6,0.9-17.8,7.7-23.5c3.6-3.1,6.7-6.8,9.2-11.1c2.5-4.3,4.1-8.9,5-13.5
		c1.6-8.7,8.1-15.9,16.6-18.4c4.5-1.3,8.8-3.5,12.9-6.4c4-2.9,7.4-6.4,10-10.3c5-7.3,13.8-11.2,22.6-10.1c4.7,0.6,9.5,0.4,14.3-0.6
		c4.9-1,9.3-2.8,13.3-5.3c7.6-4.6,17.2-4.6,24.7,0c4,2.4,8.5,4.3,13.3,5.3c4.9,1,9.7,1.2,14.3,0.6c8.8-1.1,17.6,2.8,22.6,10.1
		c2.7,3.9,6,7.3,10,10.3c4,2.9,8.4,5,12.9,6.4c8.5,2.5,14.9,9.7,16.6,18.4c0.9,4.6,2.5,9.2,5,13.5c2.5,4.3,5.6,8,9.2,11.1
		c6.7,5.8,9.7,14.9,7.6,23.5c-1.1,4.6-1.4,9.4-0.9,14.3c0.5,4.9,1.9,9.6,3.9,13.8c3.8,8,2.8,17.6-2.6,24.6c-2.9,3.7-5.1,8-6.7,12.7
		s-2.2,9.5-2.1,14.2c0.2,8.9-4.6,17.2-12.4,21.4c-4.1,2.2-7.9,5.2-11.3,8.9s-5.9,7.8-7.7,12.1c-3.4,8.2-11.2,13.8-20,14.5
		C268.6,316.1,263.9,317.3,259.3,319.3z"/>
	
		<linearGradient id="SVGID_00000033367524645535898020000006276438955964556184_" gradientUnits="userSpaceOnUse" x1="-2.128435e-03" y1="301.885" x2="418.0121" y2="301.885" gradientTransform="matrix(1 0 0 -1 0 510)">
		<stop  offset="0" style="stop-color:#D7E8F0"/>
		<stop  offset="1" style="stop-color:#00527C"/>
	</linearGradient>
	<path style="fill:url(#SVGID_00000033367524645535898020000006276438955964556184_);" d="M243.6,1c2.9,0,5.9,0.3,8.9,0.9
		c11.2,2.4,20.4,8.9,26.4,17.7c4.4,6.5,11.8,10,19.6,10c1,0,2.1-0.1,3.2-0.2c1.7-0.2,3.5-0.3,5.2-0.3c8.7,0,17.4,2.6,25,8.1
		c9.1,6.6,14.8,16.1,16.8,26.4c1.7,8.9,8.2,16.1,16.9,18.8c10,3,18.8,9.7,24.5,19.4s7,20.8,4.6,30.9c-2,8.7,0.6,17.9,7.4,23.7
		c8.1,6.8,13.6,16.7,14.9,28.1s-2.2,22.2-8.7,30.5c-5.5,7.1-6.1,16.6-2.3,24.7c4.4,9.4,5.4,20.5,1.9,31.2S397,289.9,387.8,295
		c-8,4.4-12.8,12.8-12.6,21.9c0.2,10.4-3.4,20.9-10.9,29.3c-7.5,8.4-17.6,13-28,13.9c-9.1,0.8-16.9,6.5-20.4,14.8
		c-4.1,9.6-11.6,17.7-21.9,22.3c-5.6,2.5-11.5,3.7-17.3,3.7c-4.8,0-9.5-0.8-13.9-2.3c-2.7-0.9-5.5-1.4-8.3-1.4
		c-5.9,0-11.6,2.1-16,6.3c-7.6,7.3-18,11.8-29.5,11.8s-21.8-4.5-29.5-11.8c-4.4-4.2-10.1-6.3-16-6.3c-2.8,0-5.6,0.5-8.3,1.4
		c-4.4,1.5-9.1,2.3-13.9,2.3c-5.8,0-11.7-1.2-17.3-3.7c-10.3-4.6-17.8-12.7-21.9-22.3c-3.6-8.4-11.3-14-20.4-14.8
		c-10.4-0.9-20.5-5.6-28-13.9s-11.1-18.9-10.9-29.3c0.2-9.1-4.7-17.5-12.6-21.9c-9.1-5-16.4-13.4-19.9-24.1
		c-3.5-10.7-2.5-21.8,1.9-31.2c3.8-8.1,3.1-17.6-2.3-24.7c-6.5-8.4-9.9-19.2-8.7-30.6s6.8-21.2,14.9-28.1c6.8-5.8,9.4-15,7.4-23.7
		c-2.4-10.2-1-21.2,4.6-30.9s14.5-16.4,24.5-19.4c8.7-2.7,15.2-9.8,16.9-18.8c2-10.2,7.7-19.8,16.8-26.4c7.6-5.5,16.3-8.1,25-8.1
		c1.8,0,3.5,0.1,5.2,0.3c1.1,0.1,2.1,0.2,3.2,0.2c7.8,0,15.2-3.5,19.6-10c6-8.8,15.2-15.3,26.4-17.7c3-0.6,6-0.9,8.9-0.9
		c8.1,0,15.8,2.3,22.4,6.4c3.7,2.3,7.9,3.4,12.2,3.4s8.4-1.1,12.2-3.4C227.8,3.3,235.5,1,243.6,1 M174.4,86.2
		c-1.8,0-3.6-0.1-5.4-0.3c-1-0.1-2-0.2-3-0.2c-7.7,0-15.1,3.8-19.6,10.3c-2.7,3.9-6,7.3-10,10.3c-4,2.9-8.4,5-12.9,6.4
		c-8.5,2.5-14.9,9.7-16.6,18.4c-0.9,4.6-2.5,9.2-5,13.5c-2.5,4.3-5.6,8-9.2,11.1c-6.7,5.8-9.7,14.9-7.7,23.5
		c1.1,4.6,1.4,9.4,0.9,14.3c-0.5,4.9-1.9,9.6-3.9,13.8c-3.8,8-2.8,17.6,2.6,24.6c2.8,3.7,5.1,8,6.7,12.7c1.5,4.7,2.2,9.5,2.1,14.2
		c-0.2,8.9,4.6,17.2,12.4,21.4c4.1,2.2,7.9,5.2,11.3,8.9s5.9,7.8,7.7,12.1c3.4,8.2,11.2,13.8,20,14.5c4.7,0.4,9.4,1.5,13.9,3.6
		s8.5,4.7,11.9,8c4.5,4.2,10.4,6.5,16.4,6.5c2.6,0,5.3-0.4,7.8-1.3c4.4-1.6,9.2-2.4,14.1-2.4s9.7,0.9,14.1,2.4
		c2.6,0.9,5.2,1.3,7.8,1.3c6,0,11.9-2.3,16.4-6.5c3.4-3.2,7.4-5.9,11.9-8c4.5-2,9.2-3.2,13.9-3.6c8.8-0.7,16.6-6.4,20-14.5
		c1.8-4.3,4.4-8.4,7.7-12.1s7.1-6.7,11.3-8.9c7.8-4.2,12.6-12.6,12.4-21.4c-0.1-4.7,0.5-9.5,2.1-14.2c1.5-4.7,3.8-9,6.7-12.7
		c5.4-7,6.4-16.6,2.6-24.6c-2-4.2-3.4-8.9-3.9-13.8c-0.5-4.9-0.2-9.8,0.9-14.3c2-8.6-0.9-17.8-7.6-23.5c-3.6-3.1-6.7-6.8-9.2-11.1
		c-2.5-4.3-4.1-8.9-5-13.5c-1.6-8.7-8.1-15.9-16.6-18.4c-4.5-1.3-8.9-3.5-12.9-6.4c-4-2.9-7.4-6.4-10-10.3
		c-4.5-6.4-11.9-10.3-19.6-10.3c-1,0-2,0.1-3,0.2c-1.8,0.2-3.6,0.3-5.4,0.3c-2.9,0-5.9-0.3-8.9-0.9c-4.9-1-9.3-2.8-13.3-5.3
		c-3.8-2.3-8.1-3.5-12.4-3.5s-8.6,1.2-12.4,3.5c-4,2.4-8.5,4.3-13.3,5.3C180.3,85.9,177.3,86.3,174.4,86.2 M243.6,0
		c-8.1,0-16,2.3-22.9,6.5c-3.5,2.2-7.5,3.3-11.6,3.3s-8.2-1.1-11.6-3.3C190.5,2.3,182.6,0,174.5,0c-3,0-6.1,0.3-9.1,1
		c-11,2.3-20.6,8.8-27,18.1c-4.1,6-11.1,9.6-18.8,9.6c-1,0-2-0.1-3-0.2c-1.8-0.2-3.6-0.3-5.4-0.3c-9.2,0-18.1,2.9-25.6,8.3
		c-9,6.5-15.1,16.1-17.2,27c-1.7,8.6-7.9,15.5-16.2,18c-10.6,3.2-19.5,10.3-25,19.9S20,122.2,22.5,133c2,8.6-0.7,17.3-7.1,22.7
		c-8.6,7.3-14,17.5-15.2,28.7s2,22.3,8.9,31.2c5.1,6.6,5.9,15.6,2.2,23.6c-4.7,10-5.4,21.4-2,31.9s10.7,19.3,20.4,24.7
		c7.6,4.2,12.3,12.2,12.1,21c-0.2,11.1,3.8,21.7,11.2,30s17.6,13.3,28.6,14.3c8.7,0.8,16.2,6.2,19.6,14.2
		c4.3,10.2,12.3,18.3,22.4,22.8c5.6,2.5,11.6,3.8,17.7,3.8c4.9,0,9.6-0.8,14.2-2.4c2.6-0.9,5.3-1.4,8-1.4c5.8,0,11.3,2.1,15.3,6
		c8.1,7.8,18.9,12.1,30.1,12.1s22-4.3,30.1-12.1c4-3.9,9.5-6,15.3-6c2.7,0,5.4,0.5,8,1.4c4.6,1.6,9.4,2.4,14.2,2.4
		c6.1,0,12.1-1.3,17.7-3.8c10.1-4.5,18.1-12.6,22.4-22.8c3.4-8,10.9-13.5,19.6-14.2c11-1,21.2-6,28.6-14.3
		c7.4-8.2,11.4-18.9,11.2-30c-0.2-8.7,4.5-16.8,12.1-21c9.7-5.4,16.9-14.1,20.4-24.7s2.7-21.9-2-31.9c-3.7-8-2.9-17.1,2.2-23.6
		c6.9-8.9,10.1-20,8.9-31.2s-6.6-21.4-15.2-28.7c-6.4-5.4-9-14.1-7.1-22.7c2.5-10.8,0.8-22-4.7-31.6c-5.5-9.6-14.4-16.7-25-19.9
		c-8.3-2.5-14.5-9.4-16.2-18c-2.1-10.9-8.2-20.5-17.2-27c-7.5-5.5-16.4-8.3-25.6-8.3c-1.8,0-3.6,0.1-5.4,0.3c-1,0.1-2,0.2-3,0.2
		c-7.7,0-14.7-3.6-18.8-9.6c-6.4-9.3-15.9-15.8-27-18.1C249.7,0.3,246.6,0,243.6,0L243.6,0z M174.4,87.3c3,0,6.1-0.3,9.1-1
		c4.9-1,9.4-2.9,13.7-5.4c3.6-2.2,7.6-3.3,11.9-3.3s8.3,1.2,11.9,3.3c4.2,2.6,8.8,4.4,13.7,5.4c3,0.6,6.1,1,9.1,1
		c1.9,0,3.7-0.1,5.6-0.4c0.9-0.1,1.9-0.2,2.9-0.2c7.5,0,14.5,3.7,18.8,9.8c2.8,4.1,6.2,7.6,10.3,10.5s8.5,5.1,13.2,6.5
		c8.1,2.4,14.3,9.3,15.9,17.6c0.9,4.8,2.6,9.5,5.1,13.8c2.5,4.3,5.6,8.1,9.4,11.3c6.4,5.5,9.3,14.3,7.3,22.5
		c-1.1,4.8-1.5,9.7-0.9,14.7c0.5,4.9,1.9,9.7,4,14.1c3.6,7.6,2.6,16.9-2.5,23.6c-3,3.9-5.3,8.3-6.8,13s-2.2,9.6-2.1,14.5
		c0.2,8.4-4.5,16.5-11.9,20.5c-4.3,2.4-8.2,5.4-11.5,9.1c-3.3,3.7-6,7.9-7.9,12.4c-3.2,7.8-10.8,13.2-19.2,13.9
		c-4.9,0.4-9.7,1.6-14.2,3.6c-4.5,2-8.6,4.8-12.2,8.1c-4.2,4-9.8,6.2-15.7,6.2c-2.6,0-5.1-0.4-7.5-1.3c-4.6-1.6-9.5-2.5-14.5-2.5
		s-9.8,0.8-14.5,2.5c-2.4,0.9-4.9,1.3-7.5,1.3c-5.9,0-11.4-2.2-15.7-6.2c-3.6-3.4-7.7-6.1-12.2-8.1c-4.5-2-9.3-3.2-14.2-3.6
		c-8.4-0.7-15.9-6.1-19.2-13.9c-1.9-4.5-4.5-8.7-7.9-12.4s-7.2-6.8-11.5-9.1c-7.4-4-12.1-12.1-11.8-20.5c0.1-4.9-0.6-9.8-2.1-14.5
		c-1.5-4.7-3.8-9.1-6.8-13c-5.1-6.7-6.1-15.9-2.5-23.6c2.1-4.4,3.4-9.2,4-14.1c0.5-4.9,0.2-9.9-0.9-14.7c-1.9-8.2,0.9-17.1,7.3-22.5
		c3.7-3.2,6.9-7,9.4-11.3c2.5-4.3,4.2-8.9,5.1-13.8c1.6-8.3,7.8-15.2,15.9-17.6c4.7-1.4,9.2-3.6,13.2-6.5s7.5-6.4,10.3-10.5
		c4.2-6.2,11.3-9.8,18.8-9.8c1,0,1.9,0.1,2.9,0.2C170.7,87.1,172.5,87.3,174.4,87.3L174.4,87.3L174.4,87.3z"/>
</g>
<g>
	
		<linearGradient id="SVGID_00000087395092408463646070000006539722209984298397_" gradientUnits="userSpaceOnUse" x1="27.16" y1="303.73" x2="390.86" y2="303.73" gradientTransform="matrix(1 0 0 -1 0 510)">
		<stop  offset="0" style="stop-color:#CCD0D3"/>
		<stop  offset="1" style="stop-color:#949494"/>
	</linearGradient>
	<circle style="fill:url(#SVGID_00000087395092408463646070000006539722209984298397_);" cx="209" cy="206.3" r="181.8"/>
	
		<linearGradient id="SVGID_00000152240400503297969060000008653471082814860960_" gradientUnits="userSpaceOnUse" x1="26.15" y1="303.73" x2="391.87" y2="303.73" gradientTransform="matrix(1 0 0 -1 0 510)">
		<stop  offset="0" style="stop-color:#F5F5F5"/>
		<stop  offset="1" style="stop-color:#5E5E5E"/>
	</linearGradient>
	<path style="fill:url(#SVGID_00000152240400503297969060000008653471082814860960_);" d="M209,24.4c100.4,0,181.8,81.4,181.8,181.9
		S309.4,388.1,209,388.1S27.2,306.7,27.2,206.3S108.6,24.4,209,24.4 M209,23.4c-24.7,0-48.6,4.8-71.2,14.4
		C116.1,47,96.5,60.2,79.7,77c-16.8,16.8-30,36.3-39.2,58.1c-9.5,22.5-14.4,46.5-14.4,71.2s4.8,48.6,14.4,71.2
		c9.2,21.8,22.4,41.3,39.2,58.1c16.8,16.8,36.3,30,58.1,39.2c22.5,9.5,46.5,14.4,71.2,14.4s48.6-4.8,71.2-14.4
		c21.8-9.2,41.3-22.4,58.1-39.2c16.8-16.8,30-36.4,39.2-58.1c9.5-22.5,14.4-46.5,14.4-71.2s-4.8-48.6-14.4-71.2
		c-9.2-21.8-22.4-41.3-39.2-58.1c-16.8-16.8-36.4-30-58.1-39.2C257.6,28.2,233.7,23.4,209,23.4L209,23.4L209,23.4z"/>
</g>
<path d="M209,31.9c-0.3,0-0.7,0-1,0c-0.3,0-0.5,0.2-0.5,0.5c0,0.3,0.2,0.5,0.5,0.5l0,0c0.1,0,0.3,0,0.4,0c0,0,0,0,0,0s0,0,0,0
	c0,0,0,0,0,0c0,0,0,0,0,0c0,0,0,0,0,0c0,0,0,0,0,0s0,0,0,0c0,0,0,0,0,0s0,0,0,0s0,0,0,0s0,0,0,0s0,0,0,0c0,0,0,0,0,0c0,0,0,0,0.1,0
	c0,0,0,0,0,0c0,0,0,0,0.1,0c0.3,0,0.5-0.2,0.5-0.5S209.3,31.9,209,31.9L209,31.9L209,31.9z M196,32.4C196,32.4,196,32.4,196,32.4
	c-0.4,0-0.7,0-1,0.1c-0.3,0-0.5,0.3-0.5,0.5c0,0.3,0.2,0.5,0.5,0.5c0,0,0,0,0,0c0.2,0,0.4,0,0.6,0l0,0c0,0,0,0,0.1,0c0,0,0,0,0,0
	s0,0,0,0c0,0,0,0,0.1,0l0,0c0.1,0,0.1,0,0.2,0c0.3,0,0.5-0.3,0.5-0.5C196.4,32.6,196.2,32.4,196,32.4L196,32.4L196,32.4z M183,33.8
	C183,33.8,183,33.8,183,33.8c-0.4,0-0.7,0.1-1.1,0.2c-0.3,0-0.5,0.3-0.4,0.6c0,0.2,0.2,0.4,0.5,0.4c0,0,0.1,0,0.1,0c0,0,0.1,0,0.1,0
	l0,0c0,0,0,0,0.1,0c0,0,0,0,0,0s0,0,0,0s0,0,0,0c0,0,0,0,0,0c0,0,0,0,0.1,0c0,0,0,0,0,0c0,0,0,0,0.1,0c0,0,0,0,0,0c0,0,0,0,0.1,0
	c0,0,0,0,0,0c0,0,0,0,0,0c0.1,0,0.1,0,0.1,0l0,0c0,0,0,0,0.1,0c0,0,0,0,0,0c0,0,0,0,0,0c0,0,0,0,0,0c0,0,0,0,0,0s0,0,0,0h0
	c0,0,0.1,0,0.1,0c0.3,0,0.5-0.3,0.4-0.6C183.4,34.1,183.2,33.9,183,33.8L183,33.8L183,33.8z M170.2,36.2c0,0-0.1,0-0.1,0
	c-0.3,0.1-0.6,0.2-1,0.2c-0.3,0.1-0.4,0.3-0.4,0.6c0.1,0.2,0.3,0.4,0.5,0.4c0,0,0.1,0,0.1,0c0.3-0.1,0.6-0.2,1-0.2
	c0.3-0.1,0.4-0.3,0.4-0.6C170.7,36.4,170.5,36.2,170.2,36.2L170.2,36.2L170.2,36.2z M157.6,39.6c0,0-0.1,0-0.1,0
	c-0.3,0.1-0.6,0.2-1,0.3c-0.3,0.1-0.4,0.4-0.3,0.6c0.1,0.2,0.3,0.3,0.5,0.3c0.1,0,0.1,0,0.1,0c0.1,0,0.3-0.1,0.4-0.1l0,0
	c0,0,0,0,0,0h0c0,0,0,0,0,0c0,0,0,0,0,0c0,0,0,0,0,0h0c0,0,0,0,0,0c0,0,0,0,0,0c0,0,0,0,0,0c0,0,0,0,0.1,0h0c0,0,0,0,0.1,0l0,0
	c0,0,0,0,0.1,0l0,0c0,0,0.1,0,0.1,0c0.3-0.1,0.4-0.4,0.3-0.6C158,39.8,157.8,39.6,157.6,39.6L157.6,39.6L157.6,39.6z M145.3,43.9
	c-0.1,0-0.1,0-0.2,0c-0.3,0.1-0.6,0.2-0.9,0.4c-0.3,0.1-0.4,0.4-0.3,0.7c0.1,0.2,0.3,0.3,0.5,0.3c0.1,0,0.1,0,0.2,0c0,0,0,0,0,0
	c0,0,0,0,0,0l0,0c0.3-0.1,0.6-0.2,0.9-0.3c0.3-0.1,0.4-0.4,0.3-0.7C145.7,44,145.5,43.9,145.3,43.9L145.3,43.9L145.3,43.9z
	 M133.4,49.1c-0.1,0-0.1,0-0.2,0c-0.3,0.2-0.6,0.3-0.9,0.4c-0.2,0.1-0.4,0.4-0.2,0.7c0.1,0.2,0.3,0.3,0.4,0.3c0.1,0,0.1,0,0.2,0
	c0.2-0.1,0.4-0.2,0.7-0.3c0,0,0,0,0,0l0,0c0.1,0,0.1-0.1,0.2-0.1c0.2-0.1,0.4-0.4,0.2-0.7C133.7,49.2,133.6,49.1,133.4,49.1
	L133.4,49.1L133.4,49.1z M121.9,55.2c-0.1,0-0.2,0-0.2,0.1c-0.3,0.2-0.6,0.3-0.9,0.5c-0.2,0.1-0.3,0.5-0.2,0.7
	c0.1,0.2,0.3,0.2,0.4,0.2c0.1,0,0.2,0,0.2-0.1c0.1-0.1,0.2-0.1,0.4-0.2l0,0c0,0,0,0,0.1,0l0,0c0,0,0,0,0.1,0l0,0c0,0,0,0,0.1,0l0,0
	c0.1-0.1,0.2-0.1,0.3-0.2c0.2-0.1,0.3-0.4,0.2-0.7C122.2,55.3,122,55.3,121.9,55.2L121.9,55.2L121.9,55.2z M110.9,62.2
	c-0.1,0-0.2,0-0.3,0.1c-0.3,0.2-0.6,0.4-0.8,0.6c-0.2,0.2-0.3,0.5-0.1,0.7c0.1,0.1,0.2,0.2,0.4,0.2c0.1,0,0.2,0,0.3-0.1
	c0.3-0.2,0.6-0.4,0.8-0.6c0.2-0.2,0.3-0.5,0.1-0.7C111.2,62.3,111,62.2,110.9,62.2L110.9,62.2L110.9,62.2z M100.4,70
	c-0.1,0-0.2,0-0.3,0.1c-0.3,0.2-0.5,0.4-0.8,0.6c-0.2,0.2-0.2,0.5-0.1,0.7c0.1,0.1,0.2,0.2,0.4,0.2c0.1,0,0.2,0,0.3-0.1
	c0,0,0.1,0,0.1-0.1c0,0,0,0,0,0l0,0c0.2-0.2,0.4-0.4,0.7-0.5c0.2-0.2,0.2-0.5,0.1-0.7C100.7,70,100.5,70,100.4,70L100.4,70L100.4,70
	z M90.5,78.5c-0.1,0-0.2,0-0.3,0.1c-0.2,0.2-0.5,0.5-0.7,0.7c-0.2,0.2-0.2,0.5,0,0.7c0.1,0.1,0.2,0.2,0.4,0.2c0.1,0,0.2,0,0.3-0.1
	c0,0,0.1-0.1,0.1-0.1c0.2-0.2,0.4-0.3,0.5-0.5h0c0,0,0,0,0,0c0,0,0,0,0,0l0,0c0.2-0.2,0.2-0.5,0-0.7C90.8,78.5,90.7,78.5,90.5,78.5
	L90.5,78.5L90.5,78.5z M81.3,87.7c-0.1,0-0.3,0.1-0.4,0.2c-0.2,0.2-0.4,0.5-0.7,0.7c-0.2,0.2-0.2,0.5,0,0.7c0.1,0.1,0.2,0.1,0.3,0.1
	c0.1,0,0.3-0.1,0.4-0.2c0.2-0.2,0.4-0.4,0.6-0.7c0,0,0,0,0,0c0,0,0,0,0,0c0,0,0,0,0,0c0.2-0.2,0.2-0.5,0-0.7
	C81.6,87.7,81.4,87.7,81.3,87.7L81.3,87.7z M72.8,97.6c-0.2,0-0.3,0.1-0.4,0.2c-0.2,0.3-0.4,0.5-0.6,0.8c-0.2,0.2-0.1,0.5,0.1,0.7
	c0.1,0.1,0.2,0.1,0.3,0.1c0.2,0,0.3-0.1,0.4-0.2c0,0,0-0.1,0.1-0.1c0.2-0.2,0.4-0.5,0.6-0.7c0.2-0.2,0.1-0.5-0.1-0.7
	C73.1,97.6,72.9,97.6,72.8,97.6C72.8,97.6,72.8,97.6,72.8,97.6z M65.1,108.1c-0.2,0-0.3,0.1-0.4,0.2c-0.2,0.3-0.4,0.6-0.6,0.8
	c-0.2,0.2-0.1,0.5,0.1,0.7c0.1,0.1,0.2,0.1,0.3,0.1c0.2,0,0.3-0.1,0.4-0.2c0.1-0.2,0.3-0.4,0.4-0.6l0,0c0,0,0,0,0,0
	c0-0.1,0.1-0.1,0.1-0.2c0.2-0.2,0.1-0.5-0.1-0.7C65.3,108.1,65.2,108.1,65.1,108.1L65.1,108.1L65.1,108.1z M58.2,119.1
	c-0.2,0-0.3,0.1-0.4,0.2c-0.2,0.3-0.3,0.6-0.5,0.9c-0.1,0.2,0,0.6,0.2,0.7c0.1,0,0.2,0.1,0.2,0.1c0.2,0,0.3-0.1,0.4-0.2
	c0-0.1,0.1-0.2,0.2-0.3c0,0,0,0,0,0c0,0,0,0,0,0c0.1-0.2,0.2-0.4,0.3-0.6c0.1-0.2,0.1-0.5-0.2-0.7C58.4,119.2,58.3,119.1,58.2,119.1
	L58.2,119.1L58.2,119.1z M52.1,130.7c-0.2,0-0.4,0.1-0.5,0.3c-0.1,0.3-0.3,0.6-0.4,0.9c-0.1,0.2,0,0.6,0.2,0.7
	c0.1,0,0.1,0.1,0.2,0.1c0.2,0,0.4-0.1,0.5-0.3c0,0,0,0,0-0.1v0c0,0,0,0,0,0c0.1-0.3,0.3-0.5,0.4-0.8c0.1-0.2,0-0.6-0.2-0.7
	C52.3,130.7,52.2,130.7,52.1,130.7L52.1,130.7z M46.9,142.6c-0.2,0-0.4,0.1-0.5,0.3c-0.1,0.3-0.2,0.6-0.4,0.9
	c-0.1,0.3,0,0.6,0.3,0.6c0.1,0,0.1,0,0.2,0c0.2,0,0.4-0.1,0.5-0.3c0.1-0.3,0.2-0.6,0.4-0.9c0.1-0.3,0-0.6-0.3-0.6
	C47.1,142.7,47,142.6,46.9,142.6L46.9,142.6L46.9,142.6z M42.7,155c-0.2,0-0.4,0.1-0.5,0.4c-0.1,0.3-0.2,0.6-0.3,1
	c-0.1,0.3,0.1,0.5,0.3,0.6c0,0,0.1,0,0.1,0c0.2,0,0.4-0.1,0.5-0.4c0-0.1,0.1-0.3,0.1-0.4l0,0c0,0,0,0,0-0.1c0,0,0,0,0,0v0
	c0,0,0,0,0,0l0,0c0-0.1,0.1-0.2,0.1-0.3c0,0,0,0,0,0l0,0c0,0,0-0.1,0-0.1c0.1-0.3-0.1-0.5-0.3-0.6C42.7,155,42.7,155,42.7,155
	L42.7,155L42.7,155z M39.3,167.6c-0.2,0-0.4,0.2-0.5,0.4c-0.1,0.3-0.2,0.6-0.2,1c-0.1,0.3,0.1,0.5,0.4,0.6c0,0,0.1,0,0.1,0
	c0.2,0,0.4-0.2,0.5-0.4c0-0.1,0-0.2,0.1-0.3v0c0,0,0,0,0,0c0,0,0,0,0-0.1l0,0c0-0.1,0.1-0.3,0.1-0.4c0,0,0,0,0,0l0,0
	c0,0,0-0.1,0-0.1C39.9,167.9,39.7,167.6,39.3,167.6C39.4,167.6,39.3,167.6,39.3,167.6L39.3,167.6L39.3,167.6z M37,180.4
	c-0.2,0-0.5,0.2-0.5,0.4c0,0.3-0.1,0.7-0.1,1c0,0.3,0.2,0.5,0.4,0.6c0,0,0,0,0.1,0c0.2,0,0.5-0.2,0.5-0.4c0-0.1,0-0.1,0-0.2
	c0,0,0,0,0,0c0,0,0,0,0-0.1v0c0,0,0,0,0,0v0c0,0,0,0,0,0c0,0,0,0,0,0c0,0,0,0,0-0.1l0,0c0-0.2,0-0.4,0.1-0.5
	C37.5,180.7,37.3,180.4,37,180.4C37,180.4,37,180.4,37,180.4L37,180.4L37,180.4z M35.6,193.3c-0.3,0-0.5,0.2-0.5,0.5
	c0,0.3,0,0.7-0.1,1c0,0.3,0.2,0.5,0.5,0.5c0,0,0,0,0,0c0.3,0,0.5-0.2,0.5-0.5c0-0.1,0-0.2,0-0.4l0,0c0,0,0,0,0-0.1v0c0,0,0,0,0,0
	c0-0.2,0-0.4,0-0.6C36.1,193.6,35.9,193.3,35.6,193.3C35.6,193.3,35.6,193.3,35.6,193.3L35.6,193.3L35.6,193.3z M35.1,206.4
	L35.1,206.4c-0.3,0-0.5,0.2-0.5,0.5c0,0.3,0,0.7,0,1c0,0.3,0.2,0.5,0.5,0.5l0,0c0.3,0,0.5-0.2,0.5-0.5c0-0.3,0-0.7,0-1
	C35.6,206.6,35.4,206.4,35.1,206.4L35.1,206.4L35.1,206.4z M35.7,219.4C35.7,219.4,35.6,219.4,35.7,219.4c-0.3,0-0.5,0.3-0.5,0.5
	c0,0.3,0,0.7,0.1,1c0,0.3,0.2,0.5,0.5,0.5c0,0,0,0,0,0c0.3,0,0.5-0.3,0.5-0.5c0-0.3,0-0.7-0.1-1C36.1,219.6,35.9,219.4,35.7,219.4
	L35.7,219.4z M37.1,232.3C37.1,232.3,37.1,232.3,37.1,232.3c-0.4,0-0.5,0.3-0.5,0.6c0,0.3,0.1,0.7,0.2,1c0,0.2,0.2,0.4,0.5,0.4
	c0,0,0,0,0.1,0c0.3,0,0.5-0.3,0.4-0.6c0-0.3-0.1-0.7-0.2-1C37.6,232.5,37.4,232.3,37.1,232.3L37.1,232.3L37.1,232.3z M39.6,245.1
	c0,0-0.1,0-0.1,0c-0.3,0.1-0.4,0.3-0.4,0.6c0.1,0.3,0.2,0.6,0.2,1c0,0.2,0.3,0.4,0.5,0.4c0,0,0.1,0,0.1,0c0.3-0.1,0.4-0.3,0.4-0.6
	c-0.1-0.3-0.2-0.6-0.2-1C40.1,245.3,39.8,245.1,39.6,245.1L39.6,245.1L39.6,245.1z M43,257.7c0,0-0.1,0-0.2,0
	c-0.3,0.1-0.4,0.4-0.3,0.6c0.1,0.3,0.2,0.6,0.3,1c0.1,0.2,0.3,0.4,0.5,0.4c0,0,0.1,0,0.2,0c0.3-0.1,0.4-0.4,0.3-0.6
	c0-0.1-0.1-0.2-0.1-0.3l0,0c0,0,0,0,0-0.1c0,0,0,0,0,0c0,0,0,0,0,0c0,0,0,0,0,0c0,0,0,0,0,0c0,0,0,0,0,0c0,0,0,0,0,0c0,0,0,0,0,0
	c0,0,0,0,0,0c0,0,0,0,0,0c0,0,0,0,0,0c0,0,0,0,0,0v0c0,0,0,0,0,0c0,0,0,0,0,0c0,0,0,0,0,0c0,0,0-0.1,0-0.1
	C43.5,257.9,43.3,257.7,43,257.7L43,257.7L43,257.7z M47.4,270c-0.1,0-0.1,0-0.2,0c-0.3,0.1-0.4,0.4-0.3,0.6
	c0.1,0.3,0.2,0.6,0.4,0.9c0.1,0.2,0.3,0.3,0.5,0.3c0.1,0,0.1,0,0.2,0c0.3-0.1,0.4-0.4,0.3-0.6v0c0,0,0,0,0,0
	c-0.1-0.3-0.2-0.6-0.3-0.9C47.8,270.1,47.6,270,47.4,270L47.4,270L47.4,270z M52.7,281.9c-0.1,0-0.2,0-0.2,0
	c-0.2,0.1-0.3,0.4-0.2,0.7c0.2,0.3,0.3,0.6,0.4,0.9c0.1,0.2,0.3,0.3,0.5,0.3c0.1,0,0.2,0,0.2,0c0.2-0.1,0.3-0.4,0.2-0.7
	c0,0,0-0.1,0-0.1c0,0,0,0,0,0c0,0,0,0,0,0s0,0,0,0l0,0c-0.1-0.2-0.2-0.5-0.3-0.7C53,282,52.9,281.9,52.7,281.9L52.7,281.9
	L52.7,281.9z M58.8,293.4c-0.1,0-0.2,0-0.2,0.1c-0.2,0.1-0.3,0.5-0.2,0.7c0.2,0.3,0.3,0.6,0.5,0.9c0.1,0.2,0.3,0.2,0.4,0.2
	c0.1,0,0.2,0,0.2-0.1c0.2-0.1,0.3-0.4,0.2-0.7c-0.1-0.2-0.2-0.4-0.4-0.6c0,0,0,0,0,0l0,0c0-0.1-0.1-0.1-0.1-0.2
	C59.2,293.5,59,293.4,58.8,293.4L58.8,293.4L58.8,293.4z M65.8,304.4c-0.1,0-0.2,0-0.3,0.1c-0.2,0.2-0.3,0.5-0.1,0.7
	c0.2,0.3,0.4,0.5,0.6,0.8c0.1,0.1,0.2,0.2,0.4,0.2c0.1,0,0.2,0,0.3-0.1c0.2-0.2,0.3-0.5,0.1-0.7c-0.2-0.2-0.3-0.5-0.5-0.7l0,0
	c0,0,0,0,0,0c0,0,0,0,0,0c0,0,0,0,0,0C66.1,304.5,66,304.4,65.8,304.4L65.8,304.4L65.8,304.4z M73.6,314.8c-0.1,0-0.2,0-0.3,0.1
	c-0.2,0.2-0.2,0.5-0.1,0.7c0.2,0.3,0.4,0.5,0.6,0.8c0.1,0.1,0.2,0.2,0.4,0.2c0.1,0,0.2,0,0.3-0.1c0.2-0.2,0.2-0.5,0.1-0.7
	c0,0,0,0-0.1-0.1l0,0c0,0,0,0,0,0s0,0,0,0l0,0c-0.1-0.1-0.1-0.1-0.2-0.2l0,0c0,0,0,0,0,0c0,0,0,0,0,0c0,0,0,0,0,0c0,0,0,0,0,0
	c0,0,0,0,0,0c-0.1-0.1-0.1-0.2-0.2-0.2c0,0,0,0,0,0c0,0,0,0,0,0c0,0,0,0,0,0C73.9,314.9,73.8,314.8,73.6,314.8L73.6,314.8
	L73.6,314.8z M82.2,324.7c-0.1,0-0.2,0-0.3,0.1c-0.2,0.2-0.2,0.5,0,0.7c0.2,0.2,0.5,0.5,0.7,0.7c0.1,0.1,0.2,0.2,0.4,0.2
	c0.1,0,0.2,0,0.3-0.1c0.2-0.2,0.2-0.5,0-0.7c-0.2-0.2-0.4-0.4-0.6-0.6l0,0c0,0,0,0,0,0c0,0,0,0,0,0c0,0,0,0,0,0c0,0,0,0,0,0l0,0
	C82.4,324.7,82.3,324.7,82.2,324.7L82.2,324.7L82.2,324.7z M91.4,333.8c-0.1,0-0.3,0-0.4,0.2c-0.2,0.2-0.2,0.5,0,0.7
	c0.2,0.2,0.5,0.5,0.7,0.7c0.1,0.1,0.2,0.1,0.3,0.1c0.1,0,0.3-0.1,0.4-0.2c0.2-0.2,0.2-0.5,0-0.7c-0.1-0.1-0.3-0.2-0.4-0.4
	c0,0,0,0,0,0l0,0c-0.1-0.1-0.2-0.2-0.3-0.3C91.7,333.9,91.5,333.9,91.4,333.8L91.4,333.8L91.4,333.8z M101.3,342.3
	c-0.2,0-0.3,0.1-0.4,0.2c-0.2,0.2-0.1,0.5,0.1,0.7c0.3,0.2,0.5,0.4,0.8,0.6c0.1,0.1,0.2,0.1,0.3,0.1c0.2,0,0.3-0.1,0.4-0.2
	c0.2-0.2,0.1-0.5-0.1-0.7c-0.3-0.2-0.5-0.4-0.8-0.6C101.6,342.3,101.4,342.3,101.3,342.3L101.3,342.3L101.3,342.3z M111.9,350
	c-0.2,0-0.3,0.1-0.4,0.2c-0.2,0.2-0.1,0.5,0.1,0.7c0.3,0.2,0.6,0.4,0.8,0.6c0.1,0.1,0.2,0.1,0.3,0.1c0.2,0,0.3-0.1,0.4-0.2
	c0.2-0.2,0.1-0.5-0.1-0.7c-0.3-0.2-0.5-0.4-0.8-0.5l0,0c0,0,0,0,0,0C112.1,350,112,350,111.9,350L111.9,350L111.9,350z M122.9,356.9
	c-0.2,0-0.3,0.1-0.4,0.2c-0.1,0.2-0.1,0.5,0.2,0.7c0.3,0.2,0.6,0.3,0.9,0.5c0.1,0,0.2,0.1,0.2,0.1c0.2,0,0.3-0.1,0.4-0.2
	c0.1-0.2,0.1-0.5-0.2-0.7c-0.2-0.1-0.3-0.2-0.5-0.3l0,0c0,0,0,0,0,0c-0.1-0.1-0.2-0.1-0.3-0.2C123.1,356.9,123,356.9,122.9,356.9
	L122.9,356.9L122.9,356.9z M134.5,362.9c-0.2,0-0.4,0.1-0.4,0.3c-0.1,0.2,0,0.5,0.2,0.7c0.3,0.1,0.6,0.3,0.9,0.4c0.1,0,0.1,0,0.2,0
	c0.2,0,0.4-0.1,0.4-0.3c0.1-0.2,0-0.5-0.2-0.7c-0.2-0.1-0.4-0.2-0.6-0.3c0,0,0,0,0,0c0,0,0,0,0,0s0,0-0.1,0l0,0c0,0-0.1,0-0.1,0l0,0
	c0,0,0,0,0,0c0,0,0,0,0,0c0,0,0,0,0,0c0,0,0,0,0,0C134.6,363,134.6,362.9,134.5,362.9L134.5,362.9L134.5,362.9z M146.5,368
	c-0.2,0-0.4,0.1-0.5,0.3c-0.1,0.3,0,0.5,0.3,0.6c0.3,0.1,0.6,0.2,0.9,0.4c0.1,0,0.1,0,0.2,0c0.2,0,0.4-0.1,0.5-0.3
	c0.1-0.3,0-0.5-0.3-0.6c-0.1,0-0.1,0-0.2-0.1l0,0c0,0,0,0,0,0c-0.2-0.1-0.5-0.2-0.7-0.3C146.6,368.1,146.5,368.1,146.5,368
	L146.5,368L146.5,368z M158.8,372.3c-0.2,0-0.4,0.1-0.5,0.4c-0.1,0.3,0.1,0.5,0.3,0.6c0.3,0.1,0.6,0.2,1,0.3c0.1,0,0.1,0,0.1,0
	c0.2,0,0.4-0.1,0.5-0.4c0.1-0.3-0.1-0.5-0.3-0.6c-0.2-0.1-0.5-0.1-0.7-0.2l0,0c0,0,0,0,0,0c-0.1,0-0.1,0-0.2-0.1
	C158.9,372.3,158.8,372.3,158.8,372.3L158.8,372.3L158.8,372.3z M171.4,375.6c-0.2,0-0.4,0.2-0.5,0.4c-0.1,0.3,0.1,0.5,0.4,0.6
	c0.3,0.1,0.6,0.1,1,0.2c0,0,0.1,0,0.1,0c0.2,0,0.4-0.2,0.5-0.4c0.1-0.3-0.1-0.5-0.4-0.6c-0.3-0.1-0.6-0.1-1-0.2
	C171.5,375.6,171.4,375.6,171.4,375.6L171.4,375.6L171.4,375.6z M184.2,377.9c-0.2,0-0.5,0.2-0.5,0.4c0,0.3,0.1,0.5,0.4,0.6
	c0.3,0,0.7,0.1,1,0.1c0,0,0.1,0,0.1,0c0.2,0,0.5-0.2,0.5-0.4c0-0.3-0.1-0.5-0.4-0.6c-0.1,0-0.2,0-0.4,0l0,0
	C184.7,378,184.5,377.9,184.2,377.9C184.3,377.9,184.2,377.9,184.2,377.9L184.2,377.9L184.2,377.9z M197.2,379.3
	c-0.3,0-0.5,0.2-0.5,0.5c0,0.3,0.2,0.5,0.5,0.5c0.3,0,0.7,0,1,0.1c0,0,0,0,0,0c0.3,0,0.5-0.2,0.5-0.5c0-0.3-0.2-0.5-0.5-0.5
	c-0.1,0-0.3,0-0.4,0c0,0,0,0,0,0c0,0,0,0,0,0C197.6,379.3,197.4,379.3,197.2,379.3C197.2,379.3,197.2,379.3,197.2,379.3L197.2,379.3
	z M211.2,379.6L211.2,379.6c-0.2,0-0.3,0-0.5,0c0,0,0,0,0,0c0,0,0,0,0,0c-0.2,0-0.3,0-0.5,0c-0.3,0-0.5,0.2-0.5,0.5s0.2,0.5,0.5,0.5
	l0,0c0.3,0,0.7,0,1,0c0.3,0,0.5-0.2,0.5-0.5C211.7,379.9,211.5,379.6,211.2,379.6L211.2,379.6z M224.2,379
	C224.2,379,224.2,379,224.2,379c-0.1,0-0.2,0-0.3,0c0,0,0,0,0,0c0,0,0,0,0,0c-0.1,0-0.3,0-0.4,0c-0.1,0-0.1,0-0.2,0
	c-0.3,0-0.5,0.3-0.5,0.5c0,0.3,0.2,0.5,0.5,0.5c0,0,0,0,0,0c0.3,0,0.7-0.1,1-0.1c0.3,0,0.5-0.3,0.4-0.5
	C224.7,379.2,224.5,379,224.2,379L224.2,379L224.2,379z M237.2,377.4C237.2,377.4,237.1,377.4,237.2,377.4c-0.4,0-0.7,0.1-1,0.1
	c0,0,0,0-0.1,0c-0.3,0-0.5,0.3-0.4,0.6c0,0.2,0.2,0.4,0.5,0.4c0,0,0.1,0,0.1,0c0.3,0,0.7-0.1,1-0.2c0.3,0,0.5-0.3,0.4-0.6
	C237.6,377.5,237.4,377.4,237.2,377.4L237.2,377.4L237.2,377.4z M250,374.8c0,0-0.1,0-0.1,0c0,0,0,0,0,0h0c0,0,0,0-0.1,0
	c0,0,0,0,0,0c0,0,0,0-0.1,0c0,0,0,0,0,0c0,0,0,0-0.1,0c0,0,0,0,0,0c0,0,0,0,0,0s0,0,0,0c0,0,0,0,0,0c0,0,0,0,0,0c0,0,0,0,0,0
	c-0.2,0-0.4,0.1-0.6,0.1c-0.3,0.1-0.4,0.3-0.4,0.6c0.1,0.2,0.3,0.4,0.5,0.4c0,0,0.1,0,0.1,0c0.3-0.1,0.6-0.1,1-0.2
	c0.3-0.1,0.4-0.3,0.4-0.6C250.4,374.9,250.2,374.8,250,374.8L250,374.8L250,374.8z M262.5,371.3c0,0-0.1,0-0.1,0h0
	c-0.2,0.1-0.4,0.1-0.6,0.2c0,0,0,0,0,0c0,0,0,0,0,0c-0.1,0-0.2,0-0.3,0.1c-0.3,0.1-0.4,0.4-0.3,0.6c0.1,0.2,0.3,0.4,0.5,0.4
	c0,0,0.1,0,0.1,0c0.3-0.1,0.6-0.2,1-0.3c0.3-0.1,0.4-0.4,0.3-0.6C262.9,371.4,262.7,371.2,262.5,371.3L262.5,371.3L262.5,371.3z
	 M274.7,366.8c-0.1,0-0.1,0-0.2,0c-0.2,0.1-0.3,0.1-0.5,0.2l0,0c0,0,0,0,0,0c0,0,0,0,0,0c0,0,0,0,0,0c0,0,0,0,0,0c0,0,0,0,0,0
	c0,0,0,0,0,0c0,0,0,0,0,0c0,0,0,0,0,0c0,0,0,0,0,0c0,0,0,0,0,0c0,0,0,0,0,0c0,0,0,0,0,0c0,0,0,0-0.1,0c-0.3,0.1-0.4,0.4-0.3,0.6
	c0.1,0.2,0.3,0.3,0.5,0.3c0.1,0,0.1,0,0.2,0c0.3-0.1,0.6-0.2,0.9-0.4c0.3-0.1,0.4-0.4,0.3-0.6C275.1,366.9,274.9,366.8,274.7,366.8
	L274.7,366.8L274.7,366.8z M286.6,361.4c-0.1,0-0.1,0-0.2,0l0,0c0,0,0,0,0,0c0,0,0,0,0,0c0,0,0,0,0,0c0,0,0,0,0,0s0,0,0,0
	c0,0,0,0,0,0s0,0,0,0l0,0c-0.2,0.1-0.5,0.2-0.7,0.3c-0.2,0.1-0.4,0.4-0.2,0.7c0.1,0.2,0.3,0.3,0.5,0.3c0.1,0,0.1,0,0.2,0
	c0.3-0.1,0.6-0.3,0.9-0.5c0.2-0.1,0.4-0.4,0.2-0.7C287,361.5,286.8,361.4,286.6,361.4L286.6,361.4L286.6,361.4z M298,355.2
	c-0.1,0-0.2,0-0.3,0.1c-0.1,0.1-0.2,0.1-0.3,0.2l0,0l0,0c-0.2,0.1-0.4,0.2-0.5,0.3c-0.2,0.1-0.3,0.5-0.2,0.7
	c0.1,0.2,0.3,0.2,0.4,0.2c0.1,0,0.2,0,0.2-0.1c0.3-0.2,0.6-0.3,0.9-0.5c0.2-0.1,0.3-0.5,0.2-0.7C298.4,355.2,298.2,355.2,298,355.2
	L298,355.2L298,355.2z M309,348.1c-0.1,0-0.2,0-0.3,0.1c-0.1,0.1-0.3,0.2-0.4,0.3c0,0,0,0,0,0c0,0,0,0,0,0c-0.1,0-0.1,0.1-0.2,0.1
	l0,0c0,0,0,0,0,0c0,0,0,0,0,0c0,0,0,0,0,0c0,0,0,0-0.1,0c-0.2,0.2-0.3,0.5-0.1,0.7c0.1,0.1,0.2,0.2,0.4,0.2c0.1,0,0.2,0,0.3-0.1
	c0.3-0.2,0.5-0.4,0.8-0.6c0.2-0.2,0.3-0.5,0.1-0.7C309.3,348.1,309.1,348,309,348.1L309,348.1L309,348.1z M319.3,340.2
	c-0.1,0-0.2,0-0.3,0.1c-0.1,0.1-0.3,0.2-0.4,0.4l0,0c0,0,0,0,0,0c-0.1,0.1-0.2,0.2-0.3,0.2c-0.2,0.2-0.2,0.5-0.1,0.7
	c0.1,0.1,0.2,0.2,0.4,0.2c0.1,0,0.2,0,0.3-0.1c0.3-0.2,0.5-0.4,0.8-0.6c0.2-0.2,0.2-0.5,0.1-0.7
	C319.6,340.2,319.5,340.2,319.3,340.2L319.3,340.2L319.3,340.2z M329.1,331.5c-0.1,0-0.2,0-0.4,0.1c0,0,0,0,0,0l0,0c0,0,0,0,0,0l0,0
	c0,0,0,0,0,0l0,0c-0.2,0.2-0.4,0.4-0.6,0.6l0,0c-0.2,0.2-0.2,0.5,0,0.7c0.1,0.1,0.2,0.2,0.4,0.2c0.1,0,0.2,0,0.3-0.1
	c0.2-0.2,0.5-0.5,0.7-0.7c0.2-0.2,0.2-0.5,0-0.7C329.4,331.6,329.2,331.5,329.1,331.5L329.1,331.5L329.1,331.5z M338.2,322.2
	c-0.1,0-0.3,0.1-0.4,0.2c-0.2,0.2-0.4,0.5-0.6,0.7c0,0,0,0,0,0c-0.2,0.2-0.2,0.5,0,0.7c0.1,0.1,0.2,0.1,0.3,0.1c0.1,0,0.3,0,0.4-0.2
	c0.2-0.2,0.5-0.5,0.7-0.7c0.2-0.2,0.2-0.5,0-0.7C338.4,322.2,338.3,322.2,338.2,322.2L338.2,322.2L338.2,322.2z M346.5,312.2
	c-0.1,0-0.3,0.1-0.4,0.2c-0.2,0.3-0.4,0.5-0.6,0.8c-0.2,0.2-0.1,0.5,0.1,0.7c0.1,0.1,0.2,0.1,0.3,0.1c0.1,0,0.3-0.1,0.4-0.2
	c0.2-0.3,0.4-0.5,0.6-0.8c0.2-0.2,0.1-0.5-0.1-0.7C346.7,312.2,346.6,312.2,346.5,312.2L346.5,312.2L346.5,312.2z M354.1,301.6
	c-0.2,0-0.3,0.1-0.4,0.2c-0.1,0.2-0.3,0.4-0.4,0.6c0,0,0,0,0,0s0,0,0,0c0,0,0,0,0,0c0,0,0,0,0,0c0,0,0,0,0,0c0,0,0,0,0,0
	c0,0,0,0,0,0c0,0,0,0,0,0c0,0,0,0,0,0c0,0,0,0,0,0c-0.1,0.2-0.1,0.5,0.1,0.7c0.1,0.1,0.2,0.1,0.3,0.1c0.2,0,0.3-0.1,0.4-0.2
	c0.2-0.3,0.4-0.6,0.6-0.8c0.1-0.2,0.1-0.5-0.1-0.7C354.3,301.6,354.2,301.6,354.1,301.6L354.1,301.6L354.1,301.6z M360.9,290.5
	c-0.2,0-0.4,0.1-0.4,0.3c0,0,0,0.1-0.1,0.1l0,0c0,0,0,0,0,0c0,0,0,0,0,0c0,0,0,0,0,0c0,0,0,0,0,0c0,0,0,0,0,0
	c-0.1,0.2-0.2,0.4-0.3,0.6c-0.1,0.2,0,0.5,0.2,0.7c0.1,0,0.2,0.1,0.2,0.1c0.2,0,0.3-0.1,0.4-0.2c0.2-0.3,0.3-0.6,0.5-0.9
	c0.1-0.2,0-0.5-0.2-0.7C361.1,290.5,361,290.5,360.9,290.5L360.9,290.5L360.9,290.5z M366.8,278.8c-0.2,0-0.4,0.1-0.5,0.3
	c0,0.1-0.1,0.2-0.1,0.3c-0.1,0.2-0.2,0.4-0.3,0.6c-0.1,0.2,0,0.5,0.2,0.7c0.1,0,0.1,0,0.2,0c0.2,0,0.4-0.1,0.5-0.3
	c0.1-0.3,0.3-0.6,0.4-0.9c0.1-0.2,0-0.5-0.2-0.7C367,278.9,366.9,278.8,366.8,278.8L366.8,278.8L366.8,278.8z M371.9,266.8
	c-0.2,0-0.4,0.1-0.5,0.3c-0.1,0.2-0.1,0.4-0.2,0.5l0,0v0c0,0.1-0.1,0.3-0.1,0.4c-0.1,0.3,0,0.5,0.3,0.6c0.1,0,0.1,0,0.2,0
	c0.2,0,0.4-0.1,0.5-0.3c0.1-0.3,0.2-0.6,0.4-0.9c0.1-0.3,0-0.5-0.3-0.6C372,266.8,371.9,266.8,371.9,266.8L371.9,266.8L371.9,266.8z
	 M376,254.5c-0.2,0-0.4,0.1-0.5,0.4c-0.1,0.3-0.2,0.6-0.3,1c-0.1,0.3,0.1,0.5,0.3,0.6c0,0,0.1,0,0.1,0c0.2,0,0.4-0.1,0.5-0.4
	c0.1-0.3,0.2-0.6,0.3-1c0.1-0.3-0.1-0.5-0.3-0.6C376.1,254.5,376,254.5,376,254.5L376,254.5z M379.1,241.8c-0.2,0-0.4,0.2-0.5,0.4
	c-0.1,0.3-0.1,0.6-0.2,1c-0.1,0.3,0.1,0.5,0.4,0.6c0,0,0.1,0,0.1,0c0.2,0,0.4-0.2,0.5-0.4c0.1-0.3,0.1-0.7,0.2-1
	C379.7,242.2,379.5,241.9,379.1,241.8C379.2,241.8,379.2,241.8,379.1,241.8L379.1,241.8L379.1,241.8z M381.3,229
	c-0.2,0-0.5,0.2-0.5,0.4c0,0.3-0.1,0.5-0.1,0.8c0,0,0,0,0,0c0,0,0,0,0,0c0,0.1,0,0.1,0,0.1c0,0.3,0.1,0.5,0.4,0.6c0,0,0,0,0.1,0
	c0.2,0,0.5-0.2,0.5-0.4c0-0.3,0.1-0.7,0.1-1C381.9,229.2,381.7,229,381.3,229C381.4,229,381.4,229,381.3,229L381.3,229L381.3,229z
	 M382.6,216c-0.3,0-0.5,0.2-0.5,0.5c0,0.3,0,0.7-0.1,1c0,0.3,0.2,0.5,0.5,0.5c0,0,0,0,0,0c0.3,0,0.5-0.2,0.5-0.5c0-0.3,0-0.7,0.1-1
	C383.1,216.2,382.9,216,382.6,216C382.6,216,382.6,216,382.6,216L382.6,216z M382.9,202.9L382.9,202.9c-0.3,0-0.5,0.2-0.5,0.5
	c0,0.3,0,0.6,0,0.9v0c0,0,0,0,0,0c0,0,0,0.1,0,0.1c0,0.3,0.2,0.5,0.5,0.5l0,0c0.3,0,0.5-0.2,0.5-0.5c0-0.3,0-0.7,0-1
	C383.4,203.2,383.1,202.9,382.9,202.9L382.9,202.9L382.9,202.9z M382.2,189.9C382.2,189.9,382.1,189.9,382.2,189.9
	c-0.3,0-0.5,0.3-0.5,0.5c0,0.3,0.1,0.7,0.1,1c0,0.3,0.2,0.4,0.5,0.4c0,0,0,0,0,0c0.3,0,0.5-0.3,0.5-0.5c0-0.3-0.1-0.7-0.1-1
	C382.6,190.1,382.4,189.9,382.2,189.9L382.2,189.9L382.2,189.9z M380.5,177C380.5,177,380.5,177,380.5,177c-0.3,0.1-0.5,0.3-0.5,0.6
	c0,0.1,0,0.1,0,0.2c0,0,0,0,0,0l0,0c0,0.3,0.1,0.5,0.1,0.8c0,0.2,0.2,0.4,0.5,0.4c0,0,0,0,0.1,0c0.3,0,0.5-0.3,0.4-0.6
	c0-0.3-0.1-0.7-0.2-1C381,177.2,380.7,177,380.5,177L380.5,177L380.5,177z M377.9,164.2c0,0-0.1,0-0.1,0c-0.3,0.1-0.4,0.3-0.4,0.6
	c0.1,0.3,0.2,0.6,0.2,1c0,0.2,0.3,0.4,0.5,0.4c0,0,0.1,0,0.1,0c0.3-0.1,0.4-0.3,0.4-0.6c-0.1-0.3-0.2-0.6-0.2-1
	C378.3,164.4,378.1,164.2,377.9,164.2L377.9,164.2L377.9,164.2z M374.3,151.7c0,0-0.1,0-0.2,0c-0.3,0.1-0.4,0.4-0.3,0.6
	c0.1,0.3,0.2,0.6,0.3,0.9c0.1,0.2,0.3,0.4,0.5,0.4c0,0,0.1,0,0.1,0c0.3-0.1,0.4-0.4,0.3-0.6c-0.1-0.3-0.2-0.6-0.3-1
	C374.7,151.8,374.5,151.7,374.3,151.7L374.3,151.7L374.3,151.7z M369.8,139.5c-0.1,0-0.1,0-0.2,0c-0.3,0.1-0.4,0.4-0.3,0.6
	c0,0.1,0,0.1,0.1,0.2c0,0,0,0,0,0c0,0,0,0,0,0c0,0,0,0,0,0c0,0,0,0,0,0c0,0,0,0,0,0c0,0,0,0,0,0c0,0,0,0,0,0c0,0,0,0,0,0
	c0,0,0,0,0,0c0,0,0,0,0,0c0,0,0,0,0,0c0,0,0,0,0,0c0,0,0,0,0,0c0,0,0,0,0,0c0,0,0,0,0,0c0,0,0,0,0,0.1l0,0c0,0,0,0,0,0.1l0,0
	c0,0,0,0,0,0.1c0,0,0,0,0,0c0,0,0,0,0,0c0,0,0,0,0,0c0,0,0,0,0,0c0,0,0,0,0,0.1c0.1,0.2,0.3,0.3,0.5,0.3c0.1,0,0.1,0,0.2,0
	c0.3-0.1,0.4-0.4,0.3-0.6c-0.1-0.3-0.2-0.6-0.4-0.9C370.1,139.6,369.9,139.5,369.8,139.5L369.8,139.5L369.8,139.5z M364.4,127.6
	c-0.1,0-0.1,0-0.2,0.1c-0.2,0.1-0.4,0.4-0.2,0.7c0,0,0,0.1,0,0.1l0,0c0,0,0,0,0,0.1c0,0,0,0,0,0c0,0,0,0,0,0
	c0.1,0.2,0.2,0.5,0.4,0.7c0.1,0.2,0.3,0.3,0.5,0.3c0.1,0,0.1,0,0.2-0.1c0.2-0.1,0.4-0.4,0.2-0.7c-0.1-0.3-0.3-0.6-0.5-0.9
	C364.7,127.7,364.6,127.6,364.4,127.6L364.4,127.6L364.4,127.6z M358.1,116.2c-0.1,0-0.2,0-0.3,0.1c-0.2,0.1-0.3,0.4-0.2,0.7
	c0.1,0.2,0.3,0.5,0.4,0.7c0,0,0,0,0,0l0,0c0,0,0,0.1,0.1,0.1c0.1,0.2,0.3,0.2,0.4,0.2c0.1,0,0.2,0,0.2-0.1c0.2-0.1,0.3-0.4,0.2-0.7
	c-0.2-0.3-0.3-0.6-0.5-0.9C358.4,116.3,358.2,116.2,358.1,116.2L358.1,116.2L358.1,116.2z M350.9,105.3c-0.1,0-0.2,0-0.3,0.1
	c-0.2,0.2-0.3,0.5-0.1,0.7c0.1,0.1,0.1,0.2,0.2,0.2l0,0c0,0,0,0,0,0c0,0,0,0,0,0c0,0,0,0,0,0c0,0,0,0,0,0s0,0,0,0.1l0,0
	c0.1,0.1,0.2,0.3,0.3,0.4c0.1,0.1,0.2,0.2,0.4,0.2c0.1,0,0.2,0,0.3-0.1c0.2-0.2,0.3-0.5,0.1-0.7c-0.2-0.3-0.4-0.6-0.6-0.8
	C351.2,105.4,351.1,105.3,350.9,105.3L350.9,105.3L350.9,105.3z M343,95c-0.1,0-0.2,0-0.3,0.1c-0.2,0.2-0.2,0.5-0.1,0.7
	c0.1,0.2,0.3,0.3,0.4,0.5c0,0,0,0,0,0c0,0,0,0,0,0c0,0.1,0.1,0.1,0.2,0.2l0,0c0,0,0,0,0,0l0,0c0.1,0.1,0.2,0.2,0.4,0.2
	c0.1,0,0.2,0,0.3-0.1c0.2-0.2,0.2-0.5,0.1-0.7c-0.2-0.3-0.4-0.5-0.6-0.8C343.3,95,343.1,94.9,343,95L343,95L343,95z M334.3,85.2
	c-0.1,0-0.2,0.1-0.4,0.1c-0.2,0.2-0.2,0.5,0,0.7c0.2,0.2,0.5,0.5,0.7,0.7c0.1,0.1,0.2,0.2,0.4,0.2c0.1,0,0.2-0.1,0.3-0.1
	c0.2-0.2,0.2-0.5,0-0.7c-0.2-0.2-0.5-0.5-0.7-0.7C334.6,85.3,334.4,85.2,334.3,85.2L334.3,85.2L334.3,85.2z M324.9,76.2
	c-0.1,0-0.3,0.1-0.4,0.2c-0.2,0.2-0.2,0.5,0,0.7c0,0,0,0,0,0l0,0c0,0,0,0,0,0c0.2,0.1,0.3,0.3,0.5,0.4c0.1,0.1,0.1,0.1,0.2,0.2
	c0.1,0.1,0.2,0.1,0.3,0.1c0.1,0,0.3-0.1,0.4-0.2c0.2-0.2,0.2-0.5,0-0.7c-0.2-0.2-0.5-0.4-0.8-0.7C325.2,76.2,325.1,76.2,324.9,76.2
	L324.9,76.2L324.9,76.2z M314.9,67.9c-0.1,0-0.3,0.1-0.4,0.2c-0.2,0.2-0.1,0.5,0.1,0.7c0,0,0.1,0.1,0.1,0.1c0,0,0,0,0,0s0,0,0,0
	c0,0,0,0,0,0c0,0,0,0,0,0c0,0,0,0,0,0c0,0,0,0,0,0c0,0,0,0,0,0c0,0,0,0,0,0c0,0,0,0,0,0l0,0c0.1,0.1,0.3,0.2,0.4,0.3
	c0.1,0.1,0.2,0.1,0.3,0.1c0.1,0,0.3-0.1,0.4-0.2c0.2-0.2,0.1-0.5-0.1-0.7c-0.3-0.2-0.5-0.4-0.8-0.6C315.1,67.9,315,67.8,314.9,67.9
	L314.9,67.9L314.9,67.9z M304.3,60.3c-0.2,0-0.3,0.1-0.4,0.2c-0.1,0.2-0.1,0.5,0.1,0.7c0.1,0,0.1,0.1,0.2,0.1c0.1,0,0.1,0.1,0.2,0.1
	l0,0c0,0,0,0,0,0c0,0,0,0,0,0c0,0,0,0,0,0c0,0,0,0,0,0l0,0c0.1,0.1,0.2,0.1,0.3,0.2c0.1,0.1,0.2,0.1,0.3,0.1c0.2,0,0.3-0.1,0.4-0.2
	c0.1-0.2,0.1-0.5-0.1-0.7c-0.3-0.2-0.6-0.4-0.8-0.5C304.5,60.3,304.4,60.3,304.3,60.3L304.3,60.3L304.3,60.3z M293.1,53.6
	c-0.2,0-0.4,0.1-0.4,0.3c-0.1,0.2,0,0.5,0.2,0.7c0.3,0.1,0.5,0.3,0.8,0.4c0,0,0,0,0,0c0,0,0,0,0,0c0,0,0,0,0,0
	c0.1,0,0.2,0.1,0.2,0.1c0.2,0,0.3-0.1,0.4-0.3c0.1-0.2,0-0.5-0.2-0.7c-0.3-0.2-0.6-0.3-0.9-0.5C293.3,53.6,293.2,53.6,293.1,53.6
	L293.1,53.6L293.1,53.6z M281.5,47.7c-0.2,0-0.4,0.1-0.5,0.3c-0.1,0.2,0,0.5,0.2,0.7l0,0c0.2,0.1,0.5,0.2,0.7,0.3l0,0
	c0.1,0,0.1,0.1,0.2,0.1c0.1,0,0.1,0,0.2,0c0.2,0,0.4-0.1,0.5-0.3c0.1-0.2,0-0.5-0.2-0.7c-0.3-0.1-0.6-0.3-0.9-0.4
	C281.6,47.7,281.6,47.7,281.5,47.7L281.5,47.7L281.5,47.7z M269.5,42.7c-0.2,0-0.4,0.1-0.5,0.3c-0.1,0.3,0,0.5,0.3,0.6
	c0.3,0.1,0.6,0.2,0.9,0.3c0.1,0,0.1,0,0.2,0c0.2,0,0.4-0.1,0.5-0.3c0.1-0.3,0-0.5-0.3-0.6c-0.3-0.1-0.6-0.2-0.9-0.3
	C269.6,42.7,269.5,42.7,269.5,42.7L269.5,42.7L269.5,42.7z M257.1,38.6c-0.2,0-0.4,0.1-0.5,0.4c-0.1,0.3,0.1,0.5,0.3,0.6
	c0,0,0.1,0,0.1,0c0.3,0.1,0.6,0.2,0.8,0.2c0,0,0.1,0,0.1,0c0.2,0,0.4-0.1,0.5-0.4c0.1-0.3-0.1-0.5-0.3-0.6c-0.3-0.1-0.6-0.2-1-0.3
	C257.2,38.6,257.1,38.6,257.1,38.6L257.1,38.6L257.1,38.6z M244.4,35.5c-0.2,0-0.4,0.2-0.5,0.4c-0.1,0.3,0.1,0.5,0.4,0.6
	c0.1,0,0.2,0,0.3,0.1c0,0,0,0,0,0c0,0,0,0,0,0c0.2,0,0.4,0.1,0.7,0.1c0,0,0.1,0,0.1,0c0.2,0,0.4-0.2,0.5-0.4
	c0.1-0.3-0.1-0.5-0.4-0.6c-0.3-0.1-0.7-0.1-1-0.2C244.5,35.5,244.5,35.5,244.4,35.5L244.4,35.5L244.4,35.5z M231.6,33.3
	c-0.2,0-0.5,0.2-0.5,0.4c0,0.3,0.2,0.5,0.4,0.6c0.3,0,0.7,0.1,1,0.1l0,0c0,0,0.1,0,0.1,0c0.2,0,0.5-0.2,0.5-0.4
	c0-0.3-0.1-0.5-0.4-0.6C232.3,33.4,232,33.4,231.6,33.3C231.6,33.3,231.6,33.3,231.6,33.3L231.6,33.3L231.6,33.3z M218.6,32.1
	c-0.3,0-0.5,0.2-0.5,0.5c0,0.3,0.2,0.5,0.5,0.5c0.2,0,0.4,0,0.6,0c0,0,0,0,0,0c0,0,0,0,0,0c0.1,0,0.2,0,0.4,0c0,0,0,0,0,0
	c0.3,0,0.5-0.2,0.5-0.5c0-0.3-0.2-0.5-0.5-0.5C219.3,32.2,219,32.1,218.6,32.1C218.6,32.1,218.6,32.1,218.6,32.1L218.6,32.1
	L218.6,32.1z"/>
<g>
	<circle class="st8" cx="209" cy="206.3" r="163.9"/>
	<g>
		<defs>
			<circle id="SVGID_00000005984441602692331390000013747233327674327700_" cx="209" cy="206.3" r="163.9"/>
		</defs>
		<clipPath id="SVGID_00000057848154002664206930000007020609012246103200_">
			<use xlink:href="#SVGID_00000005984441602692331390000013747233327674327700_"  style="overflow:visible;"/>
		</clipPath>
		<g style="clip-path:url(#SVGID_00000057848154002664206930000007020609012246103200_);">
			
				<linearGradient id="SVGID_00000016045430491030359750000014532559048048185743_" gradientUnits="userSpaceOnUse" x1="114.455" y1="487.46" x2="114.455" y2="120.12" gradientTransform="matrix(1 0 0 -1 0 510)">
				<stop  offset="0" style="stop-color:#787878"/>
				<stop  offset="1" style="stop-color:#303030;stop-opacity:0"/>
			</linearGradient>
			
				<rect x="24.2" y="22.5" style="opacity:0.5;fill:url(#SVGID_00000016045430491030359750000014532559048048185743_);enable-background:new    ;" width="180.4" height="367.3"/>
		</g>
	</g>
</g>
<g>
	
		<linearGradient id="SVGID_00000019640513022254281430000013676911773112627622_" gradientUnits="userSpaceOnUse" x1="135.55" y1="405.09" x2="135.55" y2="364.16" gradientTransform="matrix(1 0 0 -1 0 510)">
		<stop  offset="0" style="stop-color:#9BC1D4"/>
		<stop  offset="1" style="stop-color:#07629B"/>
	</linearGradient>
	<path style="fill:url(#SVGID_00000019640513022254281430000013676911773112627622_);" d="M149.1,114l-12.8,31.8h-12.8l12.9-30.3
		H122v-10.6h27.1L149.1,114L149.1,114z"/>
	
		<linearGradient id="SVGID_00000085947838688343610890000004452331070192299936_" gradientUnits="userSpaceOnUse" x1="180.51" y1="403.8" x2="180.51" y2="364.16" gradientTransform="matrix(1 0 0 -1 0 510)">
		<stop  offset="0" style="stop-color:#9BC1D4"/>
		<stop  offset="1" style="stop-color:#07629B"/>
	</linearGradient>
	<path style="fill:url(#SVGID_00000085947838688343610890000004452331070192299936_);" d="M189.4,108.7c3.1,1.7,5.5,4,7.2,7
		c1.7,3,2.5,6.4,2.5,10.2c0,3.8-0.8,7.2-2.5,10.2s-4.1,5.4-7.2,7.1c-3.1,1.7-6.8,2.6-10.9,2.6h-16.5v-39.6h16.5
		C182.6,106.2,186.2,107,189.4,108.7z M184,132.5c1.6-1.5,2.5-3.7,2.5-6.6s-0.8-5-2.5-6.6c-1.6-1.5-3.9-2.3-6.7-2.3h-3v17.7h3
		C180.1,134.8,182.4,134,184,132.5L184,132.5z"/>
	
		<linearGradient id="SVGID_00000037688855966968237630000007052940417902020020_" gradientUnits="userSpaceOnUse" x1="209.765" y1="403.8" x2="209.765" y2="364.16" gradientTransform="matrix(1 0 0 -1 0 510)">
		<stop  offset="0" style="stop-color:#9BC1D4"/>
		<stop  offset="1" style="stop-color:#07629B"/>
	</linearGradient>
	<path style="fill:url(#SVGID_00000037688855966968237630000007052940417902020020_);" d="M216,106.2v39.6h-12.4v-39.6H216
		L216,106.2z"/>
	
		<linearGradient id="SVGID_00000142890621206288948950000005980444651362142097_" gradientUnits="userSpaceOnUse" x1="240.425" y1="403.81" x2="240.425" y2="364.17" gradientTransform="matrix(1 0 0 -1 0 510)">
		<stop  offset="0" style="stop-color:#9BC1D4"/>
		<stop  offset="1" style="stop-color:#07629B"/>
	</linearGradient>
	<path style="fill:url(#SVGID_00000142890621206288948950000005980444651362142097_);" d="M247,139.8h-13.2l-2,6h-13l14.5-39.6h14.3
		l14.4,39.6H249L247,139.8L247,139.8z M244,130.5l-3.6-11l-3.6,11H244L244,130.5z"/>
	
		<linearGradient id="SVGID_00000102529681642459400330000015520315245210273937_" gradientUnits="userSpaceOnUse" x1="279.55" y1="404.48" x2="279.55" y2="363.79" gradientTransform="matrix(1 0 0 -1 0 510)">
		<stop  offset="0" style="stop-color:#9BC1D4"/>
		<stop  offset="1" style="stop-color:#07629B"/>
	</linearGradient>
	<path style="fill:url(#SVGID_00000102529681642459400330000015520315245210273937_);" d="M268.6,142.9c-3.1-2.2-4.8-5.5-5-9.8h13.2
		c0.2,2.3,1.2,3.4,3,3.4c0.7,0,1.2-0.2,1.7-0.5c0.5-0.3,0.7-0.8,0.7-1.5c0-0.9-0.5-1.7-1.5-2.3s-2.6-1.2-4.7-2
		c-2.5-0.9-4.6-1.8-6.3-2.6c-1.7-0.9-3.1-2.1-4.3-3.8s-1.8-3.8-1.7-6.3c0-2.6,0.7-4.8,2-6.6c1.3-1.8,3.1-3.2,5.4-4.1
		c2.3-0.9,4.9-1.4,7.8-1.4c4.9,0,8.7,1.1,11.6,3.4c2.9,2.2,4.4,5.4,4.5,9.5h-13.4c0-1.1-0.3-1.9-0.8-2.4c-0.5-0.5-1.2-0.7-1.9-0.7
		c-0.5,0-1,0.2-1.3,0.5c-0.3,0.4-0.5,0.8-0.5,1.5c0,0.9,0.5,1.6,1.5,2.2c1,0.6,2.6,1.3,4.7,2.1c2.5,0.9,4.6,1.8,6.2,2.7
		c1.6,0.9,3,2.1,4.2,3.6c1.2,1.5,1.8,3.5,1.8,5.8s-0.6,4.6-1.8,6.5s-2.9,3.4-5.2,4.5c-2.3,1.1-5,1.6-8.1,1.6
		C275.6,146.2,271.7,145.1,268.6,142.9L268.6,142.9z"/>
</g>
<g>
	
		<linearGradient id="SVGID_00000071561330876300551130000014988072792947561129_" gradientUnits="userSpaceOnUse" x1="81.57" y1="329.58" x2="81.57" y2="290.58" gradientTransform="matrix(1 0 0 -1 0 510)">
		<stop  offset="0" style="stop-color:#CCD0D3"/>
		<stop  offset="1" style="stop-color:#949494"/>
	</linearGradient>
	<path style="fill:url(#SVGID_00000071561330876300551130000014988072792947561129_);" d="M87.4,193.9c-0.5-0.8-1.1-1.3-2-1.8
		c-0.9-0.4-1.9-0.6-3.1-0.6c-2.3,0-4.1,0.8-5.4,2.2s-1.9,3.6-1.9,6.1c0,3,0.7,5.2,2.1,6.7s3.6,2.2,6.5,2.2s5-1.1,6.7-3.4h-9.6V197
		h19.6v12c-1.7,2.9-3.9,5.3-6.9,7.3s-6.6,3.1-11.1,3.1c-4,0-7.4-0.8-10.4-2.5s-5.2-3.9-6.8-6.9c-1.6-3-2.4-6.3-2.4-10.1
		s0.8-7.2,2.4-10.1s3.8-5.3,6.7-6.9c2.9-1.6,6.3-2.5,10.3-2.5c5,0,9.1,1.2,12.3,3.6s5,5.7,5.6,9.9L87.4,193.9L87.4,193.9z"/>
	
		<linearGradient id="SVGID_00000036227578736464186420000012980934940848446397_" gradientUnits="userSpaceOnUse" x1="122.865" y1="329.21" x2="122.865" y2="290.86" gradientTransform="matrix(1 0 0 -1 0 510)">
		<stop  offset="0" style="stop-color:#CCD0D3"/>
		<stop  offset="1" style="stop-color:#949494"/>
	</linearGradient>
	<path style="fill:url(#SVGID_00000036227578736464186420000012980934940848446397_);" d="M129.2,213.3h-12.8l-1.9,5.8h-12.6
		l14-38.3h13.9l14,38.4h-12.7L129.2,213.3L129.2,213.3z M126.3,204.3l-3.5-10.7l-3.5,10.7H126.3L126.3,204.3z"/>
	
		<linearGradient id="SVGID_00000117658295100456028960000010394866516028208049_" gradientUnits="userSpaceOnUse" x1="162.765" y1="329.21" x2="162.765" y2="290.86" gradientTransform="matrix(1 0 0 -1 0 510)">
		<stop  offset="0" style="stop-color:#CCD0D3"/>
		<stop  offset="1" style="stop-color:#949494"/>
	</linearGradient>
	<path style="fill:url(#SVGID_00000117658295100456028960000010394866516028208049_);" d="M165.8,219.1l-7.2-13.8h-0.1v13.8h-12
		v-38.3h17.9c3.1,0,5.8,0.6,8,1.6c2.2,1.1,3.9,2.6,5,4.5c1.1,1.9,1.6,4,1.6,6.4c0,2.6-0.7,4.8-2.1,6.8c-1.4,2-3.5,3.4-6.1,4.3
		l8.3,14.7L165.8,219.1L165.8,219.1z M158.5,197.4h4.8c1.2,0,2-0.3,2.6-0.8c0.6-0.5,0.9-1.3,0.9-2.5c0-1-0.3-1.8-0.9-2.4
		c-0.6-0.6-1.4-0.9-2.6-0.9h-4.8L158.5,197.4L158.5,197.4z"/>
	
		<linearGradient id="SVGID_00000178906670748905228320000011664353261293700015_" gradientUnits="userSpaceOnUse" x1="201.025" y1="329.21" x2="201.025" y2="290.86" gradientTransform="matrix(1 0 0 -1 0 510)">
		<stop  offset="0" style="stop-color:#CCD0D3"/>
		<stop  offset="1" style="stop-color:#949494"/>
	</linearGradient>
	<path style="fill:url(#SVGID_00000178906670748905228320000011664353261293700015_);" d="M207.4,213.3h-12.8l-1.9,5.8h-12.6
		l14-38.3H208l14,38.4h-12.7L207.4,213.3L207.4,213.3z M204.5,204.3l-3.5-10.7l-3.5,10.7H204.5L204.5,204.3z"/>
	
		<linearGradient id="SVGID_00000036210696786192862090000006903616489094436739_" gradientUnits="userSpaceOnUse" x1="243.055" y1="329.21" x2="243.055" y2="290.86" gradientTransform="matrix(1 0 0 -1 0 510)">
		<stop  offset="0" style="stop-color:#CCD0D3"/>
		<stop  offset="1" style="stop-color:#949494"/>
	</linearGradient>
	<path style="fill:url(#SVGID_00000036210696786192862090000006903616489094436739_);" d="M261.4,219.1h-12l-12.7-19.3v19.3h-12
		v-38.3h12l12.7,19.6v-19.6h12V219.1L261.4,219.1z"/>
	
		<linearGradient id="SVGID_00000044145489613237155190000006356575550658743702_" gradientUnits="userSpaceOnUse" x1="280.84" y1="329.21" x2="280.84" y2="290.87" gradientTransform="matrix(1 0 0 -1 0 510)">
		<stop  offset="0" style="stop-color:#CCD0D3"/>
		<stop  offset="1" style="stop-color:#949494"/>
	</linearGradient>
	<path style="fill:url(#SVGID_00000044145489613237155190000006356575550658743702_);" d="M297,180.8v9.5h-10.2v28.8h-12v-28.8
		h-10.1v-9.5H297L297,180.8z"/>
	
		<linearGradient id="SVGID_00000080890662086596785210000002652582639667335856_" gradientUnits="userSpaceOnUse" x1="306.24" y1="329.21" x2="306.24" y2="290.86" gradientTransform="matrix(1 0 0 -1 0 510)">
		<stop  offset="0" style="stop-color:#CCD0D3"/>
		<stop  offset="1" style="stop-color:#949494"/>
	</linearGradient>
	<path style="fill:url(#SVGID_00000080890662086596785210000002652582639667335856_);" d="M312.2,180.8v38.3h-12v-38.4L312.2,180.8
		L312.2,180.8z"/>
	
		<linearGradient id="SVGID_00000086659935183898773850000013963241209396275370_" gradientUnits="userSpaceOnUse" x1="335.885" y1="329.21" x2="335.885" y2="290.86" gradientTransform="matrix(1 0 0 -1 0 510)">
		<stop  offset="0" style="stop-color:#CCD0D3"/>
		<stop  offset="1" style="stop-color:#949494"/>
	</linearGradient>
	<path style="fill:url(#SVGID_00000086659935183898773850000013963241209396275370_);" d="M342.2,213.3h-12.8l-1.9,5.8H315l14-38.3
		h13.9l14,38.4h-12.7L342.2,213.3L342.2,213.3z M339.3,204.3l-3.5-10.7l-3.5,10.7H339.3L339.3,204.3z"/>
</g>
<g>
	
		<linearGradient id="SVGID_00000030472373179160557680000004888779127403941054_" gradientUnits="userSpaceOnUse" x1="121.955" y1="247.23" x2="121.955" y2="224.16" gradientTransform="matrix(1 0 0 -1 0 510)">
		<stop  offset="0" style="stop-color:#9BC1D4"/>
		<stop  offset="1" style="stop-color:#07629B"/>
	</linearGradient>
	<path style="fill:url(#SVGID_00000030472373179160557680000004888779127403941054_);" d="M124.7,285.8l-4.8-8.7h-1.3v8.7h-5.6
		v-23.1h9.4c1.8,0,3.4,0.3,4.7,1c1.3,0.6,2.2,1.5,2.9,2.6c0.6,1.1,0.9,2.3,0.9,3.7c0,1.5-0.4,2.9-1.3,4.1c-0.9,1.2-2.1,2.1-3.8,2.6
		l5.3,9.1H124.7z M118.5,273.1h3.5c1,0,1.8-0.2,2.3-0.8c0.5-0.5,0.8-1.2,0.8-2.1s-0.3-1.6-0.8-2.1c-0.5-0.5-1.3-0.8-2.3-0.8h-3.5
		V273.1L118.5,273.1z"/>
	
		<linearGradient id="SVGID_00000167366871696953792820000017902440273441668008_" gradientUnits="userSpaceOnUse" x1="137.14" y1="247.24" x2="137.14" y2="224.17" gradientTransform="matrix(1 0 0 -1 0 510)">
		<stop  offset="0" style="stop-color:#9BC1D4"/>
		<stop  offset="1" style="stop-color:#07629B"/>
	</linearGradient>
	<path style="fill:url(#SVGID_00000167366871696953792820000017902440273441668008_);" d="M139.9,262.8v23.1h-5.6v-23.1H139.9z"/>
	
		<linearGradient id="SVGID_00000026124969024918286600000012593386121995974534_" gradientUnits="userSpaceOnUse" x1="152.085" y1="247.57" x2="152.085" y2="223.94" gradientTransform="matrix(1 0 0 -1 0 510)">
		<stop  offset="0" style="stop-color:#9BC1D4"/>
		<stop  offset="1" style="stop-color:#07629B"/>
	</linearGradient>
	<path style="fill:url(#SVGID_00000026124969024918286600000012593386121995974534_);" d="M147.8,285.2c-1.3-0.5-2.4-1.4-3.2-2.4
		c-0.8-1.1-1.2-2.4-1.3-3.9h6c0.1,0.9,0.4,1.5,0.9,2c0.5,0.5,1.2,0.7,2,0.7s1.5-0.2,2-0.6c0.5-0.4,0.7-0.9,0.7-1.6
		c0-0.6-0.2-1-0.6-1.4c-0.4-0.4-0.9-0.7-1.4-0.9c-0.6-0.2-1.4-0.5-2.4-0.8c-1.5-0.5-2.7-0.9-3.6-1.4c-0.9-0.5-1.8-1.1-2.4-2
		s-1-2.1-1-3.5c0-2.1,0.8-3.8,2.3-5s3.6-1.8,6.1-1.8s4.6,0.6,6.1,1.8s2.4,2.9,2.5,5.1h-6.1c0-0.8-0.3-1.3-0.8-1.8
		c-0.5-0.4-1.1-0.6-1.9-0.6c-0.7,0-1.2,0.2-1.6,0.5c-0.4,0.4-0.6,0.9-0.6,1.6c0,0.8,0.4,1.3,1.1,1.7c0.7,0.4,1.8,0.9,3.3,1.4
		c1.5,0.5,2.7,1,3.6,1.5s1.7,1.1,2.4,2s1,2,1,3.4s-0.3,2.5-1,3.6c-0.7,1.1-1.6,1.9-2.9,2.6c-1.3,0.6-2.8,1-4.5,1
		S149.2,285.8,147.8,285.2L147.8,285.2z"/>
	
		<linearGradient id="SVGID_00000039124319274201375140000006928739137564155053_" gradientUnits="userSpaceOnUse" x1="174.565" y1="247.5" x2="174.565" y2="224.0001" gradientTransform="matrix(1 0 0 -1 0 510)">
		<stop  offset="0" style="stop-color:#9BC1D4"/>
		<stop  offset="1" style="stop-color:#07629B"/>
	</linearGradient>
	<path style="fill:url(#SVGID_00000039124319274201375140000006928739137564155053_);" d="M164.8,268.2c1-1.8,2.4-3.2,4.1-4.2
		c1.8-1,3.8-1.5,6-1.5c2.7,0,5.1,0.7,7,2.2s3.2,3.4,3.9,5.9h-6.2c-0.5-1-1.1-1.7-2-2.2c-0.8-0.5-1.8-0.8-2.9-0.8
		c-1.7,0-3.1,0.6-4.2,1.8c-1.1,1.2-1.6,2.8-1.6,4.8s0.5,3.6,1.6,4.8c1.1,1.2,2.5,1.8,4.2,1.8c1.1,0,2-0.2,2.9-0.8
		c0.8-0.5,1.5-1.2,2-2.2h6.2c-0.7,2.5-2,4.5-3.9,5.9c-1.9,1.4-4.3,2.1-7,2.1c-2.2,0-4.2-0.5-6-1.5s-3.1-2.4-4.1-4.2
		s-1.5-3.8-1.5-6.1S163.8,269.9,164.8,268.2L164.8,268.2z"/>
	
		<linearGradient id="SVGID_00000159437036205854734640000009617550775632113560_" gradientUnits="userSpaceOnUse" x1="200.175" y1="247.57" x2="200.175" y2="223.94" gradientTransform="matrix(1 0 0 -1 0 510)">
		<stop  offset="0" style="stop-color:#9BC1D4"/>
		<stop  offset="1" style="stop-color:#07629B"/>
	</linearGradient>
	<path style="fill:url(#SVGID_00000159437036205854734640000009617550775632113560_);" d="M194.2,284.5c-1.8-1-3.2-2.4-4.3-4.2
		s-1.6-3.8-1.6-6.1s0.5-4.3,1.6-6.1s2.5-3.2,4.3-4.2c1.8-1,3.8-1.5,6-1.5s4.2,0.5,6,1.5s3.2,2.4,4.3,4.2c1,1.8,1.6,3.8,1.6,6.1
		s-0.5,4.3-1.6,6.1s-2.5,3.2-4.3,4.2c-1.8,1-3.8,1.5-5.9,1.5S196.1,285.6,194.2,284.5z M204.6,279.1c1.1-1.2,1.7-2.9,1.7-4.9
		s-0.6-3.7-1.7-4.9s-2.6-1.8-4.4-1.8s-3.4,0.6-4.4,1.8c-1.1,1.2-1.7,2.8-1.7,4.9s0.6,3.7,1.7,4.9s2.6,1.8,4.4,1.8
		S203.5,280.3,204.6,279.1L204.6,279.1z"/>
	
		<linearGradient id="SVGID_00000086687649906460844540000015565447720733577093_" gradientUnits="userSpaceOnUse" x1="229.86" y1="247.24" x2="229.86" y2="224.17" gradientTransform="matrix(1 0 0 -1 0 510)">
		<stop  offset="0" style="stop-color:#9BC1D4"/>
		<stop  offset="1" style="stop-color:#07629B"/>
	</linearGradient>
	<path style="fill:url(#SVGID_00000086687649906460844540000015565447720733577093_);" d="M228.1,281.2h9.9v4.6h-16.3v-4.3l9.9-14.2
		h-9.9v-4.6H238v4.3L228.1,281.2L228.1,281.2z"/>
	
		<linearGradient id="SVGID_00000100351316308857324160000011328750303634206874_" gradientUnits="userSpaceOnUse" x1="248.755" y1="247.24" x2="248.755" y2="224.17" gradientTransform="matrix(1 0 0 -1 0 510)">
		<stop  offset="0" style="stop-color:#9BC1D4"/>
		<stop  offset="1" style="stop-color:#07629B"/>
	</linearGradient>
	<path style="fill:url(#SVGID_00000100351316308857324160000011328750303634206874_);" d="M247.3,267.3v4.7h7.5v4.3h-7.5v5.1h8.5
		v4.5h-14.1v-23.1h14.1v4.5H247.3z"/>
	
		<linearGradient id="SVGID_00000010281818758674800180000002889129227745503417_" gradientUnits="userSpaceOnUse" x1="268.525" y1="247.23" x2="268.525" y2="224.16" gradientTransform="matrix(1 0 0 -1 0 510)">
		<stop  offset="0" style="stop-color:#9BC1D4"/>
		<stop  offset="1" style="stop-color:#07629B"/>
	</linearGradient>
	<path style="fill:url(#SVGID_00000010281818758674800180000002889129227745503417_);" d="M271.2,285.8l-4.8-8.7h-1.4v8.7h-5.6
		v-23.1h9.4c1.8,0,3.4,0.3,4.6,1c1.3,0.6,2.2,1.5,2.9,2.6c0.6,1.1,1,2.3,1,3.7c0,1.5-0.4,2.9-1.3,4.1s-2.1,2.1-3.8,2.6l5.3,9.1
		H271.2L271.2,285.8z M265.1,273.1h3.5c1,0,1.8-0.2,2.3-0.8c0.5-0.5,0.8-1.2,0.8-2.1s-0.3-1.6-0.8-2.1c-0.5-0.5-1.3-0.8-2.3-0.8
		h-3.5V273.1L265.1,273.1z"/>
	
		<linearGradient id="SVGID_00000100365432572749946130000016020371537636389283_" gradientUnits="userSpaceOnUse" x1="291.785" y1="247.57" x2="291.785" y2="223.94" gradientTransform="matrix(1 0 0 -1 0 510)">
		<stop  offset="0" style="stop-color:#9BC1D4"/>
		<stop  offset="1" style="stop-color:#07629B"/>
	</linearGradient>
	<path style="fill:url(#SVGID_00000100365432572749946130000016020371537636389283_);" d="M285.9,284.5c-1.8-1-3.2-2.4-4.3-4.2
		s-1.6-3.8-1.6-6.1s0.5-4.3,1.6-6.1s2.5-3.2,4.3-4.2c1.8-1,3.8-1.5,6-1.5s4.2,0.5,6,1.5s3.2,2.4,4.3,4.2c1,1.8,1.6,3.8,1.6,6.1
		s-0.5,4.3-1.6,6.1s-2.5,3.2-4.3,4.2c-1.8,1-3.8,1.5-6,1.5S287.7,285.6,285.9,284.5z M296.2,279.1c1.1-1.2,1.7-2.9,1.7-4.9
		s-0.5-3.7-1.7-4.9c-1.1-1.2-2.6-1.8-4.4-1.8s-3.4,0.6-4.5,1.8c-1.1,1.2-1.7,2.8-1.7,4.9s0.5,3.7,1.7,4.9c1.1,1.2,2.6,1.8,4.5,1.8
		S295.1,280.3,296.2,279.1L296.2,279.1z"/>
</g>
<polygon class="st33" points="205,320.3 208.5,313.2 212,320.3 219.8,321.5 214.1,327 215.5,334.8 208.4,331.1 201.4,334.8 
	202.8,327 197.1,321.4 "/>
<polygon class="st33" points="181.9,317.4 184,313.2 186.1,317.4 190.8,318.1 187.4,321.5 188.2,326.1 184,323.9 179.8,326.1 
	180.6,321.4 177.2,318.1 "/>
<polygon class="st33" points="230.8,317.4 232.9,313.2 235,317.4 239.7,318.1 236.3,321.5 237.1,326.1 232.9,323.9 228.7,326.1 
	229.5,321.4 226.1,318.1 "/>
<linearGradient id="SVGID_00000103972049119812559160000009501504407064998582_" gradientUnits="userSpaceOnUse" x1="82.94" y1="347.26" x2="335.08" y2="347.26" gradientTransform="matrix(1 0 0 -1 0 510)">
	<stop  offset="0" style="stop-color:#787878"/>
	<stop  offset="1" style="stop-color:#303030"/>
</linearGradient>
<rect x="82.9" y="161.2" style="fill:url(#SVGID_00000103972049119812559160000009501504407064998582_);" width="252.1" height="3"/>
<linearGradient id="SVGID_00000021079214131245802620000003878045327199578511_" gradientUnits="userSpaceOnUse" x1="68.81" y1="272.92" x2="342.69" y2="272.92" gradientTransform="matrix(1 0 0 -1 0 510)">
	<stop  offset="0" style="stop-color:#787878"/>
	<stop  offset="1" style="stop-color:#303030"/>
</linearGradient>
<rect x="68.8" y="235.4" style="fill:url(#SVGID_00000021079214131245802620000003878045327199578511_);" width="273.9" height="3.3"/>
</svg>
