<?xml version="1.0" encoding="UTF-8"?>
<svg id="Layer_2" data-name="Layer 2" xmlns="http://www.w3.org/2000/svg" xmlns:xlink="http://www.w3.org/1999/xlink" viewBox="0 0 86.37 94.94">
  <defs>
    <style>
      .cls-1 {
        clip-path: url(#clippath);
      }

      .cls-2 {
        fill: none;
      }

      .cls-3 {
        fill: url(#linear-gradient);
      }
    </style>
    <clipPath id="clippath">
      <path class="cls-2" d="m17.79,17.09l8.51.5,2.31-12.21c.21-1.14,1.31-1.89,2.46-1.68l16.74,3.17.13-4.83c.03-1.16,1-2.08,2.16-2.04l22.66.68c1.16.03,2.07.99,2.04,2.15l-.45,17.57,10.02.59c1.16.06,2.05,1.06,1.99,2.22,0,.19-.04.37-.1.54l-10.65,32.73c-.29.89-1.12,1.46-2.01,1.46l-46.19,2.19c-1.02.05-1.9-.64-2.14-1.59L15.52,19.7c-.28-1.13.4-2.27,1.53-2.56.25-.06.5-.08.74-.05Zm49.15,62.11c2.17,0,4.14.88,5.56,2.31l.12.13c1.35,1.41,2.19,3.33,2.19,5.43s-.88,4.14-2.31,5.56c-1.42,1.42-3.39,2.31-5.56,2.31s-4.13-.88-5.55-2.31c-1.43-1.42-2.31-3.39-2.31-5.56s.88-4.13,2.31-5.55c1.43-1.43,3.4-2.31,5.56-2.31Zm2.58,5.29c-.66-.66-1.57-1.07-2.58-1.07s-1.92.41-2.58,1.06c-.66.66-1.06,1.57-1.06,2.58s.41,1.92,1.07,2.58c.66.66,1.57,1.07,2.58,1.07s1.92-.41,2.58-1.07c.66-.66,1.07-1.57,1.07-2.58s-.37-1.85-.98-2.5c0,0-.08-.08-.08-.08Zm-39.29-5.29c2.16,0,4.13.88,5.55,2.31,1.43,1.43,2.31,3.4,2.31,5.56s-.88,4.14-2.31,5.56l-.13.12c-1.41,1.35-3.33,2.19-5.43,2.19s-4.14-.88-5.56-2.31c-1.42-1.42-2.31-3.39-2.31-5.56s.88-4.13,2.31-5.55c1.42-1.43,3.39-2.31,5.56-2.31Zm2.58,5.28c-.66-.66-1.57-1.06-2.58-1.06s-1.92.41-2.58,1.07c-.66.66-1.07,1.57-1.07,2.58s.41,1.92,1.07,2.58c.66.66,1.57,1.07,2.58,1.07s1.85-.37,2.5-.98l.08-.08c.66-.66,1.07-1.57,1.07-2.58s-.41-1.92-1.06-2.58ZM52,7.66l6.28,1.19c1.14.21,1.89,1.31,1.68,2.46l-1.54,8.16,11.74.69.39-15.33-18.45-.55s-.09,3.4-.09,3.4Zm-21.46,10.17l23.64,1.38,1.25-6.62-23.07-4.37s-1.82,9.61-1.82,9.61Zm-5.85,44.05h26.05c1.17,0,2.11.95,2.11,2.11s-.95,2.11-2.11,2.11h-27.4c-1.58.49-2.56,1.47-2.99,2.59-.24.62-.31,1.28-.22,1.92.09.64.34,1.27.75,1.82.84,1.12,2.37,1.93,4.6,1.93h49.71c1.17,0,2.11.95,2.11,2.11s-.95,2.11-2.11,2.11H25.48c-3.72,0-6.4-1.51-7.98-3.63-.84-1.13-1.36-2.43-1.54-3.77-.18-1.34-.04-2.72.45-4,.7-1.83,2.08-3.46,4.14-4.5L7.85,12.06H2.11c-1.17,0-2.11-.95-2.11-2.11s.95-2.11,2.11-2.11h7.38c1.03,0,1.89.74,2.07,1.71,0,0,13.13,52.33,13.13,52.33Zm56.72-36.86l-61.1-3.57,8.62,34.37,43.12-2.04,9.36-28.75Z"/>
    </clipPath>
    <linearGradient id="linear-gradient" x1="-6.82" y1="113.45" x2="93.18" y2="13.45" gradientTransform="translate(0 110.92) scale(1 -1)" gradientUnits="userSpaceOnUse">
      <stop offset="0" stop-color="#45f063"/>
      <stop offset="1" stop-color="#0986bf"/>
    </linearGradient>
  </defs>
  <g id="Layer_1-2" data-name="Layer 1">
    <g class="cls-1">
      <rect class="cls-3" x="-6.82" y="-2.53" width="100" height="100"/>
    </g>
  </g>
</svg>