<?xml version="1.0" encoding="UTF-8"?>
<svg id="Layer_2" data-name="Layer 2" xmlns="http://www.w3.org/2000/svg" viewBox="0 0 651.92 715.55">
  <defs>
    <style>
      .cls-1 {
        fill: #fff;
      }
    </style>
  </defs>
  <g id="Layer_1-2" data-name="Layer 1">
    <g>
      <path class="cls-1" d="m642.84,715.55l-617.94-3.11c-4.97-.02-8.98-4.07-8.95-9.05,0-1.01.18-2.01.51-2.95,7-19.87,27.43-44.62,50.79-61.61,29.26-21.27,64.66-21.54,90.51-21.73,8.94-.07,21.14-.16,24-1.9,22.32-24.1,60.79-42.08,105.6-49.35,46.67-7.57,95.59-3.12,137.76,12.52,40.88,15.17,70.11,36.31,84.78,61.28l2.06,1c4.08.36,8.13.81,12.08,1.33,54,7.13,99.79,28.53,125.7,58.69,3.25,3.76,2.83,9.45-.93,12.69-1.66,1.43-3.78,2.21-5.97,2.19h0Zm-603.58-21.09l580.91,2.93c-24.14-18.8-59.36-32.42-98.51-37.59-4.21-.56-8.57-1-12.94-1.38-1.15-.1-2.26-.41-3.29-.93-1.88-.95-3.85-1.91-5.85-2.86-1.72-.82-3.14-2.17-4.05-3.85-11.85-21.89-39.08-41.62-76.68-55.57-86.56-32.12-185.71-9.22-224,32.32-6.74,7.31-19.41,7.4-36.94,7.53-23.41.17-55.48.41-80.06,18.29-15.49,11.2-30.12,27.03-38.59,41.11h0Zm317.34-360.03c-15.43,0-28.8-3.26-38.17-9.61-34.92-23.68-70-104.17-44.94-162.59,7-16.45,18.22-32.19,33.22-46.8,3.67-3.35,9.37-3.09,12.71.59,3.19,3.5,3.12,8.89-.16,12.3-13.29,12.95-23.13,26.74-29.24,41-9.59,22.39-9.41,51.36.51,81.58,8.53,26,23.44,49.15,38,59,10.79,7.32,32.33,8.54,54.86,3.12,20.16-4.86,70.46-22.36,102-79.79,29.35-53.47,3.3-162.19-8.53-204.28-16.11,19-36.9,33.47-60.3,42-15.9,5.71-31.33,12.63-46.18,20.69-4.39,2.32-9.84.64-12.16-3.75-2.28-4.31-.71-9.66,3.54-12.05,15.65-8.5,31.93-15.79,48.69-21.82,42.26-15.25,61.8-49.09,62-49.43,2.44-4.33,7.92-5.87,12.26-3.43,1.96,1.1,3.43,2.89,4.13,5.02,2.17,6.59,52.74,162.14,12.34,235.74-35,63.73-91.06,83.21-113.55,88.62-10.16,2.51-20.57,3.81-31.03,3.89Z"/>
      <path class="cls-1" d="m330.14,580.46c-4.52,0-8.34-3.36-8.92-7.85-1.13-8.78-27.18-215.94,9.45-295.4,25.27-54.81,111.21-168.39,114.86-173.2,3-3.96,8.65-4.73,12.61-1.73,3.96,3,4.73,8.65,1.73,12.61h0c-.88,1.16-88.41,116.83-112.86,169.86-34.48,74.78-8.21,283.47-7.94,285.57.63,4.93-2.86,9.44-7.79,10.07,0,0-.01,0-.02,0-.37.05-.75.07-1.12.07h0Zm-183.3-213.67c-20.54,0-48.56-5.17-77.09-26.4C19.99,303.39.9,182.17.11,177.03c-.76-4.91,2.61-9.51,7.53-10.26,1.16-.18,2.34-.13,3.47.14.42.1,42.51,10,72.43,17,9.16,2.13,18.6,2.94,27.44,3.5,4.97.31,8.74,4.6,8.43,9.57s-4.6,8.74-9.57,8.43h0c-9.61-.61-19.94-1.51-30.38-3.94-19.54-4.57-44.2-10.37-59.2-13.92,6.28,31.94,25.17,112.32,60.18,138.37,37.68,28,73.89,23.7,87.7,20.54,17.92-4.1,27.76-12.24,30.75-18,11.62-22.27,6.61-79-21.26-104.14-8.86-8-19-13-32-15.59-4.93-.64-8.4-5.16-7.76-10.09.64-4.93,5.16-8.4,10.09-7.76.44.06.88.15,1.3.27,16.27,3.3,29.14,9.61,40.5,19.88,16,14.43,27.07,37.29,31.27,64.37,3.66,23.65,1.32,47.2-6.12,61.45-6.46,12.38-22.42,22.54-42.69,27.18-8.33,1.86-16.84,2.79-25.38,2.76h0Z"/>
      <path class="cls-1" d="m320,463.92c-3.21,0-6.18-1.7-7.79-4.48-.46-.79-46.74-79.89-100.84-128.37-37.92-34-87.67-64-88.16-64.31-4.26-2.56-5.64-8.09-3.08-12.35,2.56-4.26,8.09-5.64,12.35-3.08,2.09,1.26,51.68,31.18,90.91,66.33,56.25,50.42,102.45,129.4,104.39,132.73,2.5,4.3,1.04,9.81-3.26,12.3-1.37.8-2.92,1.22-4.51,1.22h0Zm153.34,6.93c-5.71-.03-11.39-.91-16.84-2.63-22.63-7-39.75-25.75-42.64-39.1-4.77-22.07,10.25-65.94,40.77-81.31,9.78-5.07,20.54-7.98,31.54-8.53,4.97-.26,9.21,3.56,9.47,8.53.26,4.97-3.56,9.21-8.53,9.47-8.51.41-16.83,2.68-24.38,6.63-9.86,5-19,15.66-25.17,29.33s-7.44,25.87-6.09,32.09c1.28,5.93,13.16,20.38,30.37,25.71,13.53,4.19,25.72,1.27,36.24-8.67,29.6-28,55.18-60.3,67.62-76.8-11.54-2.42-28.24-5.5-40.23-6-4.81-.19-9.34-.57-12.75-.88-4.95-.45-8.6-4.83-8.15-9.79.45-4.95,4.83-8.6,9.79-8.14h0c3.39.31,7.45.65,11.83.82,21.83.87,55.63,9.09,57.06,9.44,4.83,1.18,7.78,6.06,6.6,10.89-.27,1.08-.73,2.1-1.37,3.01-1.41,2-35.08,49.87-78,90.49-10.81,10.15-23.6,15.44-37.14,15.44h0Z"/>
      <path class="cls-1" d="m326.26,496.11c-4.97,0-9-4.03-8.99-9.01,0-2.45,1-4.79,2.76-6.48,2.06-2,51-48.7,102.24-72.8,36.07-17,78.87-23.31,80.67-23.57,4.93-.61,9.42,2.9,10.03,7.83.59,4.79-2.7,9.18-7.45,9.98-.57.08-42.06,6.27-75.59,22-48.48,22.82-97,69-97.44,69.5-1.67,1.62-3.9,2.54-6.23,2.55h0Z"/>
    </g>
  </g>
</svg>