<?xml version="1.0" encoding="UTF-8"?>
<svg id="Layer_2" data-name="Layer 2" xmlns="http://www.w3.org/2000/svg" viewBox="0 0 492 492">
  <defs>
    <style>
      .cls-1 {
        fill: #fff;
      }
    </style>
  </defs>
  <g id="Layer_2-2" data-name="Layer 2">
    <g>
      <path class="cls-1" d="m246,0C110.14,0,0,110.14,0,246s110.14,246,246,246,246-110.14,246-246S381.86,0,246,0Zm0,451c-113.22,0-205-91.78-205-205S132.78,41,246,41s205,91.78,205,205-91.78,205-205,205Z"/>
      <path class="cls-1" d="m166,361.27v-230.54c0-7.79,8.51-12.59,15.17-8.56l190.67,115.27c6.44,3.89,6.44,13.23,0,17.12l-190.67,115.27c-6.66,4.03-15.17-.77-15.17-8.56Z"/>
    </g>
  </g>
</svg>